Thin Italic.ufo
<glyph name="exclam" format="2">
  <advance width="736"/>
  <unicode hex="0021"/>
  <outline>
    <contour>
      <point x="612" y="2048" type="line"/>
      <point x="372" y="608" type="line"/>
      <point x="308" y="608" type="line"/>
      <point x="548" y="2048" type="line"/>
    </contour>
    <contour>
      <point x="244" y="-12" type="qcurve"/>
      <point x="214" y="-12"/>
      <point x="177" y="30"/>
      <point x="180" y="60" type="qcurve"/>
      <point x="183" y="90"/>
      <point x="230" y="132"/>
      <point x="260" y="132" type="qcurve"/>
      <point x="290" y="132"/>
      <point x="327" y="90"/>
      <point x="324" y="60" type="qcurve"/>
      <point x="322" y="40"/>
      <point x="299" y="7"/>
      <point x="264" y="-12"/>
    </contour>
  </outline>
</glyph>
<glyph name="numbersign" format="2">
  <advance width="1784"/>
  <unicode hex="0023"/>
  <outline>
    <contour>
      <point x="1076" y="0" type="line"/>
      <point x="1448" y="2048" type="line"/>
      <point x="1512" y="2048" type="line"/>
      <point x="1140" y="0" type="line"/>
    </contour>
    <contour>
      <point x="100" y="636" type="line"/>
      <point x="112" y="700" type="line"/>
      <point x="1640" y="700" type="line"/>
      <point x="1628" y="636" type="line"/>
    </contour>
    <contour>
      <point x="356" y="0" type="line"/>
      <point x="728" y="2048" type="line"/>
      <point x="792" y="2048" type="line"/>
      <point x="420" y="0" type="line"/>
    </contour>
    <contour>
      <point x="228" y="1348" type="line"/>
      <point x="242" y="1412" type="line"/>
      <point x="1770" y="1412" type="line"/>
      <point x="1756" y="1348" type="line"/>
    </contour>
  </outline>
</glyph>
<glyph name="dollar" format="2">
  <advance width="1724"/>
  <unicode hex="0024"/>
  <outline>
    <contour>
      <point x="664" y="-256" type="line"/>
      <point x="1088" y="2304" type="line"/>
      <point x="1152" y="2304" type="line"/>
      <point x="728" y="-256" type="line"/>
    </contour>
    <contour>
      <point x="1544" y="1536" type="line"/>
      <point x="1563" y="1746"/>
      <point x="1319" y="2016"/>
      <point x="1080" y="2016" type="qcurve"/>
      <point x="924" y="2016"/>
      <point x="657" y="1895"/>
      <point x="479" y="1686"/>
      <point x="456" y="1552" type="qcurve"/>
      <point x="443" y="1474"/>
      <point x="474" y="1343"/>
      <point x="563" y="1234"/>
      <point x="712" y="1146"/>
      <point x="816" y="1112" type="qcurve"/>
      <point x="1036" y="1040" type="line"/>
      <point x="1162" y="999"/>
      <point x="1341" y="897"/>
      <point x="1447" y="771"/>
      <point x="1484" y="615"/>
      <point x="1468" y="520" type="qcurve"/>
      <point x="1441" y="355"/>
      <point x="1241" y="106"/>
      <point x="926" y="-32"/>
      <point x="724" y="-32" type="qcurve"/>
      <point x="538" y="-32"/>
      <point x="278" y="99"/>
      <point x="153" y="330"/>
      <point x="168" y="480" type="qcurve"/>
      <point x="232" y="480" type="line"/>
      <point x="220" y="348"/>
      <point x="333" y="146"/>
      <point x="567" y="32"/>
      <point x="736" y="32" type="qcurve"/>
      <point x="913" y="32"/>
      <point x="1197" y="156"/>
      <point x="1380" y="376"/>
      <point x="1404" y="520" type="qcurve"/>
      <point x="1422" y="630"/>
      <point x="1353" y="800"/>
      <point x="1169" y="930"/>
      <point x="1012" y="980" type="qcurve"/>
      <point x="788" y="1052" type="line"/>
      <point x="559" y="1126"/>
      <point x="363" y="1375"/>
      <point x="392" y="1552" type="qcurve"/>
      <point x="418" y="1707"/>
      <point x="613" y="1945"/>
      <point x="911" y="2080"/>
      <point x="1088" y="2080" type="qcurve"/>
      <point x="1264" y="2080"/>
      <point x="1508" y="1940"/>
      <point x="1624" y="1694"/>
      <point x="1608" y="1536" type="qcurve"/>
    </contour>
  </outline>
</glyph>
<glyph name="percent" format="2">
  <advance width="2176"/>
  <unicode hex="0025"/>
  <outline>
    <contour>
      <point x="1216" y="372" type="qcurve"/>
      <point x="1224" y="436" type="line"/>
      <point x="1244" y="556"/>
      <point x="1363" y="736"/>
      <point x="1532" y="836"/>
      <point x="1628" y="836" type="qcurve"/>
      <point x="1722" y="836"/>
      <point x="1857" y="736"/>
      <point x="1916" y="556"/>
      <point x="1896" y="436" type="qcurve"/>
      <point x="1888" y="372" type="line"/>
      <point x="1868" y="252"/>
      <point x="1749" y="72"/>
      <point x="1580" y="-28"/>
      <point x="1484" y="-28" type="qcurve"/>
      <point x="1390" y="-28"/>
      <point x="1255" y="72"/>
      <point x="1196" y="252"/>
    </contour>
    <contour>
      <point x="1288" y="436" type="qcurve"/>
      <point x="1280" y="372" type="line"/>
      <point x="1253" y="219"/>
      <point x="1379" y="36"/>
      <point x="1496" y="36" type="qcurve"/>
      <point x="1610" y="36"/>
      <point x="1797" y="219"/>
      <point x="1824" y="372" type="qcurve"/>
      <point x="1832" y="436" type="line"/>
      <point x="1859" y="589"/>
      <point x="1730" y="772"/>
      <point x="1616" y="772" type="qcurve"/>
      <point x="1502" y="772"/>
      <point x="1315" y="589"/>
    </contour>
    <contour>
      <point x="364" y="1612" type="qcurve"/>
      <point x="376" y="1676" type="line"/>
      <point x="394" y="1796"/>
      <point x="513" y="1976"/>
      <point x="682" y="2076"/>
      <point x="776" y="2076" type="qcurve"/>
      <point x="872" y="2076"/>
      <point x="1007" y="1976"/>
      <point x="1066" y="1796"/>
      <point x="1048" y="1676" type="qcurve"/>
      <point x="1036" y="1612" type="line"/>
      <point x="1016" y="1492"/>
      <point x="897" y="1312"/>
      <point x="728" y="1212"/>
      <point x="632" y="1212" type="qcurve"/>
      <point x="538" y="1212"/>
      <point x="403" y="1312"/>
      <point x="344" y="1492"/>
    </contour>
    <contour>
      <point x="440" y="1676" type="qcurve"/>
      <point x="428" y="1612" type="line"/>
      <point x="401" y="1459"/>
      <point x="530" y="1276"/>
      <point x="644" y="1276" type="qcurve"/>
      <point x="758" y="1276"/>
      <point x="945" y="1459"/>
      <point x="972" y="1612" type="qcurve"/>
      <point x="984" y="1676" type="line"/>
      <point x="1008" y="1829"/>
      <point x="881" y="2012"/>
      <point x="764" y="2012" type="qcurve"/>
      <point x="650" y="2012"/>
      <point x="464" y="1829"/>
    </contour>
    <contour>
      <point x="308" y="0" type="line"/>
      <point x="1872" y="2048" type="line"/>
      <point x="1952" y="2048" type="line"/>
      <point x="388" y="0" type="line"/>
    </contour>
  </outline>
</glyph>
<glyph name="ampersand" format="2">
  <advance width="1644"/>
  <unicode hex="0026"/>
  <outline>
    <contour>
      <point x="626" y="-28" type="qcurve"/>
      <point x="464" y="-28"/>
      <point x="225" y="117"/>
      <point x="112" y="363"/>
      <point x="138" y="512" type="qcurve"/>
      <point x="162" y="650"/>
      <point x="357" y="884"/>
      <point x="578" y="1032" type="qcurve"/>
      <point x="914" y="1256" type="line"/>
      <point x="1080" y="1366"/>
      <point x="1233" y="1551"/>
      <point x="1250" y="1660" type="qcurve"/>
      <point x="1274" y="1813"/>
      <point x="1131" y="2012"/>
      <point x="982" y="2012" type="qcurve"/>
      <point x="883" y="2012"/>
      <point x="688" y="1910"/>
      <point x="550" y="1742"/>
      <point x="534" y="1644" type="qcurve"/>
      <point x="524" y="1578"/>
      <point x="562" y="1452"/>
      <point x="656" y="1291"/>
      <point x="730" y="1172" type="qcurve"/>
      <point x="1462" y="0" type="line"/>
      <point x="1382" y="0" type="line"/>
      <point x="674" y="1132" type="line"/>
      <point x="600" y="1251"/>
      <point x="500" y="1422"/>
      <point x="457" y="1566"/>
      <point x="470" y="1644" type="qcurve"/>
      <point x="490" y="1760"/>
      <point x="642" y="1957"/>
      <point x="861" y="2076"/>
      <point x="978" y="2076" type="qcurve"/>
      <point x="1095" y="2076"/>
      <point x="1259" y="1968"/>
      <point x="1334" y="1780"/>
      <point x="1314" y="1660" type="qcurve"/>
      <point x="1294" y="1537"/>
      <point x="1125" y="1323"/>
      <point x="946" y="1204" type="qcurve"/>
      <point x="610" y="980" type="line"/>
      <point x="402" y="841"/>
      <point x="222" y="635"/>
      <point x="202" y="512" type="qcurve"/>
      <point x="181" y="380"/>
      <point x="274" y="161"/>
      <point x="477" y="33"/>
      <point x="622" y="36" type="qcurve"/>
      <point x="772" y="40"/>
      <point x="1034" y="145"/>
      <point x="1250" y="333"/>
      <point x="1414" y="589"/>
      <point x="1466" y="744" type="qcurve"/>
      <point x="1530" y="736" type="line"/>
      <point x="1501" y="650"/>
      <point x="1416" y="482"/>
      <point x="1315" y="328"/>
      <point x="1262" y="264" type="qcurve"/>
      <point x="1249" y="248"/>
      <point x="1221" y="217"/>
      <point x="1206" y="204" type="qcurve"/>
      <point x="1082" y="99"/>
      <point x="776" y="-28"/>
    </contour>
  </outline>
</glyph>
<glyph name="quotesingle" format="2">
  <advance width="576"/>
  <unicode hex="0027"/>
  <outline>
    <contour>
      <point x="532" y="2048" type="line"/>
      <point x="424" y="1408" type="line"/>
      <point x="360" y="1408" type="line"/>
      <point x="468" y="2048" type="line"/>
    </contour>
  </outline>
</glyph>
<glyph name="parenleft" format="2">
  <advance width="888"/>
  <unicode hex="0028"/>
  <outline>
    <contour>
      <point x="344" y="864" type="qcurve"/>
      <point x="398" y="1188"/>
      <point x="657" y="1838"/>
      <point x="852" y="2144" type="qcurve"/>
      <point x="920" y="2144" type="line"/>
      <point x="820" y="1990"/>
      <point x="655" y="1671"/>
      <point x="526" y="1349"/>
      <point x="435" y="1025"/>
      <point x="408" y="864" type="qcurve"/>
      <point x="372" y="648"/>
      <point x="369" y="216"/>
      <point x="432" y="-210"/>
      <point x="496" y="-416" type="qcurve"/>
      <point x="428" y="-416" type="line"/>
      <point x="335" y="-107"/>
      <point x="290" y="543"/>
    </contour>
  </outline>
</glyph>
<glyph name="parenright" format="2">
  <advance width="888"/>
  <unicode hex="0029"/>
  <outline>
    <contour>
      <point x="576" y="864" type="qcurve"/>
      <point x="522" y="540"/>
      <point x="263" y="-110"/>
      <point x="68" y="-416" type="qcurve"/>
      <point x="0" y="-416" type="line"/>
      <point x="101" y="-261"/>
      <point x="265" y="57"/>
      <point x="394" y="379"/>
      <point x="485" y="704"/>
      <point x="512" y="864" type="qcurve"/>
      <point x="548" y="1080"/>
      <point x="551" y="1512"/>
      <point x="488" y="1938"/>
      <point x="424" y="2144" type="qcurve"/>
      <point x="492" y="2144" type="line"/>
      <point x="585" y="1835"/>
      <point x="630" y="1185"/>
    </contour>
  </outline>
</glyph>
<glyph name="asterisk" format="2">
  <advance width="1408"/>
  <unicode hex="002A"/>
  <outline>
    <contour>
      <point x="692" y="896" type="line"/>
      <point x="780" y="1416" type="line"/>
      <point x="288" y="1156" type="line"/>
      <point x="256" y="1212" type="line"/>
      <point x="756" y="1476" type="line"/>
      <point x="352" y="1732" type="line"/>
      <point x="384" y="1788" type="line"/>
      <point x="796" y="1524" type="line"/>
      <point x="884" y="2048" type="line"/>
      <point x="948" y="2048" type="line"/>
      <point x="860" y="1528" type="line"/>
      <point x="1352" y="1788" type="line"/>
      <point x="1384" y="1732" type="line"/>
      <point x="884" y="1468" type="line"/>
      <point x="1288" y="1212" type="line"/>
      <point x="1256" y="1156" type="line"/>
      <point x="844" y="1420" type="line"/>
      <point x="756" y="896" type="line"/>
    </contour>
  </outline>
</glyph>
<glyph name="plus" format="2">
  <advance width="1792"/>
  <unicode hex="002B"/>
  <outline>
    <contour>
      <point x="772" y="220" type="line"/>
      <point x="964" y="1380" type="line"/>
      <point x="1028" y="1380" type="line"/>
      <point x="836" y="220" type="line"/>
    </contour>
    <contour>
      <point x="316" y="768" type="line"/>
      <point x="328" y="832" type="line"/>
      <point x="1488" y="832" type="line"/>
      <point x="1476" y="768" type="line"/>
    </contour>
  </outline>
</glyph>
<glyph name="comma" format="2">
  <advance width="724"/>
  <unicode hex="002C"/>
  <outline>
    <contour>
      <point x="364" y="280" type="line"/>
      <point x="324" y="176" type="line"/>
      <point x="287" y="79"/>
      <point x="199" y="-179"/>
      <point x="112" y="-424"/>
      <point x="76" y="-500" type="qcurve"/>
      <point x="24" y="-500" type="line"/>
      <point x="50" y="-424"/>
      <point x="122" y="-215"/>
      <point x="208" y="33"/>
      <point x="256" y="168" type="qcurve"/>
      <point x="296" y="280" type="line"/>
    </contour>
  </outline>
</glyph>
<glyph name="hyphenminus" format="2">
  <advance width="1236"/>
  <unicode hex="002D"/>
  <outline>
    <contour>
      <point x="1024" y="910" type="line"/>
      <point x="1012" y="846" type="line"/>
      <point x="248" y="846" type="line"/>
      <point x="260" y="910" type="line"/>
    </contour>
  </outline>
</glyph>
<glyph name="period" format="2">
  <advance width="712"/>
  <unicode hex="002E"/>
  <outline>
    <contour>
      <point x="232" y="-12" type="qcurve"/>
      <point x="202" y="-12"/>
      <point x="165" y="30"/>
      <point x="168" y="60" type="qcurve"/>
      <point x="171" y="90"/>
      <point x="218" y="132"/>
      <point x="248" y="132" type="qcurve"/>
      <point x="278" y="132"/>
      <point x="315" y="90"/>
      <point x="312" y="60" type="qcurve"/>
      <point x="310" y="40"/>
      <point x="287" y="7"/>
      <point x="252" y="-12"/>
    </contour>
  </outline>
</glyph>
<glyph name="slash" format="2">
  <advance width="910"/>
  <unicode hex="002F"/>
  <outline>
    <contour>
      <point x="1048" y="2144" type="line"/>
      <point x="-18" y="-308" type="line"/>
      <point x="-88" y="-308" type="line"/>
      <point x="976" y="2144" type="line"/>
    </contour>
  </outline>
</glyph>
<glyph name="zero" format="2">
  <advance width="1664"/>
  <unicode hex="0030"/>
  <outline>
    <contour>
      <point x="696" y="-28" type="qcurve"/>
      <point x="501" y="-28"/>
      <point x="262" y="225"/>
      <point x="190" y="697"/>
      <point x="244" y="1024" type="qcurve"/>
      <point x="298" y="1349"/>
      <point x="527" y="1821"/>
      <point x="849" y="2076"/>
      <point x="1044" y="2076" type="qcurve"/>
      <point x="1239" y="2076"/>
      <point x="1480" y="1822"/>
      <point x="1554" y="1350"/>
      <point x="1500" y="1024" type="qcurve"/>
      <point x="1446" y="698"/>
      <point x="1216" y="226"/>
      <point x="891" y="-28"/>
    </contour>
    <contour>
      <point x="700" y="36" type="qcurve"/>
      <point x="957" y="36"/>
      <point x="1357" y="549"/>
      <point x="1436" y="1024" type="qcurve"/>
      <point x="1486" y="1324"/>
      <point x="1429" y="1768"/>
      <point x="1221" y="2012"/>
      <point x="1044" y="2012" type="qcurve"/>
      <point x="785" y="2012"/>
      <point x="386" y="1497"/>
      <point x="308" y="1024" type="qcurve"/>
      <point x="258" y="724"/>
      <point x="313" y="280"/>
      <point x="521" y="36"/>
    </contour>
  </outline>
</glyph>
<glyph name="one" format="2">
  <advance width="1136"/>
  <unicode hex="0031"/>
  <unicode hex="E06C"/>
  <outline>
    <contour>
      <point x="916" y="2048" type="line"/>
      <point x="576" y="0" type="line"/>
      <point x="512" y="0" type="line"/>
      <point x="828" y="1904" type="line"/>
      <point x="812" y="1904" type="line"/>
      <point x="792" y="1882"/>
      <point x="662" y="1769"/>
      <point x="466" y="1668"/>
      <point x="348" y="1664" type="qcurve"/>
      <point x="360" y="1728" type="line"/>
      <point x="462" y="1733"/>
      <point x="639" y="1825"/>
      <point x="773" y="1945"/>
      <point x="854" y="2041"/>
      <point x="860" y="2048" type="qcurve"/>
    </contour>
  </outline>
</glyph>
<glyph name="two" format="2">
  <advance width="1748"/>
  <unicode hex="0032"/>
  <outline>
    <contour>
      <point x="132" y="0" type="line"/>
      <point x="140" y="52" type="line"/>
      <point x="924" y="828" type="line"/>
      <point x="1110" y="1010"/>
      <point x="1324" y="1255"/>
      <point x="1424" y="1446"/>
      <point x="1440" y="1548" type="qcurve"/>
      <point x="1473" y="1749"/>
      <point x="1260" y="2012"/>
      <point x="1056" y="2012" type="qcurve"/>
      <point x="914" y="2012"/>
      <point x="672" y="1882"/>
      <point x="510" y="1666"/>
      <point x="488" y="1536" type="qcurve"/>
      <point x="424" y="1536" type="line"/>
      <point x="448" y="1684"/>
      <point x="627" y="1929"/>
      <point x="896" y="2076"/>
      <point x="1056" y="2076" type="qcurve"/>
      <point x="1210" y="2076"/>
      <point x="1430" y="1939"/>
      <point x="1530" y="1700"/>
      <point x="1504" y="1548" type="qcurve"/>
      <point x="1486" y="1434"/>
      <point x="1378" y="1228"/>
      <point x="1156" y="974"/>
      <point x="968" y="788" type="qcurve"/>
      <point x="244" y="72" type="line"/>
      <point x="244" y="64" type="line"/>
      <point x="1380" y="64" type="line"/>
      <point x="1368" y="0" type="line"/>
    </contour>
  </outline>
</glyph>
<glyph name="three" format="2">
  <advance width="1688"/>
  <unicode hex="0033"/>
  <unicode hex="E06D"/>
  <outline>
    <contour>
      <point x="176" y="512" type="qcurve"/>
      <point x="240" y="512" type="line"/>
      <point x="218" y="374"/>
      <point x="318" y="159"/>
      <point x="537" y="36"/>
      <point x="692" y="36" type="qcurve"/>
      <point x="862" y="36"/>
      <point x="1137" y="182"/>
      <point x="1316" y="424"/>
      <point x="1340" y="568" type="qcurve"/>
      <point x="1366" y="725"/>
      <point x="1250" y="967"/>
      <point x="952" y="1104"/>
      <point x="704" y="1104" type="qcurve"/>
      <point x="700" y="1104" type="line"/>
      <point x="712" y="1168" type="line"/>
      <point x="1488" y="1976" type="line"/>
      <point x="1488" y="1984" type="line"/>
      <point x="504" y="1984" type="line"/>
      <point x="516" y="2048" type="line"/>
      <point x="1596" y="2048" type="line"/>
      <point x="1588" y="1996" type="line"/>
      <point x="796" y="1172" type="line"/>
      <point x="792" y="1164" type="line"/>
      <point x="950" y="1157"/>
      <point x="1197" y="1071"/>
      <point x="1360" y="918"/>
      <point x="1427" y="703"/>
      <point x="1404" y="568" type="qcurve"/>
      <point x="1377" y="406"/>
      <point x="1185" y="135"/>
      <point x="885" y="-28"/>
      <point x="696" y="-28" type="qcurve"/>
      <point x="524" y="-28"/>
      <point x="271" y="112"/>
      <point x="151" y="356"/>
    </contour>
  </outline>
</glyph>
<glyph name="four" format="2">
  <advance width="1676"/>
  <unicode hex="0034"/>
  <unicode hex="E06E"/>
  <outline>
    <contour>
      <point x="160" y="480" type="line"/>
      <point x="168" y="528" type="line"/>
      <point x="1356" y="2048" type="line"/>
      <point x="1432" y="2048" type="line"/>
      <point x="264" y="552" type="line"/>
      <point x="264" y="544" type="line"/>
      <point x="1432" y="544" type="line"/>
      <point x="1420" y="480" type="line"/>
    </contour>
    <contour>
      <point x="1020" y="0" type="line"/>
      <point x="1104" y="500" type="line"/>
      <point x="1108" y="520" type="line"/>
      <point x="1232" y="1280" type="line"/>
      <point x="1296" y="1280" type="line"/>
      <point x="1084" y="0" type="line"/>
    </contour>
  </outline>
</glyph>
<glyph name="five" format="2">
  <advance width="1608"/>
  <unicode hex="0035"/>
  <outline>
    <contour>
      <point x="644" y="-28" type="qcurve"/>
      <point x="485" y="-28"/>
      <point x="263" y="110"/>
      <point x="165" y="354"/>
      <point x="192" y="512" type="qcurve"/>
      <point x="256" y="512" type="line"/>
      <point x="222" y="302"/>
      <point x="430" y="36"/>
      <point x="644" y="36" type="qcurve"/>
      <point x="804" y="36"/>
      <point x="1082" y="195"/>
      <point x="1273" y="467"/>
      <point x="1300" y="636" type="qcurve"/>
      <point x="1329" y="818"/>
      <point x="1227" y="1084"/>
      <point x="1007" y="1228"/>
      <point x="860" y="1228" type="qcurve"/>
      <point x="739" y="1228"/>
      <point x="515" y="1136"/>
      <point x="432" y="1064" type="qcurve"/>
      <point x="330" y="1064" type="line"/>
      <point x="620" y="2048" type="line"/>
      <point x="1528" y="2048" type="line"/>
      <point x="1516" y="1984" type="line"/>
      <point x="664" y="1984" type="line"/>
      <point x="420" y="1136" type="line"/>
      <point x="428" y="1136" type="line"/>
      <point x="517" y="1208"/>
      <point x="736" y="1292"/>
      <point x="860" y="1292" type="qcurve"/>
      <point x="1025" y="1292"/>
      <point x="1279" y="1129"/>
      <point x="1399" y="834"/>
      <point x="1364" y="636" type="qcurve"/>
      <point x="1331" y="446"/>
      <point x="1124" y="146"/>
      <point x="821" y="-28"/>
    </contour>
  </outline>
</glyph>
<glyph name="six" format="2">
  <advance width="1600"/>
  <unicode hex="0036"/>
  <unicode hex="E06F"/>
  <outline>
    <contour>
      <point x="184" y="612" type="qcurve"/>
      <point x="196" y="690"/>
      <point x="249" y="834"/>
      <point x="327" y="963"/>
      <point x="376" y="1020" type="qcurve"/>
      <point x="1256" y="2048" type="line"/>
      <point x="1340" y="2048" type="line"/>
      <point x="600" y="1184" type="line"/>
      <point x="666" y="1217"/>
      <point x="808" y="1252"/>
      <point x="880" y="1252" type="qcurve"/>
      <point x="1044" y="1252"/>
      <point x="1284" y="1079"/>
      <point x="1396" y="788"/>
      <point x="1368" y="612" type="qcurve"/>
      <point x="1338" y="436"/>
      <point x="1130" y="145"/>
      <point x="832" y="-28"/>
      <point x="668" y="-28" type="qcurve"/>
      <point x="504" y="-28"/>
      <point x="264" y="145"/>
      <point x="154" y="436"/>
    </contour>
    <contour>
      <point x="248" y="612" type="qcurve"/>
      <point x="220" y="454"/>
      <point x="313" y="192"/>
      <point x="522" y="36"/>
      <point x="668" y="36" type="qcurve"/>
      <point x="812" y="36"/>
      <point x="1083" y="192"/>
      <point x="1276" y="454"/>
      <point x="1304" y="612" type="qcurve"/>
      <point x="1330" y="772"/>
      <point x="1235" y="1033"/>
      <point x="1026" y="1188"/>
      <point x="880" y="1188" type="qcurve"/>
      <point x="732" y="1188"/>
      <point x="462" y="1033"/>
      <point x="274" y="772"/>
    </contour>
  </outline>
</glyph>
<glyph name="seven" format="2">
  <advance width="1540"/>
  <unicode hex="0037"/>
  <outline>
    <contour>
      <point x="180" y="0" type="line"/>
      <point x="1476" y="1976" type="line"/>
      <point x="1476" y="1984" type="line"/>
      <point x="364" y="1984" type="line"/>
      <point x="376" y="2048" type="line"/>
      <point x="1564" y="2048" type="line"/>
      <point x="1552" y="1984" type="line"/>
      <point x="252" y="0" type="line"/>
    </contour>
  </outline>
</glyph>
<glyph name="eight" format="2">
  <advance width="1696"/>
  <unicode hex="0038"/>
  <outline>
    <contour>
      <point x="716" y="-28" type="qcurve"/>
      <point x="540" y="-28"/>
      <point x="276" y="122"/>
      <point x="146" y="374"/>
      <point x="172" y="528" type="qcurve"/>
      <point x="192" y="650"/>
      <point x="340" y="870"/>
      <point x="562" y="1028"/>
      <point x="692" y="1056" type="qcurve"/>
      <point x="692" y="1064" type="line"/>
      <point x="542" y="1118"/>
      <point x="382" y="1388"/>
      <point x="412" y="1556" type="qcurve"/>
      <point x="436" y="1702"/>
      <point x="628" y="1938"/>
      <point x="908" y="2076"/>
      <point x="1064" y="2076" type="qcurve"/>
      <point x="1220" y="2076"/>
      <point x="1456" y="1938"/>
      <point x="1572" y="1702"/>
      <point x="1548" y="1556" type="qcurve"/>
      <point x="1518" y="1388"/>
      <point x="1271" y="1118"/>
      <point x="1100" y="1064" type="qcurve"/>
      <point x="1100" y="1056" type="line"/>
      <point x="1222" y="1028"/>
      <point x="1390" y="870"/>
      <point x="1464" y="650"/>
      <point x="1444" y="528" type="qcurve"/>
      <point x="1418" y="374"/>
      <point x="1205" y="122"/>
      <point x="892" y="-28"/>
    </contour>
    <contour>
      <point x="712" y="36" type="qcurve"/>
      <point x="872" y="36"/>
      <point x="1161" y="171"/>
      <point x="1358" y="396"/>
      <point x="1380" y="532" type="qcurve"/>
      <point x="1402" y="668"/>
      <point x="1298" y="893"/>
      <point x="1072" y="1028"/>
      <point x="912" y="1028" type="qcurve"/>
      <point x="752" y="1028"/>
      <point x="459" y="893"/>
      <point x="258" y="668"/>
      <point x="236" y="532" type="qcurve"/>
      <point x="214" y="396"/>
      <point x="322" y="171"/>
      <point x="552" y="36"/>
    </contour>
    <contour>
      <point x="884" y="1084" type="qcurve"/>
      <point x="1022" y="1084"/>
      <point x="1281" y="1213"/>
      <point x="1462" y="1428"/>
      <point x="1484" y="1556" type="qcurve"/>
      <point x="1504" y="1684"/>
      <point x="1409" y="1891"/>
      <point x="1208" y="2012"/>
      <point x="1068" y="2012" type="qcurve"/>
      <point x="930" y="2012"/>
      <point x="674" y="1891"/>
      <point x="496" y="1684"/>
      <point x="476" y="1556" type="qcurve"/>
      <point x="454" y="1428"/>
      <point x="547" y="1213"/>
      <point x="746" y="1084"/>
    </contour>
  </outline>
</glyph>
<glyph name="nine" format="2">
  <advance width="1600"/>
  <unicode hex="0039"/>
  <unicode hex="E070"/>
  <outline>
    <contour>
      <point x="312" y="1436" type="qcurve"/>
      <point x="342" y="1612"/>
      <point x="550" y="1903"/>
      <point x="848" y="2076"/>
      <point x="1012" y="2076" type="qcurve"/>
      <point x="1176" y="2076"/>
      <point x="1413" y="1903"/>
      <point x="1523" y="1613"/>
      <point x="1496" y="1436" type="qcurve"/>
      <point x="1484" y="1358"/>
      <point x="1430" y="1214"/>
      <point x="1352" y="1084"/>
      <point x="1304" y="1028" type="qcurve"/>
      <point x="424" y="0" type="line"/>
      <point x="340" y="0" type="line"/>
      <point x="1080" y="864" type="line"/>
      <point x="1014" y="831"/>
      <point x="872" y="796"/>
      <point x="800" y="796" type="qcurve"/>
      <point x="636" y="796"/>
      <point x="394" y="970"/>
      <point x="282" y="1261"/>
    </contour>
    <contour>
      <point x="376" y="1436" type="qcurve"/>
      <point x="351" y="1276"/>
      <point x="445" y="1015"/>
      <point x="654" y="860"/>
      <point x="800" y="860" type="qcurve"/>
      <point x="948" y="860"/>
      <point x="1216" y="1015"/>
      <point x="1404" y="1277"/>
      <point x="1432" y="1436" type="qcurve"/>
      <point x="1460" y="1594"/>
      <point x="1367" y="1856"/>
      <point x="1158" y="2012"/>
      <point x="1012" y="2012" type="qcurve"/>
      <point x="868" y="2012"/>
      <point x="595" y="1856"/>
      <point x="402" y="1595"/>
    </contour>
  </outline>
</glyph>
<glyph name="colon" format="2">
  <advance width="712"/>
  <unicode hex="003A"/>
  <outline>
    <contour>
      <point x="256" y="148" type="qcurve"/>
      <point x="226" y="148"/>
      <point x="189" y="190"/>
      <point x="192" y="220" type="qcurve"/>
      <point x="195" y="250"/>
      <point x="242" y="292"/>
      <point x="272" y="292" type="qcurve"/>
      <point x="302" y="292"/>
      <point x="339" y="250"/>
      <point x="336" y="220" type="qcurve"/>
      <point x="334" y="200"/>
      <point x="311" y="167"/>
      <point x="276" y="148"/>
    </contour>
    <contour>
      <point x="432" y="1192" type="qcurve"/>
      <point x="402" y="1192"/>
      <point x="365" y="1234"/>
      <point x="368" y="1264" type="qcurve"/>
      <point x="371" y="1294"/>
      <point x="418" y="1336"/>
      <point x="448" y="1336" type="qcurve"/>
      <point x="478" y="1336"/>
      <point x="515" y="1294"/>
      <point x="512" y="1264" type="qcurve"/>
      <point x="510" y="1244"/>
      <point x="487" y="1211"/>
      <point x="452" y="1192"/>
    </contour>
  </outline>
</glyph>
<glyph name="semicolon" format="2">
  <advance width="728"/>
  <unicode hex="003B"/>
  <outline>
    <contour>
      <point x="364" y="280" type="line"/>
      <point x="324" y="176" type="line"/>
      <point x="287" y="79"/>
      <point x="199" y="-179"/>
      <point x="112" y="-424"/>
      <point x="76" y="-500" type="qcurve"/>
      <point x="24" y="-500" type="line"/>
      <point x="50" y="-424"/>
      <point x="122" y="-215"/>
      <point x="208" y="33"/>
      <point x="256" y="168" type="qcurve"/>
      <point x="296" y="280" type="line"/>
    </contour>
    <contour>
      <point x="440" y="1192" type="qcurve"/>
      <point x="410" y="1192"/>
      <point x="373" y="1234"/>
      <point x="376" y="1264" type="qcurve"/>
      <point x="379" y="1294"/>
      <point x="426" y="1336"/>
      <point x="456" y="1336" type="qcurve"/>
      <point x="486" y="1336"/>
      <point x="523" y="1294"/>
      <point x="520" y="1264" type="qcurve"/>
      <point x="518" y="1244"/>
      <point x="495" y="1211"/>
      <point x="460" y="1192"/>
    </contour>
  </outline>
</glyph>
<glyph name="equal" format="2">
  <advance width="1792"/>
  <unicode hex="003D"/>
  <outline>
    <contour>
      <point x="464" y="1036" type="line"/>
      <point x="476" y="1100" type="line"/>
      <point x="1428" y="1100" type="line"/>
      <point x="1416" y="1036" type="line"/>
    </contour>
    <contour>
      <point x="376" y="500" type="line"/>
      <point x="388" y="564" type="line"/>
      <point x="1340" y="564" type="line"/>
      <point x="1328" y="500" type="line"/>
    </contour>
  </outline>
</glyph>
<glyph name="greater" format="2">
  <advance width="1792"/>
  <unicode hex="003E"/>
  <outline>
    <contour>
      <point x="1444" y="768" type="line"/>
      <point x="232" y="56" type="line"/>
      <point x="244" y="132" type="line"/>
      <point x="1388" y="804" type="line"/>
      <point x="1376" y="784" type="line"/>
      <point x="1380" y="816" type="line"/>
      <point x="1388" y="796" type="line"/>
      <point x="464" y="1468" type="line"/>
      <point x="476" y="1544" type="line"/>
      <point x="1456" y="832" type="line"/>
    </contour>
  </outline>
</glyph>
<glyph name="question" format="2">
  <advance width="1348"/>
  <unicode hex="003F"/>
  <outline>
    <contour>
      <point x="560" y="608" type="line"/>
      <point x="584" y="748" type="line"/>
      <point x="600" y="843"/>
      <point x="673" y="989"/>
      <point x="810" y="1118"/>
      <point x="920" y="1188" type="qcurve"/>
      <point x="1029" y="1258"/>
      <point x="1170" y="1365"/>
      <point x="1248" y="1487"/>
      <point x="1260" y="1576" type="qcurve"/>
      <point x="1287" y="1770"/>
      <point x="1079" y="2012"/>
      <point x="888" y="2012" type="qcurve"/>
      <point x="748" y="2012"/>
      <point x="507" y="1881"/>
      <point x="346" y="1664"/>
      <point x="324" y="1536" type="qcurve"/>
      <point x="260" y="1536" type="line"/>
      <point x="286" y="1691"/>
      <point x="467" y="1935"/>
      <point x="734" y="2076"/>
      <point x="888" y="2076" type="qcurve"/>
      <point x="1037" y="2076"/>
      <point x="1247" y="1941"/>
      <point x="1344" y="1714"/>
      <point x="1324" y="1576" type="qcurve"/>
      <point x="1309" y="1470"/>
      <point x="1227" y="1331"/>
      <point x="1074" y="1211"/>
      <point x="952" y="1132" type="qcurve"/>
      <point x="847" y="1065"/>
      <point x="724" y="953"/>
      <point x="662" y="831"/>
      <point x="648" y="748" type="qcurve"/>
      <point x="624" y="608" type="line"/>
    </contour>
    <contour>
      <point x="496" y="-12" type="qcurve"/>
      <point x="466" y="-12"/>
      <point x="429" y="30"/>
      <point x="432" y="60" type="qcurve"/>
      <point x="435" y="90"/>
      <point x="482" y="132"/>
      <point x="512" y="132" type="qcurve"/>
      <point x="542" y="132"/>
      <point x="579" y="90"/>
      <point x="576" y="60" type="qcurve"/>
      <point x="574" y="40"/>
      <point x="551" y="7"/>
      <point x="516" y="-12"/>
    </contour>
  </outline>
</glyph>
<glyph name="at" format="2">
  <advance width="2636"/>
  <unicode hex="0040"/>
  <outline>
    <contour>
      <point x="1104" y="-544" type="qcurve"/>
      <point x="860" y="-544"/>
      <point x="464" y="-348"/>
      <point x="196" y="-3"/>
      <point x="89" y="453"/>
      <point x="132" y="712" type="qcurve"/>
      <point x="174" y="973"/>
      <point x="432" y="1429"/>
      <point x="815" y="1773"/>
      <point x="1276" y="1968"/>
      <point x="1520" y="1968" type="qcurve"/>
      <point x="1763" y="1968"/>
      <point x="2156" y="1773"/>
      <point x="2422" y="1429"/>
      <point x="2530" y="973"/>
      <point x="2488" y="712" type="qcurve"/>
      <point x="2466" y="576"/>
      <point x="2354" y="344"/>
      <point x="2194" y="171"/>
      <point x="1999" y="76"/>
      <point x="1892" y="76" type="qcurve"/>
      <point x="1812" y="76"/>
      <point x="1728" y="135"/>
      <point x="1710" y="270"/>
      <point x="1728" y="384" type="qcurve"/>
      <point x="1720" y="384" type="line"/>
      <point x="1656" y="284"/>
      <point x="1481" y="133"/>
      <point x="1278" y="48"/>
      <point x="1172" y="48" type="qcurve"/>
      <point x="1054" y="48"/>
      <point x="864" y="151"/>
      <point x="739" y="333"/>
      <point x="692" y="574"/>
      <point x="716" y="712" type="qcurve"/>
      <point x="739" y="850"/>
      <point x="865" y="1091"/>
      <point x="1051" y="1273"/>
      <point x="1274" y="1376"/>
      <point x="1392" y="1376" type="qcurve"/>
      <point x="1498" y="1376"/>
      <point x="1673" y="1291"/>
      <point x="1798" y="1138"/>
      <point x="1828" y="1036" type="qcurve"/>
      <point x="1836" y="1036" type="line"/>
      <point x="1892" y="1364" type="line"/>
      <point x="1956" y="1364" type="line"/>
      <point x="1792" y="384" type="line"/>
      <point x="1768" y="237"/>
      <point x="1810" y="140"/>
      <point x="1900" y="140" type="qcurve"/>
      <point x="2022" y="140"/>
      <point x="2240" y="289"/>
      <point x="2396" y="548"/>
      <point x="2424" y="712" type="qcurve"/>
      <point x="2456" y="910"/>
      <point x="2405" y="1268"/>
      <point x="2253" y="1565"/>
      <point x="2014" y="1784"/>
      <point x="1704" y="1904"/>
      <point x="1520" y="1904" type="qcurve"/>
      <point x="1289" y="1904"/>
      <point x="850" y="1719"/>
      <point x="485" y="1392"/>
      <point x="237" y="960"/>
      <point x="196" y="712" type="qcurve"/>
      <point x="154" y="465"/>
      <point x="252" y="32"/>
      <point x="502" y="-295"/>
      <point x="873" y="-480"/>
      <point x="1104" y="-480" type="qcurve"/>
      <point x="1214" y="-480"/>
      <point x="1436" y="-435"/>
      <point x="1652" y="-348"/>
      <point x="1752" y="-284" type="qcurve"/>
      <point x="1784" y="-336" type="line"/>
      <point x="1678" y="-404"/>
      <point x="1452" y="-497"/>
      <point x="1220" y="-544"/>
    </contour>
    <contour>
      <point x="1172" y="112" type="qcurve"/>
      <point x="1310" y="112"/>
      <point x="1570" y="274"/>
      <point x="1756" y="546"/>
      <point x="1784" y="712" type="qcurve"/>
      <point x="1810" y="878"/>
      <point x="1725" y="1150"/>
      <point x="1530" y="1312"/>
      <point x="1392" y="1312" type="qcurve"/>
      <point x="1254" y="1312"/>
      <point x="993" y="1150"/>
      <point x="806" y="878"/>
      <point x="780" y="712" type="qcurve"/>
      <point x="752" y="546"/>
      <point x="838" y="274"/>
      <point x="1034" y="112"/>
    </contour>
  </outline>
</glyph>
<glyph name="B" format="2">
  <advance width="1804"/>
  <unicode hex="0042"/>
  <outline>
    <contour>
      <point x="192" y="0" type="line"/>
      <point x="532" y="2048" type="line"/>
      <point x="1172" y="2048" type="line"/>
      <point x="1344" y="2048"/>
      <point x="1569" y="1923"/>
      <point x="1660" y="1690"/>
      <point x="1632" y="1528" type="qcurve"/>
      <point x="1602" y="1348"/>
      <point x="1396" y="1083"/>
      <point x="1240" y="1044" type="qcurve"/>
      <point x="1240" y="1036" type="line"/>
      <point x="1350" y="1026"/>
      <point x="1506" y="890"/>
      <point x="1572" y="666"/>
      <point x="1548" y="524" type="qcurve"/>
      <point x="1522" y="366"/>
      <point x="1349" y="130"/>
      <point x="1076" y="0"/>
      <point x="900" y="0" type="qcurve"/>
    </contour>
    <contour>
      <point x="268" y="64" type="line"/>
      <point x="912" y="64" type="line"/>
      <point x="1137" y="64"/>
      <point x="1448" y="317"/>
      <point x="1484" y="524" type="qcurve"/>
      <point x="1508" y="666"/>
      <point x="1416" y="884"/>
      <point x="1212" y="1008"/>
      <point x="1068" y="1008" type="qcurve"/>
      <point x="424" y="1008" type="line"/>
    </contour>
    <contour>
      <point x="436" y="1072" type="line"/>
      <point x="1080" y="1072" type="line"/>
      <point x="1218" y="1072"/>
      <point x="1422" y="1198"/>
      <point x="1548" y="1406"/>
      <point x="1568" y="1528" type="qcurve"/>
      <point x="1604" y="1747"/>
      <point x="1385" y="1984"/>
      <point x="1160" y="1984" type="qcurve"/>
      <point x="584" y="1984" type="line"/>
    </contour>
  </outline>
</glyph>
<glyph name="D" format="2">
  <advance width="2012"/>
  <unicode hex="0044"/>
  <outline>
    <contour>
      <point x="728" y="0" type="qcurve"/>
      <point x="192" y="0" type="line"/>
      <point x="532" y="2048" type="line"/>
      <point x="1120" y="2048" type="line"/>
      <point x="1402" y="2048"/>
      <point x="1766" y="1805"/>
      <point x="1906" y="1350"/>
      <point x="1852" y="1032" type="qcurve"/>
      <point x="1796" y="706"/>
      <point x="1493" y="244"/>
      <point x="1028" y="0"/>
    </contour>
    <contour>
      <point x="267" y="64" type="line"/>
      <point x="740" y="64" type="line"/>
      <point x="1019" y="64"/>
      <point x="1456" y="300"/>
      <point x="1740" y="734"/>
      <point x="1788" y="1032" type="qcurve"/>
      <point x="1837" y="1336"/>
      <point x="1715" y="1761"/>
      <point x="1380" y="1984"/>
      <point x="1108" y="1984" type="qcurve"/>
      <point x="585" y="1984" type="line"/>
    </contour>
  </outline>
</glyph>
<glyph name="E" format="2">
  <advance width="1644"/>
  <unicode hex="0045"/>
  <outline>
    <contour>
      <point x="192" y="0" type="line"/>
      <point x="532" y="2048" type="line"/>
      <point x="1624" y="2048" type="line"/>
      <point x="1612" y="1984" type="line"/>
      <point x="584" y="1984" type="line"/>
      <point x="432" y="1056" type="line"/>
      <point x="1400" y="1056" type="line"/>
      <point x="1388" y="992" type="line"/>
      <point x="420" y="992" type="line"/>
      <point x="268" y="64" type="line"/>
      <point x="1324" y="64" type="line"/>
      <point x="1312" y="0" type="line"/>
    </contour>
  </outline>
</glyph>
<glyph name="F" format="2">
  <advance width="1648"/>
  <unicode hex="0046"/>
  <outline>
    <contour>
      <point x="192" y="0" type="line"/>
      <point x="532" y="2048" type="line"/>
      <point x="1632" y="2048" type="line"/>
      <point x="1620" y="1984" type="line"/>
      <point x="584" y="1984" type="line"/>
      <point x="432" y="1056" type="line"/>
      <point x="1372" y="1056" type="line"/>
      <point x="1360" y="992" type="line"/>
      <point x="420" y="992" type="line"/>
      <point x="256" y="0" type="line"/>
    </contour>
  </outline>
</glyph>
<glyph name="H" format="2">
  <advance width="2072"/>
  <unicode hex="0048"/>
  <outline>
    <contour>
      <point x="192" y="0" type="line"/>
      <point x="532" y="2048" type="line"/>
      <point x="596" y="2048" type="line"/>
      <point x="432" y="1056" type="line"/>
      <point x="1736" y="1056" type="line"/>
      <point x="1900" y="2048" type="line"/>
      <point x="1964" y="2048" type="line"/>
      <point x="1624" y="0" type="line"/>
      <point x="1560" y="0" type="line"/>
      <point x="1724" y="992" type="line"/>
      <point x="420" y="992" type="line"/>
      <point x="256" y="0" type="line"/>
    </contour>
  </outline>
</glyph>
<glyph name="I" format="2">
  <advance width="984"/>
  <unicode hex="0049"/>
  <unicode hex="E00C"/>
  <outline>
    <contour>
      <point x="376" y="1984" type="line"/>
      <point x="384" y="2048" type="line"/>
      <point x="1024" y="2048" type="line"/>
      <point x="1016" y="1984" type="line"/>
    </contour>
    <contour>
      <point x="44" y="0" type="line"/>
      <point x="56" y="64" type="line"/>
      <point x="696" y="64" type="line"/>
      <point x="684" y="0" type="line"/>
    </contour>
    <contour>
      <point x="736" y="2048" type="line"/>
      <point x="396" y="0" type="line"/>
      <point x="332" y="0" type="line"/>
      <point x="672" y="2048" type="line"/>
    </contour>
  </outline>
</glyph>
<glyph name="J" format="2">
  <advance width="1464"/>
  <unicode hex="004A"/>
  <outline>
    <contour>
      <point x="1292" y="2048" type="line"/>
      <point x="1356" y="2048" type="line"/>
      <point x="1108" y="544" type="line"/>
      <point x="1073" y="336"/>
      <point x="893" y="85"/>
      <point x="648" y="-28"/>
      <point x="516" y="-28" type="qcurve"/>
      <point x="376" y="-28"/>
      <point x="169" y="80"/>
      <point x="69" y="266"/>
      <point x="88" y="384" type="qcurve"/>
      <point x="152" y="384" type="line"/>
      <point x="136" y="284"/>
      <point x="225" y="127"/>
      <point x="407" y="36"/>
      <point x="528" y="36" type="qcurve"/>
      <point x="641" y="36"/>
      <point x="853" y="132"/>
      <point x="1012" y="354"/>
      <point x="1044" y="544" type="qcurve"/>
    </contour>
    <contour>
      <point x="856" y="2048" type="line"/>
      <point x="1339" y="2048" type="line"/>
      <point x="1330" y="1984" type="line"/>
      <point x="847" y="1984" type="line"/>
    </contour>
  </outline>
</glyph>
<glyph name="K" format="2">
  <advance width="1736"/>
  <unicode hex="004B"/>
  <outline>
    <contour>
      <point x="192" y="0" type="line"/>
      <point x="532" y="2048" type="line"/>
      <point x="596" y="2048" type="line"/>
      <point x="384" y="772" type="line"/>
      <point x="392" y="772" type="line"/>
      <point x="1764" y="2048" type="line"/>
      <point x="1852" y="2048" type="line"/>
      <point x="784" y="1056" type="line"/>
      <point x="1500" y="0" type="line"/>
      <point x="1416" y="0" type="line"/>
      <point x="732" y="1008" type="line"/>
      <point x="368" y="668" type="line"/>
      <point x="256" y="0" type="line"/>
    </contour>
  </outline>
</glyph>
<glyph name="L" format="2">
  <advance width="1584"/>
  <unicode hex="004C"/>
  <outline>
    <contour>
      <point x="192" y="0" type="line"/>
      <point x="532" y="2048" type="line"/>
      <point x="596" y="2048" type="line"/>
      <point x="268" y="64" type="line"/>
      <point x="1292" y="64" type="line"/>
      <point x="1280" y="0" type="line"/>
    </contour>
  </outline>
</glyph>
<glyph name="M" format="2">
  <advance width="2432"/>
  <unicode hex="004D"/>
  <outline>
    <contour>
      <point x="532" y="2048" type="line"/>
      <point x="588" y="2048" type="line"/>
      <point x="1100" y="96" type="line"/>
      <point x="1108" y="96" type="line"/>
      <point x="2268" y="2048" type="line"/>
      <point x="2324" y="2048" type="line"/>
      <point x="1984" y="0" type="line"/>
      <point x="1920" y="0" type="line"/>
      <point x="2228" y="1848" type="line"/>
      <point x="2220" y="1848" type="line"/>
      <point x="1120" y="0" type="line"/>
      <point x="1056" y="0" type="line"/>
      <point x="572" y="1848" type="line"/>
      <point x="564" y="1848" type="line"/>
      <point x="256" y="0" type="line"/>
      <point x="192" y="0" type="line"/>
    </contour>
  </outline>
</glyph>
<glyph name="N" format="2">
  <advance width="2176"/>
  <unicode hex="004E"/>
  <outline>
    <contour>
      <point x="2068" y="2048" type="line"/>
      <point x="1728" y="0" type="line"/>
      <point x="1664" y="0" type="line"/>
      <point x="584" y="1928" type="line"/>
      <point x="576" y="1928" type="line"/>
      <point x="256" y="0" type="line"/>
      <point x="192" y="0" type="line"/>
      <point x="532" y="2048" type="line"/>
      <point x="596" y="2048" type="line"/>
      <point x="1676" y="120" type="line"/>
      <point x="1684" y="120" type="line"/>
      <point x="2004" y="2048" type="line"/>
    </contour>
  </outline>
</glyph>
<glyph name="Q" format="2">
  <advance width="2104"/>
  <unicode hex="0051"/>
  <outline>
    <contour>
      <point x="1044" y="640" type="line"/>
      <point x="1124" y="640" type="line"/>
      <point x="1456" y="200" type="line"/>
      <point x="1468" y="184" type="line"/>
      <point x="1752" y="-192" type="line"/>
      <point x="1672" y="-192" type="line"/>
      <point x="1412" y="152" type="line"/>
      <point x="1400" y="168" type="line"/>
    </contour>
    <contour>
      <point x="1940" y="1024" type="qcurve"/>
      <point x="1889" y="711"/>
      <point x="1597" y="237"/>
      <point x="1172" y="-28"/>
      <point x="920" y="-28" type="qcurve"/>
      <point x="663" y="-28"/>
      <point x="326" y="238"/>
      <point x="194" y="712"/>
      <point x="244" y="1024" type="qcurve"/>
      <point x="297" y="1337"/>
      <point x="590" y="1811"/>
      <point x="1016" y="2076"/>
      <point x="1268" y="2076" type="qcurve"/>
      <point x="1519" y="2076"/>
      <point x="1858" y="1812"/>
      <point x="1994" y="1339"/>
    </contour>
    <contour>
      <point x="1876" y="1024" type="qcurve"/>
      <point x="1926" y="1322"/>
      <point x="1808" y="1766"/>
      <point x="1503" y="2012"/>
      <point x="1272" y="2012" type="qcurve"/>
      <point x="1037" y="2012"/>
      <point x="637" y="1764"/>
      <point x="360" y="1319"/>
      <point x="308" y="1024" type="qcurve"/>
      <point x="259" y="727"/>
      <point x="375" y="283"/>
      <point x="682" y="36"/>
      <point x="916" y="36" type="qcurve"/>
      <point x="1154" y="36"/>
      <point x="1555" y="286"/>
      <point x="1830" y="731"/>
    </contour>
  </outline>
</glyph>
<glyph name="R" format="2">
  <advance width="1732"/>
  <unicode hex="0052"/>
  <outline>
    <contour>
      <point x="192" y="0" type="line"/>
      <point x="532" y="2048" type="line"/>
      <point x="1132" y="2048" type="line"/>
      <point x="1304" y="2048"/>
      <point x="1545" y="1903"/>
      <point x="1652" y="1640"/>
      <point x="1624" y="1464" type="qcurve"/>
      <point x="1594" y="1290"/>
      <point x="1400" y="1029"/>
      <point x="1112" y="884"/>
      <point x="940" y="884" type="qcurve"/>
      <point x="372" y="884" type="line"/>
      <point x="380" y="948" type="line"/>
      <point x="948" y="948" type="line"/>
      <point x="1102" y="948"/>
      <point x="1361" y="1076"/>
      <point x="1534" y="1308"/>
      <point x="1560" y="1464" type="qcurve"/>
      <point x="1599" y="1701"/>
      <point x="1351" y="1984"/>
      <point x="1120" y="1984" type="qcurve"/>
      <point x="584" y="1984" type="line"/>
      <point x="256" y="0" type="line"/>
    </contour>
    <contour>
      <point x="1128" y="932" type="line"/>
      <point x="1476" y="0" type="line"/>
      <point x="1408" y="0" type="line"/>
      <point x="1060" y="932" type="line"/>
    </contour>
  </outline>
</glyph>
<glyph name="T" format="2">
  <advance width="1728"/>
  <unicode hex="0054"/>
  <outline>
    <contour>
      <point x="372" y="1984" type="line"/>
      <point x="384" y="2048" type="line"/>
      <point x="1768" y="2048" type="line"/>
      <point x="1756" y="1984" type="line"/>
      <point x="1096" y="1984" type="line"/>
      <point x="768" y="0" type="line"/>
      <point x="704" y="0" type="line"/>
      <point x="1032" y="1984" type="line"/>
    </contour>
  </outline>
</glyph>
<glyph name="U" format="2">
  <advance width="2112"/>
  <unicode hex="0055"/>
  <outline>
    <contour>
      <point x="1940" y="2048" type="line"/>
      <point x="2004" y="2048" type="line"/>
      <point x="1780" y="692" type="line"/>
      <point x="1746" y="484"/>
      <point x="1500" y="157"/>
      <point x="1136" y="-32"/>
      <point x="924" y="-32" type="qcurve"/>
      <point x="716" y="-32"/>
      <point x="414" y="158"/>
      <point x="274" y="485"/>
      <point x="308" y="692" type="qcurve"/>
      <point x="532" y="2048" type="line"/>
      <point x="596" y="2048" type="line"/>
      <point x="372" y="692" type="line"/>
      <point x="341" y="502"/>
      <point x="461" y="204"/>
      <point x="731" y="32"/>
      <point x="924" y="32" type="qcurve"/>
      <point x="1117" y="32"/>
      <point x="1455" y="204"/>
      <point x="1685" y="502"/>
      <point x="1716" y="692" type="qcurve"/>
    </contour>
  </outline>
</glyph>
<glyph name="V" format="2">
  <advance width="1736"/>
  <unicode hex="0056"/>
  <outline>
    <contour>
      <point x="372" y="2048" type="line"/>
      <point x="748" y="80" type="line"/>
      <point x="756" y="80" type="line"/>
      <point x="1788" y="2048" type="line"/>
      <point x="1856" y="2048" type="line"/>
      <point x="784" y="0" type="line"/>
      <point x="696" y="0" type="line"/>
      <point x="304" y="2048" type="line"/>
    </contour>
  </outline>
</glyph>
<glyph name="W" format="2">
  <advance width="2512"/>
  <unicode hex="0057"/>
  <outline>
    <contour>
      <point x="516" y="0" type="line"/>
      <point x="292" y="2048" type="line"/>
      <point x="360" y="2048" type="line"/>
      <point x="568" y="100" type="line"/>
      <point x="576" y="100" type="line"/>
      <point x="1424" y="2048" type="line"/>
      <point x="1512" y="2048" type="line"/>
      <point x="1708" y="100" type="line"/>
      <point x="1716" y="100" type="line"/>
      <point x="2576" y="2048" type="line"/>
      <point x="2648" y="2048" type="line"/>
      <point x="1744" y="0" type="line"/>
      <point x="1652" y="0" type="line"/>
      <point x="1456" y="1948" type="line"/>
      <point x="1448" y="1948" type="line"/>
      <point x="604" y="0" type="line"/>
    </contour>
  </outline>
</glyph>
<glyph name="X" format="2">
  <advance width="1648"/>
  <unicode hex="0058"/>
  <outline>
    <contour>
      <point x="384" y="2048" type="line"/>
      <point x="868" y="1084" type="line"/>
      <point x="876" y="1084" type="line"/>
      <point x="1680" y="2048" type="line"/>
      <point x="1764" y="2048" type="line"/>
      <point x="908" y="1024" type="line"/>
      <point x="1424" y="0" type="line"/>
      <point x="1352" y="0" type="line"/>
      <point x="868" y="964" type="line"/>
      <point x="860" y="964" type="line"/>
      <point x="56" y="0" type="line"/>
      <point x="-32" y="0" type="line"/>
      <point x="828" y="1024" type="line"/>
      <point x="308" y="2048" type="line"/>
    </contour>
  </outline>
</glyph>
<glyph name="Y" format="2">
  <advance width="1728"/>
  <unicode hex="0059"/>
  <outline>
    <contour>
      <point x="308" y="2048" type="line"/>
      <point x="380" y="2048" type="line"/>
      <point x="896" y="1044" type="line"/>
      <point x="908" y="1044" type="line"/>
      <point x="1760" y="2048" type="line"/>
      <point x="1844" y="2048" type="line"/>
      <point x="928" y="972" type="line"/>
      <point x="768" y="0" type="line"/>
      <point x="704" y="0" type="line"/>
      <point x="864" y="972" type="line"/>
    </contour>
  </outline>
</glyph>
<glyph name="Z" format="2">
  <advance width="1704"/>
  <unicode hex="005A"/>
  <outline>
    <contour>
      <point x="84" y="0" type="line"/>
      <point x="96" y="64" type="line"/>
      <point x="1612" y="1984" type="line"/>
      <point x="424" y="1984" type="line"/>
      <point x="432" y="2048" type="line"/>
      <point x="1704" y="2048" type="line"/>
      <point x="1696" y="1984" type="line"/>
      <point x="176" y="64" type="line"/>
      <point x="1384" y="64" type="line"/>
      <point x="1372" y="0" type="line"/>
    </contour>
  </outline>
</glyph>
<glyph name="bracketleft" format="2">
  <advance width="888"/>
  <unicode hex="005B"/>
  <outline>
    <contour>
      <point x="156" y="-416" type="line"/>
      <point x="580" y="2144" type="line"/>
      <point x="932" y="2144" type="line"/>
      <point x="920" y="2080" type="line"/>
      <point x="632" y="2080" type="line"/>
      <point x="232" y="-352" type="line"/>
      <point x="520" y="-352" type="line"/>
      <point x="508" y="-416" type="line"/>
    </contour>
  </outline>
</glyph>
<glyph name="backslash" format="2">
  <advance width="904"/>
  <unicode hex="005C"/>
  <outline>
    <contour>
      <point x="572" y="-308" type="line"/>
      <point x="318" y="2144" type="line"/>
      <point x="382" y="2144" type="line"/>
      <point x="636" y="-308" type="line"/>
    </contour>
  </outline>
</glyph>
<glyph name="bracketright" format="2">
  <advance width="888"/>
  <unicode hex="005D"/>
  <outline>
    <contour>
      <point x="764" y="2144" type="line"/>
      <point x="340" y="-416" type="line"/>
      <point x="-12" y="-416" type="line"/>
      <point x="0" y="-352" type="line"/>
      <point x="288" y="-352" type="line"/>
      <point x="688" y="2080" type="line"/>
      <point x="400" y="2080" type="line"/>
      <point x="412" y="2144" type="line"/>
    </contour>
  </outline>
</glyph>
<glyph name="asciicircum" format="2">
  <advance width="1128"/>
  <unicode hex="005E"/>
  <outline>
    <contour>
      <point x="744" y="1944" type="line"/>
      <point x="784" y="1944" type="line"/>
      <point x="776" y="1880" type="line"/>
      <point x="736" y="1880" type="line"/>
    </contour>
    <contour>
      <point x="188" y="1120" type="line"/>
      <point x="740" y="1984" type="line"/>
      <point x="788" y="1984" type="line"/>
      <point x="1052" y="1120" type="line"/>
      <point x="980" y="1120" type="line"/>
      <point x="744" y="1920" type="line"/>
      <point x="776" y="1920" type="line"/>
      <point x="260" y="1120" type="line"/>
    </contour>
  </outline>
</glyph>
<glyph name="underscore" format="2">
  <advance width="1202"/>
  <unicode hex="005F"/>
  <outline>
    <contour>
      <point x="1080" y="0" type="line"/>
      <point x="1072" y="-64" type="line"/>
      <point x="-148" y="-64" type="line"/>
      <point x="-136" y="0" type="line"/>
    </contour>
  </outline>
</glyph>
<glyph name="grave" format="2">
  <advance width="1400"/>
  <unicode hex="0060"/>
  <outline>
    <contour>
      <point x="968" y="1760" type="line"/>
      <point x="744" y="2192" type="line"/>
      <point x="820" y="2192" type="line"/>
      <point x="1028" y="1760" type="line"/>
    </contour>
  </outline>
</glyph>
<glyph name="c" format="2">
  <advance width="1556"/>
  <unicode hex="0063"/>
  <outline>
    <contour>
      <point x="692" y="-32" type="qcurve"/>
      <point x="502" y="-32"/>
      <point x="247" y="178"/>
      <point x="143" y="539"/>
      <point x="180" y="764" type="qcurve"/>
      <point x="217" y="991"/>
      <point x="443" y="1351"/>
      <point x="770" y="1560"/>
      <point x="956" y="1560" type="qcurve"/>
      <point x="1165" y="1560"/>
      <point x="1424" y="1298"/>
      <point x="1424" y="1088" type="qcurve"/>
      <point x="1356" y="1088" type="line"/>
      <point x="1356" y="1276"/>
      <point x="1137" y="1496"/>
      <point x="956" y="1496" type="qcurve"/>
      <point x="787" y="1496"/>
      <point x="488" y="1305"/>
      <point x="279" y="975"/>
      <point x="244" y="764" type="qcurve"/>
      <point x="210" y="560"/>
      <point x="297" y="228"/>
      <point x="521" y="32"/>
      <point x="692" y="32" type="qcurve"/>
      <point x="817" y="32"/>
      <point x="1045" y="136"/>
      <point x="1217" y="324"/>
      <point x="1256" y="448" type="qcurve"/>
      <point x="1324" y="448" type="line"/>
      <point x="1277" y="301"/>
      <point x="1085" y="86"/>
      <point x="832" y="-32"/>
    </contour>
  </outline>
</glyph>
<glyph name="d" format="2">
  <advance width="1684"/>
  <unicode hex="0064"/>
  <outline>
    <contour>
      <point x="640" y="-32" type="qcurve"/>
      <point x="458" y="-32"/>
      <point x="226" y="177"/>
      <point x="141" y="537"/>
      <point x="178" y="764" type="qcurve"/>
      <point x="216" y="990"/>
      <point x="422" y="1350"/>
      <point x="723" y="1560"/>
      <point x="902" y="1560" type="qcurve"/>
      <point x="1025" y="1560"/>
      <point x="1214" y="1459"/>
      <point x="1335" y="1272"/>
      <point x="1354" y="1144" type="qcurve"/>
      <point x="1362" y="1144" type="line"/>
      <point x="1512" y="2048" type="line"/>
      <point x="1576" y="2048" type="line"/>
      <point x="1236" y="0" type="line"/>
      <point x="1172" y="0" type="line"/>
      <point x="1236" y="384" type="line"/>
      <point x="1228" y="384" type="line"/>
      <point x="1165" y="257"/>
      <point x="984" y="70"/>
      <point x="763" y="-32"/>
    </contour>
    <contour>
      <point x="640" y="32" type="qcurve"/>
      <point x="803" y="32"/>
      <point x="1077" y="225"/>
      <point x="1264" y="556"/>
      <point x="1298" y="764" type="qcurve"/>
      <point x="1333" y="972"/>
      <point x="1264" y="1303"/>
      <point x="1064" y="1496"/>
      <point x="902" y="1496" type="qcurve"/>
      <point x="740" y="1496"/>
      <point x="466" y="1303"/>
      <point x="277" y="972"/>
      <point x="242" y="764" type="qcurve"/>
      <point x="208" y="556"/>
      <point x="277" y="225"/>
      <point x="477" y="32"/>
    </contour>
  </outline>
</glyph>
<glyph name="g" format="2">
  <advance width="1644"/>
  <unicode hex="0067"/>
  <outline>
    <contour>
      <point x="512" y="-608" type="curve" smooth="yes"/>
      <point x="867" y="-608"/>
      <point x="1119" y="-411"/>
      <point x="1185" y="-32" type="curve"/>
      <point x="1462" y="1536" type="line"/>
      <point x="1398" y="1536" type="line"/>
      <point x="1329" y="1144" type="line"/>
      <point x="1321" y="1144" type="line"/>
      <point x="1282" y="1400"/>
      <point x="1122" y="1560"/>
      <point x="874" y="1560" type="curve"/>
      <point x="510" y="1560"/>
      <point x="222" y="1220"/>
      <point x="142" y="764" type="curve"/>
      <point x="62" y="312"/>
      <point x="239" y="0"/>
      <point x="599" y="0" type="curve"/>
      <point x="827" y="0"/>
      <point x="1062" y="128"/>
      <point x="1187" y="384" type="curve"/>
      <point x="1195" y="384" type="line"/>
      <point x="1121" y="-32" type="line"/>
      <point x="1061" y="-377"/>
      <point x="843" y="-544"/>
      <point x="523" y="-544" type="curve"/>
      <point x="292" y="-544"/>
      <point x="103" y="-457"/>
      <point x="86" y="-276" type="curve"/>
      <point x="16" y="-276" type="line"/>
      <point x="34" y="-506"/>
      <point x="254" y="-608"/>
    </contour>
    <contour>
      <point x="610" y="64" type="curve" smooth="yes"/>
      <point x="286" y="64"/>
      <point x="132" y="348"/>
      <point x="206" y="764" type="curve"/>
      <point x="279" y="1180"/>
      <point x="537" y="1496"/>
      <point x="863" y="1496" type="curve"/>
      <point x="1189" y="1496"/>
      <point x="1335" y="1180"/>
      <point x="1262" y="764" type="curve"/>
      <point x="1186" y="333"/>
      <point x="930" y="64"/>
    </contour>
  </outline>
</glyph>
<glyph name="i" format="2">
  <advance width="624"/>
  <unicode hex="0069"/>
  <outline>
    <contour>
      <point x="152" y="0" type="line"/>
      <point x="408" y="1536" type="line"/>
      <point x="472" y="1536" type="line"/>
      <point x="216" y="0" type="line"/>
    </contour>
    <contour>
      <point x="490" y="1816" type="qcurve"/>
      <point x="460" y="1816"/>
      <point x="425" y="1858"/>
      <point x="430" y="1888" type="qcurve"/>
      <point x="434" y="1909"/>
      <point x="474" y="1944"/>
      <point x="498" y="1944" type="qcurve"/>
      <point x="528" y="1944"/>
      <point x="563" y="1902"/>
      <point x="558" y="1872" type="qcurve"/>
      <point x="554" y="1850"/>
      <point x="514" y="1816"/>
    </contour>
  </outline>
</glyph>
<glyph name="j" format="2">
  <advance width="624"/>
  <unicode hex="006A"/>
  <outline>
    <contour>
      <point x="408" y="1536" type="line"/>
      <point x="472" y="1536" type="line"/>
      <point x="180" y="-224" type="line"/>
      <point x="162" y="-332"/>
      <point x="37" y="-490"/>
      <point x="-138" y="-576"/>
      <point x="-232" y="-576" type="qcurve"/>
      <point x="-238" y="-576"/>
      <point x="-251" y="-575"/>
      <point x="-260" y="-572" type="qcurve"/>
      <point x="-244" y="-512" type="line"/>
      <point x="-238" y="-512"/>
      <point x="-226" y="-512"/>
      <point x="-220" y="-512" type="qcurve"/>
      <point x="-106" y="-512"/>
      <point x="94" y="-359"/>
      <point x="116" y="-224" type="qcurve"/>
    </contour>
    <contour>
      <point x="490" y="1816" type="qcurve"/>
      <point x="460" y="1816"/>
      <point x="425" y="1858"/>
      <point x="430" y="1888" type="qcurve"/>
      <point x="434" y="1909"/>
      <point x="474" y="1944"/>
      <point x="498" y="1944" type="qcurve"/>
      <point x="528" y="1944"/>
      <point x="563" y="1902"/>
      <point x="558" y="1872" type="qcurve"/>
      <point x="554" y="1850"/>
      <point x="514" y="1816"/>
    </contour>
  </outline>
</glyph>
<glyph name="k" format="2">
  <advance width="1372"/>
  <unicode hex="006B"/>
  <outline>
    <contour>
      <point x="296" y="620" type="line"/>
      <point x="316" y="740" type="line"/>
      <point x="340" y="740" type="line"/>
      <point x="1280" y="1536" type="line"/>
      <point x="1380" y="1536" type="line"/>
      <point x="564" y="848" type="line"/>
      <point x="556" y="840" type="line"/>
    </contour>
    <contour>
      <point x="144" y="0" type="line"/>
      <point x="484" y="2048" type="line"/>
      <point x="548" y="2048" type="line"/>
      <point x="208" y="0" type="line"/>
    </contour>
    <contour>
      <point x="1072" y="0" type="line"/>
      <point x="532" y="848" type="line"/>
      <point x="584" y="888" type="line"/>
      <point x="1148" y="0" type="line"/>
    </contour>
  </outline>
</glyph>
<glyph name="l" format="2">
  <advance width="620"/>
  <unicode hex="006C"/>
  <unicode hex="E050"/>
  <outline>
    <contour>
      <point x="484" y="2048" type="line"/>
      <point x="548" y="2048" type="line"/>
      <point x="252" y="248" type="line"/>
      <point x="230" y="113"/>
      <point x="352" y="43"/>
      <point x="464" y="68" type="qcurve"/>
      <point x="471" y="70"/>
      <point x="478" y="72"/>
      <point x="476" y="72" type="qcurve"/>
      <point x="484" y="12" type="line"/>
      <point x="484" y="12"/>
      <point x="465" y="6"/>
      <point x="460" y="4" type="qcurve"/>
      <point x="312" y="-26"/>
      <point x="162" y="88"/>
      <point x="188" y="248" type="qcurve"/>
    </contour>
  </outline>
</glyph>
<glyph name="m" format="2">
  <advance width="2352"/>
  <unicode hex="006D"/>
  <outline>
    <contour>
      <point x="144" y="0" type="line"/>
      <point x="400" y="1536" type="line"/>
      <point x="464" y="1536" type="line"/>
      <point x="424" y="1308" type="line"/>
      <point x="432" y="1308" type="line"/>
      <point x="495" y="1419"/>
      <point x="735" y="1556"/>
      <point x="888" y="1556" type="qcurve"/>
      <point x="1062" y="1556"/>
      <point x="1238" y="1384"/>
      <point x="1256" y="1240" type="qcurve"/>
      <point x="1264" y="1240" type="line"/>
      <point x="1324" y="1384"/>
      <point x="1586" y="1556"/>
      <point x="1760" y="1556" type="qcurve"/>
      <point x="1991" y="1556"/>
      <point x="2163" y="1263"/>
      <point x="2124" y="1032" type="qcurve"/>
      <point x="1952" y="0" type="line"/>
      <point x="1888" y="0" type="line"/>
      <point x="2060" y="1032" type="line"/>
      <point x="2093" y="1236"/>
      <point x="1960" y="1492"/>
      <point x="1756" y="1492" type="qcurve"/>
      <point x="1552" y="1492"/>
      <point x="1285" y="1233"/>
      <point x="1252" y="1032" type="qcurve"/>
      <point x="1080" y="0" type="line"/>
      <point x="1016" y="0" type="line"/>
      <point x="1188" y="1032" type="line"/>
      <point x="1221" y="1236"/>
      <point x="1088" y="1492"/>
      <point x="884" y="1492" type="qcurve"/>
      <point x="748" y="1492"/>
      <point x="537" y="1374"/>
      <point x="402" y="1166"/>
      <point x="380" y="1032" type="qcurve"/>
      <point x="208" y="0" type="line"/>
    </contour>
  </outline>
</glyph>
<glyph name="n" format="2">
  <advance width="1600"/>
  <unicode hex="006E"/>
  <outline>
    <contour>
      <point x="380" y="1032" type="qcurve"/>
      <point x="208" y="0" type="line"/>
      <point x="144" y="0" type="line"/>
      <point x="400" y="1536" type="line"/>
      <point x="464" y="1536" type="line"/>
      <point x="424" y="1292" type="line"/>
      <point x="432" y="1292" type="line"/>
      <point x="504" y="1412"/>
      <point x="777" y="1556"/>
      <point x="936" y="1556" type="qcurve"/>
      <point x="1090" y="1556"/>
      <point x="1304" y="1422"/>
      <point x="1398" y="1186"/>
      <point x="1372" y="1032" type="qcurve"/>
      <point x="1200" y="0" type="line"/>
      <point x="1136" y="0" type="line"/>
      <point x="1308" y="1032" type="line"/>
      <point x="1341" y="1236"/>
      <point x="1136" y="1492"/>
      <point x="932" y="1492" type="qcurve"/>
      <point x="796" y="1492"/>
      <point x="561" y="1374"/>
      <point x="402" y="1166"/>
    </contour>
  </outline>
</glyph>
<glyph name="o" format="2">
  <advance width="1632"/>
  <unicode hex="006F"/>
  <outline>
    <contour>
      <point x="688" y="-32" type="qcurve"/>
      <point x="506" y="-32"/>
      <point x="251" y="178"/>
      <point x="142" y="542"/>
      <point x="180" y="772" type="qcurve"/>
      <point x="218" y="996"/>
      <point x="443" y="1353"/>
      <point x="762" y="1560"/>
      <point x="940" y="1560" type="qcurve"/>
      <point x="1124" y="1560"/>
      <point x="1379" y="1348"/>
      <point x="1488" y="984"/>
      <point x="1452" y="756" type="qcurve"/>
      <point x="1414" y="532"/>
      <point x="1188" y="175"/>
      <point x="868" y="-32"/>
    </contour>
    <contour>
      <point x="688" y="32" type="qcurve"/>
      <point x="854" y="32"/>
      <point x="1148" y="225"/>
      <point x="1354" y="560"/>
      <point x="1388" y="772" type="qcurve"/>
      <point x="1422" y="978"/>
      <point x="1328" y="1306"/>
      <point x="1104" y="1496"/>
      <point x="944" y="1496" type="qcurve"/>
      <point x="780" y="1496"/>
      <point x="486" y="1301"/>
      <point x="278" y="966"/>
      <point x="244" y="756" type="qcurve"/>
      <point x="208" y="550"/>
      <point x="303" y="222"/>
      <point x="528" y="32"/>
    </contour>
  </outline>
</glyph>
<glyph name="p" format="2">
  <advance width="1638"/>
  <unicode hex="0070"/>
  <outline>
    <contour>
      <point x="50" y="-576" type="line"/>
      <point x="402" y="1536" type="line"/>
      <point x="466" y="1536" type="line"/>
      <point x="402" y="1144" type="line"/>
      <point x="410" y="1144" type="line"/>
      <point x="472" y="1272"/>
      <point x="651" y="1459"/>
      <point x="874" y="1560"/>
      <point x="998" y="1560" type="qcurve"/>
      <point x="1180" y="1560"/>
      <point x="1411" y="1352"/>
      <point x="1496" y="992"/>
      <point x="1458" y="764" type="qcurve"/>
      <point x="1420" y="538"/>
      <point x="1213" y="178"/>
      <point x="914" y="-32"/>
      <point x="734" y="-32" type="qcurve"/>
      <point x="612" y="-32"/>
      <point x="422" y="69"/>
      <point x="302" y="256"/>
      <point x="282" y="384" type="qcurve"/>
      <point x="274" y="384" type="line"/>
      <point x="114" y="-576" type="line"/>
    </contour>
    <contour>
      <point x="338" y="764" type="qcurve"/>
      <point x="304" y="556"/>
      <point x="372" y="225"/>
      <point x="572" y="32"/>
      <point x="734" y="32" type="qcurve"/>
      <point x="896" y="32"/>
      <point x="1170" y="225"/>
      <point x="1360" y="556"/>
      <point x="1394" y="764" type="qcurve"/>
      <point x="1428" y="972"/>
      <point x="1360" y="1303"/>
      <point x="1162" y="1496"/>
      <point x="998" y="1496" type="qcurve"/>
      <point x="836" y="1496"/>
      <point x="560" y="1303"/>
      <point x="372" y="972"/>
    </contour>
  </outline>
</glyph>
<glyph name="q" format="2">
  <advance width="1636"/>
  <unicode hex="0071"/>
  <outline>
    <contour>
      <point x="1076" y="-576" type="line"/>
      <point x="1234" y="384" type="line"/>
      <point x="1226" y="384" type="line"/>
      <point x="1165" y="256"/>
      <point x="983" y="69"/>
      <point x="760" y="-32"/>
      <point x="638" y="-32" type="qcurve"/>
      <point x="458" y="-32"/>
      <point x="227" y="178"/>
      <point x="141" y="538"/>
      <point x="178" y="764" type="qcurve"/>
      <point x="215" y="991"/>
      <point x="419" y="1351"/>
      <point x="720" y="1560"/>
      <point x="902" y="1560" type="qcurve"/>
      <point x="1025" y="1560"/>
      <point x="1212" y="1458"/>
      <point x="1332" y="1272"/>
      <point x="1352" y="1144" type="qcurve"/>
      <point x="1360" y="1144" type="line"/>
      <point x="1426" y="1536" type="line"/>
      <point x="1490" y="1536" type="line"/>
      <point x="1140" y="-576" type="line"/>
    </contour>
    <contour>
      <point x="648" y="32" type="qcurve"/>
      <point x="810" y="32"/>
      <point x="1079" y="225"/>
      <point x="1263" y="556"/>
      <point x="1298" y="764" type="qcurve"/>
      <point x="1332" y="972"/>
      <point x="1259" y="1303"/>
      <point x="1054" y="1496"/>
      <point x="890" y="1496" type="qcurve"/>
      <point x="728" y="1496"/>
      <point x="459" y="1303"/>
      <point x="276" y="972"/>
      <point x="242" y="764" type="qcurve"/>
      <point x="207" y="556"/>
      <point x="281" y="225"/>
      <point x="486" y="32"/>
    </contour>
  </outline>
</glyph>
<glyph name="s" format="2">
  <advance width="1388"/>
  <unicode hex="0073"/>
  <outline>
    <contour>
      <point x="1218" y="1204" type="line"/>
      <point x="1204" y="1411"/>
      <point x="1050" y="1558"/>
      <point x="790" y="1560" type="curve"/>
      <point x="510" y="1562"/>
      <point x="294" y="1397"/>
      <point x="264" y="1156" type="curve"/>
      <point x="240" y="964"/>
      <point x="347" y="827"/>
      <point x="576" y="768" type="curve"/>
      <point x="808" y="708" type="line"/>
      <point x="1000" y="659"/>
      <point x="1084" y="542"/>
      <point x="1064" y="384" type="curve"/>
      <point x="1038" y="171"/>
      <point x="842" y="32"/>
      <point x="573" y="32" type="curve"/>
      <point x="327" y="32"/>
      <point x="183" y="149"/>
      <point x="173" y="360" type="curve"/>
      <point x="105" y="360" type="line"/>
      <point x="113" y="113"/>
      <point x="284" y="-32"/>
      <point x="565" y="-32" type="curve"/>
      <point x="870" y="-32"/>
      <point x="1098" y="139"/>
      <point x="1129" y="388" type="curve"/>
      <point x="1152" y="576"/>
      <point x="1051" y="716"/>
      <point x="832" y="772" type="curve"/>
      <point x="600" y="832" type="line"/>
      <point x="398" y="884"/>
      <point x="308" y="997"/>
      <point x="328" y="1156" type="curve"/>
      <point x="353" y="1357"/>
      <point x="538" y="1498"/>
      <point x="782" y="1496" type="curve"/>
      <point x="996" y="1494"/>
      <point x="1134" y="1385"/>
      <point x="1150" y="1204" type="curve"/>
    </contour>
  </outline>
</glyph>
<glyph name="t" format="2">
  <advance width="980"/>
  <unicode hex="0074"/>
  <outline>
    <contour>
      <point x="880" y="1536" type="line"/>
      <point x="868" y="1472" type="line"/>
      <point x="260" y="1472" type="line"/>
      <point x="272" y="1536" type="line"/>
    </contour>
    <contour>
      <point x="556" y="1904" type="line"/>
      <point x="620" y="1904" type="line"/>
      <point x="360" y="324" type="line"/>
      <point x="344" y="234"/>
      <point x="402" y="105"/>
      <point x="522" y="36"/>
      <point x="600" y="36" type="qcurve"/>
      <point x="627" y="36"/>
      <point x="678" y="47"/>
      <point x="708" y="56" type="qcurve"/>
      <point x="716" y="-4" type="line"/>
      <point x="683" y="-16"/>
      <point x="624" y="-28"/>
      <point x="588" y="-28" type="qcurve"/>
      <point x="494" y="-28"/>
      <point x="349" y="58"/>
      <point x="278" y="216"/>
      <point x="296" y="324" type="qcurve"/>
    </contour>
  </outline>
</glyph>
<glyph name="u" format="2">
  <advance width="1600"/>
  <unicode hex="0075"/>
  <outline>
    <contour>
      <point x="1220" y="504" type="qcurve"/>
      <point x="1392" y="1536" type="line"/>
      <point x="1456" y="1536" type="line"/>
      <point x="1200" y="0" type="line"/>
      <point x="1136" y="0" type="line"/>
      <point x="1176" y="244" type="line"/>
      <point x="1168" y="244" type="line"/>
      <point x="1096" y="124"/>
      <point x="823" y="-20"/>
      <point x="664" y="-20" type="qcurve"/>
      <point x="510" y="-20"/>
      <point x="296" y="114"/>
      <point x="202" y="350"/>
      <point x="228" y="504" type="qcurve"/>
      <point x="400" y="1536" type="line"/>
      <point x="464" y="1536" type="line"/>
      <point x="292" y="504" type="line"/>
      <point x="259" y="300"/>
      <point x="472" y="44"/>
      <point x="676" y="44" type="qcurve"/>
      <point x="812" y="44"/>
      <point x="1043" y="162"/>
      <point x="1198" y="370"/>
    </contour>
  </outline>
</glyph>
<glyph name="v" format="2">
  <advance width="1472"/>
  <unicode hex="0076"/>
  <outline>
    <contour>
      <point x="1456" y="1536" type="line"/>
      <point x="652" y="0" type="line"/>
      <point x="564" y="0" type="line"/>
      <point x="272" y="1536" type="line"/>
      <point x="336" y="1536" type="line"/>
      <point x="614" y="80" type="line"/>
      <point x="622" y="80" type="line"/>
      <point x="1384" y="1536" type="line"/>
    </contour>
  </outline>
</glyph>
<glyph name="w" format="2">
  <advance width="2224"/>
  <unicode hex="0077"/>
  <outline>
    <contour>
      <point x="472" y="0" type="line"/>
      <point x="272" y="1536" type="line"/>
      <point x="336" y="1536" type="line"/>
      <point x="524" y="88" type="line"/>
      <point x="532" y="88" type="line"/>
      <point x="1204" y="1536" type="line"/>
      <point x="1268" y="1536" type="line"/>
      <point x="1460" y="88" type="line"/>
      <point x="1468" y="88" type="line"/>
      <point x="2136" y="1536" type="line"/>
      <point x="2208" y="1536" type="line"/>
      <point x="1496" y="0" type="line"/>
      <point x="1408" y="0" type="line"/>
      <point x="1220" y="1412" type="line"/>
      <point x="1212" y="1412" type="line"/>
      <point x="560" y="0" type="line"/>
    </contour>
  </outline>
</glyph>
<glyph name="x" format="2">
  <advance width="1408"/>
  <unicode hex="0078"/>
  <outline>
    <contour>
      <point x="374" y="1536" type="line"/>
      <point x="710" y="826" type="line"/>
      <point x="1282" y="1536" type="line"/>
      <point x="1364" y="1536" type="line"/>
      <point x="740" y="760" type="line"/>
      <point x="1100" y="0" type="line"/>
      <point x="1030" y="0" type="line"/>
      <point x="696" y="706" type="line"/>
      <point x="128" y="0" type="line"/>
      <point x="44" y="0" type="line"/>
      <point x="666" y="772" type="line"/>
      <point x="304" y="1536" type="line"/>
    </contour>
  </outline>
</glyph>
<glyph name="y" format="2">
  <advance width="1472"/>
  <unicode hex="0079"/>
  <outline>
    <contour>
      <point x="118" y="-576" type="qcurve"/>
      <point x="79" y="-576"/>
      <point x="-4" y="-555"/>
      <point x="-46" y="-536" type="qcurve"/>
      <point x="-14" y="-480" type="line"/>
      <point x="74" y="-523"/>
      <point x="241" y="-496"/>
      <point x="389" y="-365"/>
      <point x="448" y="-252" type="qcurve"/>
      <point x="568" y="-24" type="line"/>
      <point x="272" y="1536" type="line"/>
      <point x="336" y="1536" type="line"/>
      <point x="614" y="80" type="line"/>
      <point x="622" y="80" type="line"/>
      <point x="1384" y="1536" type="line"/>
      <point x="1456" y="1536" type="line"/>
      <point x="506" y="-280" type="line"/>
      <point x="455" y="-377"/>
      <point x="330" y="-509"/>
      <point x="190" y="-576"/>
    </contour>
  </outline>
</glyph>
<glyph name="z" format="2">
  <advance width="1432"/>
  <unicode hex="007A"/>
  <outline>
    <contour>
      <point x="88" y="0" type="line"/>
      <point x="100" y="64" type="line"/>
      <point x="1248" y="1464" type="line"/>
      <point x="1248" y="1472" type="line"/>
      <point x="392" y="1472" type="line"/>
      <point x="404" y="1536" type="line"/>
      <point x="1344" y="1536" type="line"/>
      <point x="1332" y="1472" type="line"/>
      <point x="188" y="72" type="line"/>
      <point x="188" y="64" type="line"/>
      <point x="1140" y="64" type="line"/>
      <point x="1128" y="0" type="line"/>
    </contour>
  </outline>
</glyph>
<glyph name="braceleft" format="2">
  <advance width="888"/>
  <unicode hex="007B"/>
  <outline>
    <contour>
      <point x="196" y="832" type="qcurve"/>
      <point x="204" y="896" type="line"/>
      <point x="378" y="896"/>
      <point x="522" y="1021"/>
      <point x="552" y="1192" type="qcurve"/>
      <point x="636" y="1716" type="line"/>
      <point x="654" y="1826"/>
      <point x="725" y="1987"/>
      <point x="833" y="2092"/>
      <point x="979" y="2144"/>
      <point x="1072" y="2144" type="qcurve"/>
      <point x="1060" y="2080" type="line"/>
      <point x="956" y="2080"/>
      <point x="812" y="2005"/>
      <point x="722" y="1844"/>
      <point x="700" y="1716" type="qcurve"/>
      <point x="616" y="1192" type="line"/>
      <point x="600" y="1093"/>
      <point x="538" y="955"/>
      <point x="439" y="871"/>
      <point x="295" y="832"/>
    </contour>
    <contour>
      <point x="648" y="-416" type="line"/>
      <point x="555" y="-416"/>
      <point x="427" y="-364"/>
      <point x="355" y="-259"/>
      <point x="338" y="-97"/>
      <point x="356" y="12" type="qcurve"/>
      <point x="440" y="536" type="line"/>
      <point x="470" y="707"/>
      <point x="367" y="832"/>
      <point x="196" y="832" type="qcurve"/>
      <point x="204" y="896" type="line"/>
      <point x="305" y="896"/>
      <point x="436" y="857"/>
      <point x="506" y="773"/>
      <point x="521" y="635"/>
      <point x="504" y="536" type="qcurve"/>
      <point x="420" y="12" type="line"/>
      <point x="398" y="-116"/>
      <point x="433" y="-277"/>
      <point x="554" y="-352"/>
      <point x="660" y="-352" type="qcurve"/>
    </contour>
    <contour>
      <point x="192" y="832" type="line"/>
      <point x="200" y="896" type="line"/>
      <point x="420" y="896" type="line"/>
      <point x="412" y="832" type="line"/>
    </contour>
  </outline>
</glyph>
<glyph name="bar" format="2">
  <advance width="768"/>
  <unicode hex="007C"/>
  <outline>
    <contour>
      <point x="738" y="2708" type="line"/>
      <point x="180" y="-660" type="line"/>
      <point x="116" y="-660" type="line"/>
      <point x="674" y="2708" type="line"/>
    </contour>
  </outline>
</glyph>
<glyph name="braceright" format="2">
  <advance width="888"/>
  <unicode hex="007D"/>
  <outline>
    <contour>
      <point x="724" y="896" type="qcurve"/>
      <point x="716" y="832" type="line"/>
      <point x="542" y="832"/>
      <point x="398" y="707"/>
      <point x="368" y="536" type="qcurve"/>
      <point x="284" y="12" type="line"/>
      <point x="266" y="-97"/>
      <point x="195" y="-259"/>
      <point x="87" y="-364"/>
      <point x="-59" y="-416"/>
      <point x="-152" y="-416" type="qcurve"/>
      <point x="-140" y="-352" type="line"/>
      <point x="-36" y="-352"/>
      <point x="108" y="-277"/>
      <point x="198" y="-116"/>
      <point x="220" y="12" type="qcurve"/>
      <point x="304" y="536" type="line"/>
      <point x="321" y="635"/>
      <point x="382" y="773"/>
      <point x="481" y="857"/>
      <point x="625" y="896"/>
    </contour>
    <contour>
      <point x="272" y="2144" type="line"/>
      <point x="365" y="2144"/>
      <point x="493" y="2092"/>
      <point x="565" y="1987"/>
      <point x="582" y="1826"/>
      <point x="564" y="1716" type="qcurve"/>
      <point x="480" y="1192" type="line"/>
      <point x="450" y="1021"/>
      <point x="553" y="896"/>
      <point x="724" y="896" type="qcurve"/>
      <point x="716" y="832" type="line"/>
      <point x="616" y="832"/>
      <point x="484" y="871"/>
      <point x="414" y="955"/>
      <point x="400" y="1093"/>
      <point x="416" y="1192" type="qcurve"/>
      <point x="500" y="1716" type="line"/>
      <point x="522" y="1844"/>
      <point x="487" y="2005"/>
      <point x="366" y="2080"/>
      <point x="260" y="2080" type="qcurve"/>
    </contour>
    <contour>
      <point x="728" y="896" type="line"/>
      <point x="720" y="832" type="line"/>
      <point x="500" y="832" type="line"/>
      <point x="508" y="896" type="line"/>
    </contour>
  </outline>
</glyph>
<glyph name="asciitilde" format="2">
  <advance width="1792"/>
  <unicode hex="007E"/>
  <outline>
    <contour>
      <point x="248" y="672" type="line"/>
      <point x="276" y="759"/>
      <point x="390" y="882"/>
      <point x="553" y="948"/>
      <point x="652" y="948" type="qcurve"/>
      <point x="757" y="948"/>
      <point x="893" y="868"/>
      <point x="948" y="828" type="qcurve"/>
      <point x="1002" y="789"/>
      <point x="1104" y="728"/>
      <point x="1176" y="728" type="qcurve"/>
      <point x="1281" y="728"/>
      <point x="1454" y="848"/>
      <point x="1496" y="944" type="qcurve"/>
      <point x="1556" y="928" type="line"/>
      <point x="1522" y="845"/>
      <point x="1408" y="726"/>
      <point x="1258" y="664"/>
      <point x="1168" y="664" type="qcurve"/>
      <point x="1078" y="664"/>
      <point x="955" y="740"/>
      <point x="904" y="780" type="qcurve"/>
      <point x="850" y="822"/>
      <point x="734" y="884"/>
      <point x="644" y="884" type="qcurve"/>
      <point x="524" y="884"/>
      <point x="342" y="760"/>
      <point x="312" y="664" type="qcurve"/>
    </contour>
  </outline>
</glyph>
<glyph name="exclamdown" format="2">
  <advance width="736"/>
  <unicode hex="00A1"/>
  <outline>
    <contour>
      <point x="492" y="1540" type="qcurve"/>
      <point x="522" y="1540"/>
      <point x="559" y="1498"/>
      <point x="556" y="1468" type="qcurve"/>
      <point x="553" y="1438"/>
      <point x="506" y="1396"/>
      <point x="476" y="1396" type="qcurve"/>
      <point x="446" y="1396"/>
      <point x="409" y="1438"/>
      <point x="412" y="1468" type="qcurve"/>
      <point x="414" y="1488"/>
      <point x="437" y="1521"/>
      <point x="472" y="1540"/>
    </contour>
    <contour>
      <point x="124" y="-520" type="line"/>
      <point x="364" y="920" type="line"/>
      <point x="428" y="920" type="line"/>
      <point x="188" y="-520" type="line"/>
    </contour>
  </outline>
</glyph>
<glyph name="cent" format="2">
  <advance width="1556"/>
  <unicode hex="00A2"/>
  <outline>
    <contour>
      <point x="644" y="0" type="line"/>
      <point x="1002" y="2048" type="line"/>
      <point x="1066" y="2048" type="line"/>
      <point x="708" y="0" type="line"/>
    </contour>
    <contour>
      <point x="734" y="228" type="qcurve"/>
      <point x="545" y="228"/>
      <point x="289" y="438"/>
      <point x="185" y="799"/>
      <point x="222" y="1024" type="qcurve"/>
      <point x="259" y="1251"/>
      <point x="485" y="1611"/>
      <point x="812" y="1820"/>
      <point x="998" y="1820" type="qcurve"/>
      <point x="1207" y="1820"/>
      <point x="1466" y="1558"/>
      <point x="1466" y="1348" type="qcurve"/>
      <point x="1398" y="1348" type="line"/>
      <point x="1398" y="1536"/>
      <point x="1179" y="1756"/>
      <point x="998" y="1756" type="qcurve"/>
      <point x="829" y="1756"/>
      <point x="530" y="1565"/>
      <point x="321" y="1235"/>
      <point x="286" y="1024" type="qcurve"/>
      <point x="252" y="820"/>
      <point x="339" y="488"/>
      <point x="563" y="292"/>
      <point x="734" y="292" type="qcurve"/>
      <point x="859" y="292"/>
      <point x="1087" y="396"/>
      <point x="1259" y="584"/>
      <point x="1298" y="708" type="qcurve"/>
      <point x="1366" y="708" type="line"/>
      <point x="1319" y="561"/>
      <point x="1127" y="346"/>
      <point x="874" y="228"/>
    </contour>
  </outline>
</glyph>
<glyph name="sterling" format="2">
  <advance width="1776"/>
  <unicode hex="00A3"/>
  <outline>
    <contour>
      <point x="1344" y="0" type="line"/>
      <point x="96" y="0" type="line"/>
      <point x="108" y="64" type="line"/>
      <point x="1356" y="64" type="line"/>
    </contour>
    <contour>
      <point x="1100" y="950" type="line"/>
      <point x="236" y="950" type="line"/>
      <point x="248" y="1014" type="line"/>
      <point x="1112" y="1014" type="line"/>
    </contour>
    <contour>
      <point x="684" y="1508" type="qcurve"/>
      <point x="528" y="400" type="line"/>
      <point x="504" y="235"/>
      <point x="356" y="19"/>
      <point x="224" y="4" type="qcurve"/>
      <point x="212" y="64" type="line"/>
      <point x="284" y="64"/>
      <point x="386" y="155"/>
      <point x="450" y="308"/>
      <point x="464" y="400" type="qcurve"/>
      <point x="620" y="1508" type="line"/>
      <point x="642" y="1676"/>
      <point x="815" y="1932"/>
      <point x="1080" y="2076"/>
      <point x="1240" y="2076" type="qcurve"/>
      <point x="1394" y="2076"/>
      <point x="1610" y="1937"/>
      <point x="1690" y="1708"/>
      <point x="1640" y="1572" type="qcurve"/>
      <point x="1580" y="1588" type="line"/>
      <point x="1622" y="1702"/>
      <point x="1552" y="1895"/>
      <point x="1364" y="2012"/>
      <point x="1228" y="2012" type="qcurve"/>
      <point x="1088" y="2012"/>
      <point x="856" y="1885"/>
      <point x="704" y="1658"/>
    </contour>
  </outline>
</glyph>
<glyph name="currency" format="2">
  <advance width="1918"/>
  <unicode hex="00A4"/>
  <outline>
    <contour>
      <point x="826" y="-28" type="qcurve"/>
      <point x="659" y="-28"/>
      <point x="390" y="106"/>
      <point x="210" y="343"/>
      <point x="138" y="656"/>
      <point x="168" y="836" type="qcurve"/>
      <point x="199" y="1023"/>
      <point x="370" y="1337"/>
      <point x="623" y="1568"/>
      <point x="931" y="1696"/>
      <point x="1100" y="1696" type="qcurve"/>
      <point x="1270" y="1696"/>
      <point x="1540" y="1565"/>
      <point x="1719" y="1331"/>
      <point x="1790" y="1018"/>
      <point x="1760" y="836" type="qcurve"/>
      <point x="1730" y="652"/>
      <point x="1558" y="337"/>
      <point x="1304" y="102"/>
      <point x="994" y="-28"/>
    </contour>
    <contour>
      <point x="826" y="36" type="qcurve"/>
      <point x="981" y="36"/>
      <point x="1269" y="159"/>
      <point x="1506" y="378"/>
      <point x="1668" y="668"/>
      <point x="1696" y="836" type="qcurve"/>
      <point x="1735" y="1066"/>
      <point x="1602" y="1425"/>
      <point x="1305" y="1632"/>
      <point x="1098" y="1632" type="qcurve"/>
      <point x="892" y="1632"/>
      <point x="524" y="1423"/>
      <point x="269" y="1063"/>
      <point x="232" y="836" type="qcurve"/>
      <point x="195" y="608"/>
      <point x="327" y="246"/>
      <point x="621" y="36"/>
    </contour>
    <contour>
      <point x="1626" y="1376" type="line"/>
      <point x="1588" y="1428" type="line"/>
      <point x="1870" y="1676" type="line"/>
      <point x="1908" y="1624" type="line"/>
    </contour>
    <contour>
      <point x="1594" y="0" type="line"/>
      <point x="1394" y="248" type="line"/>
      <point x="1440" y="292" type="line"/>
      <point x="1640" y="44" type="line"/>
    </contour>
    <contour>
      <point x="56" y="0" type="line"/>
      <point x="18" y="50" type="line"/>
      <point x="298" y="298" type="line"/>
      <point x="336" y="248" type="line"/>
    </contour>
    <contour>
      <point x="484" y="1380" type="line"/>
      <point x="286" y="1628" type="line"/>
      <point x="332" y="1672" type="line"/>
      <point x="530" y="1424" type="line"/>
    </contour>
  </outline>
</glyph>
<glyph name="yen" format="2">
  <advance width="1472"/>
  <unicode hex="00A5"/>
  <outline>
    <contour>
      <point x="340" y="2048" type="line"/>
      <point x="784" y="884" type="line"/>
      <point x="716" y="884" type="line"/>
      <point x="272" y="2048" type="line"/>
    </contour>
    <contour>
      <point x="718" y="884" type="line"/>
      <point x="1546" y="2048" type="line"/>
      <point x="1624" y="2048" type="line"/>
      <point x="796" y="884" type="line"/>
    </contour>
    <contour>
      <point x="800" y="952" type="line"/>
      <point x="640" y="0" type="line"/>
      <point x="576" y="0" type="line"/>
      <point x="736" y="952" type="line"/>
    </contour>
    <contour>
      <point x="1276" y="928" type="line"/>
      <point x="1264" y="864" type="line"/>
      <point x="240" y="864" type="line"/>
      <point x="252" y="928" type="line"/>
    </contour>
    <contour>
      <point x="1232" y="672" type="line"/>
      <point x="1220" y="608" type="line"/>
      <point x="196" y="608" type="line"/>
      <point x="208" y="672" type="line"/>
    </contour>
  </outline>
</glyph>
<glyph name="brokenbar" format="2">
  <advance width="525"/>
  <unicode hex="00A6"/>
  <outline>
    <contour>
      <point x="194" y="532" type="line"/>
      <point x="258" y="532" type="line"/>
      <point x="102" y="-384" type="line"/>
      <point x="38" y="-384" type="line"/>
    </contour>
    <contour>
      <point x="506" y="2048" type="line"/>
      <point x="354" y="1136" type="line"/>
      <point x="290" y="1136" type="line"/>
      <point x="442" y="2048" type="line"/>
    </contour>
  </outline>
</glyph>
<glyph name="section" format="2">
  <advance width="1492"/>
  <unicode hex="00A7"/>
  <outline>
    <contour>
      <point x="1336" y="1636" type="qcurve"/>
      <point x="1272" y="1636" type="line"/>
      <point x="1290" y="1807"/>
      <point x="1117" y="2016"/>
      <point x="958" y="2016" type="qcurve"/>
      <point x="852" y="2016"/>
      <point x="663" y="1923"/>
      <point x="533" y="1763"/>
      <point x="516" y="1664" type="qcurve"/>
      <point x="498" y="1559"/>
      <point x="616" y="1368"/>
      <point x="760" y="1272" type="qcurve"/>
      <point x="910" y="1172" type="line"/>
      <point x="1026" y="1095"/>
      <point x="1182" y="966"/>
      <point x="1272" y="851"/>
      <point x="1304" y="741"/>
      <point x="1294" y="682" type="qcurve"/>
      <point x="1280" y="594"/>
      <point x="1165" y="456"/>
      <point x="992" y="376"/>
      <point x="890" y="376" type="qcurve"/>
      <point x="890" y="372" type="line"/>
      <point x="1025" y="272"/>
      <point x="1114" y="80"/>
      <point x="1096" y="-22" type="qcurve"/>
      <point x="1077" y="-136"/>
      <point x="928" y="-314"/>
      <point x="699" y="-416"/>
      <point x="560" y="-416" type="qcurve"/>
      <point x="415" y="-416"/>
      <point x="208" y="-302"/>
      <point x="108" y="-100"/>
      <point x="122" y="32" type="qcurve"/>
      <point x="186" y="32" type="line"/>
      <point x="170" y="-146"/>
      <point x="368" y="-352"/>
      <point x="554" y="-352" type="qcurve"/>
      <point x="742" y="-352"/>
      <point x="1010" y="-158"/>
      <point x="1034" y="-14" type="qcurve"/>
      <point x="1044" y="48"/>
      <point x="1010" y="169"/>
      <point x="890" y="300"/>
      <point x="772" y="376" type="qcurve"/>
      <point x="590" y="494" type="line"/>
      <point x="482" y="565"/>
      <point x="331" y="689"/>
      <point x="242" y="806"/>
      <point x="210" y="926"/>
      <point x="220" y="992" type="qcurve"/>
      <point x="236" y="1085"/>
      <point x="349" y="1221"/>
      <point x="524" y="1290"/>
      <point x="632" y="1284" type="qcurve"/>
      <point x="632" y="1292" type="line"/>
      <point x="529" y="1364"/>
      <point x="436" y="1562"/>
      <point x="454" y="1676" type="qcurve"/>
      <point x="473" y="1789"/>
      <point x="618" y="1970"/>
      <point x="833" y="2076"/>
      <point x="956" y="2076" type="qcurve"/>
      <point x="1082" y="2076"/>
      <point x="1263" y="1964"/>
      <point x="1350" y="1766"/>
    </contour>
    <contour>
      <point x="1230" y="690" type="qcurve"/>
      <point x="1247" y="786"/>
      <point x="1094" y="973"/>
      <point x="884" y="1112" type="qcurve"/>
      <point x="698" y="1236" type="line"/>
      <point x="590" y="1244"/>
      <point x="414" y="1185"/>
      <point x="299" y="1066"/>
      <point x="284" y="984" type="qcurve"/>
      <point x="266" y="876"/>
      <point x="419" y="679"/>
      <point x="614" y="554" type="qcurve"/>
      <point x="804" y="432" type="line"/>
      <point x="912" y="423"/>
      <point x="1096" y="485"/>
      <point x="1217" y="608"/>
    </contour>
  </outline>
</glyph>
<glyph name="dieresis" format="2">
  <advance width="1856"/>
  <unicode hex="00A8"/>
  <outline>
    <contour>
      <point x="916" y="1816" type="qcurve"/>
      <point x="886" y="1816"/>
      <point x="850" y="1858"/>
      <point x="856" y="1888" type="qcurve"/>
      <point x="861" y="1910"/>
      <point x="900" y="1944"/>
      <point x="924" y="1944" type="qcurve"/>
      <point x="954" y="1944"/>
      <point x="989" y="1902"/>
      <point x="984" y="1872" type="qcurve"/>
      <point x="981" y="1851"/>
      <point x="940" y="1816"/>
    </contour>
    <contour>
      <point x="1300" y="1816" type="qcurve"/>
      <point x="1270" y="1816"/>
      <point x="1234" y="1861"/>
      <point x="1240" y="1888" type="qcurve"/>
      <point x="1245" y="1909"/>
      <point x="1284" y="1944"/>
      <point x="1308" y="1944" type="qcurve"/>
      <point x="1338" y="1944"/>
      <point x="1376" y="1901"/>
      <point x="1368" y="1872" type="qcurve"/>
      <point x="1362" y="1848"/>
      <point x="1324" y="1816"/>
    </contour>
  </outline>
</glyph>
<glyph name="copyright" format="2">
  <advance width="2576"/>
  <unicode hex="00A9"/>
  <outline>
    <contour>
      <point x="764" y="1024" type="qcurve"/>
      <point x="791" y="1188"/>
      <point x="996" y="1458"/>
      <point x="1292" y="1618"/>
      <point x="1456" y="1618" type="qcurve"/>
      <point x="1574" y="1618"/>
      <point x="1757" y="1532"/>
      <point x="1875" y="1380"/>
      <point x="1896" y="1280" type="qcurve"/>
      <point x="1824" y="1280" type="line"/>
      <point x="1793" y="1403"/>
      <point x="1606" y="1554"/>
      <point x="1456" y="1554" type="qcurve"/>
      <point x="1310" y="1554"/>
      <point x="1041" y="1411"/>
      <point x="853" y="1171"/>
      <point x="828" y="1024" type="qcurve"/>
      <point x="804" y="878"/>
      <point x="900" y="637"/>
      <point x="1110" y="494"/>
      <point x="1256" y="494" type="qcurve"/>
      <point x="1406" y="494"/>
      <point x="1667" y="645"/>
      <point x="1740" y="768" type="qcurve"/>
      <point x="1812" y="768" type="line"/>
      <point x="1757" y="668"/>
      <point x="1589" y="516"/>
      <point x="1378" y="430"/>
      <point x="1260" y="430" type="qcurve"/>
      <point x="1096" y="430"/>
      <point x="853" y="590"/>
      <point x="737" y="860"/>
    </contour>
    <contour>
      <point x="1156" y="-32" type="qcurve"/>
      <point x="939" y="-32"/>
      <point x="583" y="132"/>
      <point x="339" y="422"/>
      <point x="239" y="805"/>
      <point x="276" y="1024" type="qcurve"/>
      <point x="312" y="1243"/>
      <point x="539" y="1626"/>
      <point x="878" y="1916"/>
      <point x="1287" y="2080"/>
      <point x="1504" y="2080" type="qcurve"/>
      <point x="1725" y="2080"/>
      <point x="2080" y="1916"/>
      <point x="2322" y="1626"/>
      <point x="2423" y="1243"/>
      <point x="2388" y="1024" type="qcurve"/>
      <point x="2352" y="805"/>
      <point x="2124" y="422"/>
      <point x="1786" y="132"/>
      <point x="1375" y="-32"/>
    </contour>
    <contour>
      <point x="1156" y="32" type="qcurve"/>
      <point x="1363" y="32"/>
      <point x="1753" y="188"/>
      <point x="2075" y="464"/>
      <point x="2291" y="827"/>
      <point x="2325" y="1034" type="qcurve"/>
      <point x="2357" y="1240"/>
      <point x="2263" y="1597"/>
      <point x="2039" y="1865"/>
      <point x="1708" y="2016"/>
      <point x="1504" y="2016" type="qcurve"/>
      <point x="1298" y="2016"/>
      <point x="910" y="1860"/>
      <point x="589" y="1583"/>
      <point x="373" y="1220"/>
      <point x="339" y="1013" type="qcurve"/>
      <point x="304" y="810"/>
      <point x="396" y="455"/>
      <point x="621" y="185"/>
      <point x="952" y="32"/>
    </contour>
  </outline>
</glyph>
<glyph name="ordfeminine" format="2">
  <advance width="1016"/>
  <unicode hex="00AA"/>
  <outline>
    <contour>
      <point x="844" y="1184" type="qcurve"/>
      <point x="920" y="1652" type="line"/>
      <point x="947" y="1821"/>
      <point x="855" y="1968"/>
      <point x="722" y="1968" type="qcurve"/>
      <point x="588" y="1968"/>
      <point x="413" y="1836"/>
      <point x="382" y="1710" type="qcurve"/>
      <point x="318" y="1716" type="line"/>
      <point x="350" y="1865"/>
      <point x="566" y="2032"/>
      <point x="722" y="2032" type="qcurve"/>
      <point x="885" y="2032"/>
      <point x="1015" y="1840"/>
      <point x="984" y="1652" type="qcurve"/>
      <point x="912" y="1220" type="line"/>
      <point x="900" y="1147"/>
      <point x="897" y="1029"/>
      <point x="904" y="976" type="qcurve"/>
      <point x="836" y="976" type="line"/>
      <point x="829" y="1023"/>
      <point x="833" y="1132"/>
    </contour>
    <contour>
      <point x="916" y="1548" type="line"/>
      <point x="906" y="1488" type="line"/>
      <point x="670" y="1488" type="line"/>
      <point x="504" y="1488"/>
      <point x="307" y="1363"/>
      <point x="288" y="1244" type="qcurve"/>
      <point x="271" y="1135"/>
      <point x="371" y="1018"/>
      <point x="482" y="1016" type="qcurve"/>
      <point x="541" y="1015"/>
      <point x="664" y="1050"/>
      <point x="788" y="1122"/>
      <point x="848" y="1174" type="qcurve"/>
      <point x="864" y="1132" type="line"/>
      <point x="746" y="1035"/>
      <point x="566" y="952"/>
      <point x="480" y="952" type="qcurve"/>
      <point x="347" y="952"/>
      <point x="202" y="1120"/>
      <point x="224" y="1244" type="qcurve"/>
      <point x="251" y="1399"/>
      <point x="475" y="1548"/>
      <point x="680" y="1548" type="qcurve"/>
    </contour>
  </outline>
</glyph>
<glyph name="logicalnot" format="2">
  <advance width="1407"/>
  <unicode hex="00AC"/>
  <outline>
    <contour>
      <point x="1324" y="1108" type="line"/>
      <point x="1312" y="1044" type="line"/>
      <point x="196" y="1044" type="line"/>
      <point x="208" y="1108" type="line"/>
    </contour>
    <contour>
      <point x="1318" y="1080" type="line"/>
      <point x="1224" y="516" type="line"/>
      <point x="1160" y="516" type="line"/>
      <point x="1254" y="1080" type="line"/>
    </contour>
  </outline>
</glyph>
<glyph name="registered" format="2">
  <advance width="1888"/>
  <unicode hex="00AE"/>
  <outline>
    <contour>
      <point x="710" y="916" type="line"/>
      <point x="832" y="1654" type="line"/>
      <point x="1148" y="1654" type="line"/>
      <point x="1224" y="1654"/>
      <point x="1320" y="1597"/>
      <point x="1359" y="1498"/>
      <point x="1348" y="1434" type="qcurve"/>
      <point x="1338" y="1370"/>
      <point x="1266" y="1269"/>
      <point x="1152" y="1210"/>
      <point x="1076" y="1210" type="qcurve"/>
      <point x="794" y="1210" type="line"/>
      <point x="804" y="1274" type="line"/>
      <point x="1084" y="1274" type="line"/>
      <point x="1170" y="1274"/>
      <point x="1273" y="1361"/>
      <point x="1284" y="1434" type="qcurve"/>
      <point x="1295" y="1508"/>
      <point x="1222" y="1590"/>
      <point x="1136" y="1590" type="qcurve"/>
      <point x="886" y="1590" type="line"/>
      <point x="774" y="916" type="line"/>
    </contour>
    <contour>
      <point x="1166" y="1248" type="line"/>
      <point x="1292" y="916" type="line"/>
      <point x="1218" y="916" type="line"/>
      <point x="1096" y="1248" type="line"/>
    </contour>
    <contour>
      <point x="1028" y="476" type="qcurve"/>
      <point x="862" y="476"/>
      <point x="572" y="600"/>
      <point x="352" y="820"/>
      <point x="228" y="1110"/>
      <point x="228" y="1276" type="qcurve"/>
      <point x="228" y="1442"/>
      <point x="352" y="1732"/>
      <point x="571" y="1952"/>
      <point x="862" y="2076"/>
      <point x="1028" y="2076" type="qcurve"/>
      <point x="1193" y="2076"/>
      <point x="1484" y="1952"/>
      <point x="1704" y="1732"/>
      <point x="1828" y="1442"/>
      <point x="1828" y="1276" type="qcurve"/>
      <point x="1828" y="1110"/>
      <point x="1703" y="820"/>
      <point x="1483" y="600"/>
      <point x="1193" y="476"/>
    </contour>
    <contour>
      <point x="1028" y="540" type="qcurve"/>
      <point x="1231" y="540"/>
      <point x="1566" y="738"/>
      <point x="1765" y="1073"/>
      <point x="1764" y="1276" type="qcurve"/>
      <point x="1764" y="1480"/>
      <point x="1565" y="1814"/>
      <point x="1231" y="2012"/>
      <point x="1028" y="2012" type="qcurve"/>
      <point x="824" y="2012"/>
      <point x="490" y="1814"/>
      <point x="293" y="1480"/>
      <point x="292" y="1276" type="qcurve"/>
      <point x="292" y="1073"/>
      <point x="490" y="738"/>
      <point x="824" y="540"/>
    </contour>
  </outline>
</glyph>
<glyph name="macron" format="2">
  <advance width="824"/>
  <unicode hex="00AF"/>
  <outline>
    <contour>
      <point x="922" y="1912" type="line"/>
      <point x="910" y="1848" type="line"/>
      <point x="270" y="1848" type="line"/>
      <point x="282" y="1912" type="line"/>
    </contour>
  </outline>
</glyph>
<glyph name="degree" format="2">
  <advance width="1280"/>
  <unicode hex="00B0"/>
  <outline>
    <contour>
      <point x="786" y="1244" type="qcurve"/>
      <point x="671" y="1244"/>
      <point x="482" y="1356"/>
      <point x="370" y="1545"/>
      <point x="370" y="1660" type="qcurve"/>
      <point x="370" y="1775"/>
      <point x="482" y="1964"/>
      <point x="671" y="2076"/>
      <point x="786" y="2076" type="qcurve"/>
      <point x="901" y="2076"/>
      <point x="1090" y="1964"/>
      <point x="1202" y="1775"/>
      <point x="1202" y="1660" type="qcurve"/>
      <point x="1202" y="1545"/>
      <point x="1090" y="1356"/>
      <point x="901" y="1244"/>
    </contour>
    <contour>
      <point x="786" y="1308" type="qcurve"/>
      <point x="884" y="1308"/>
      <point x="1043" y="1403"/>
      <point x="1138" y="1563"/>
      <point x="1138" y="1660" type="qcurve"/>
      <point x="1138" y="1758"/>
      <point x="1043" y="1917"/>
      <point x="884" y="2012"/>
      <point x="786" y="2012" type="qcurve"/>
      <point x="689" y="2012"/>
      <point x="529" y="1917"/>
      <point x="434" y="1758"/>
      <point x="434" y="1660" type="qcurve"/>
      <point x="434" y="1563"/>
      <point x="529" y="1403"/>
      <point x="689" y="1308"/>
    </contour>
  </outline>
</glyph>
<glyph name="plusminus" format="2">
  <advance width="1792"/>
  <unicode hex="00B1"/>
  <outline>
    <contour>
      <point x="220" y="192" type="line"/>
      <point x="232" y="256" type="line"/>
      <point x="1392" y="256" type="line"/>
      <point x="1380" y="192" type="line"/>
    </contour>
    <contour>
      <point x="348" y="960" type="line"/>
      <point x="360" y="1024" type="line"/>
      <point x="1520" y="1024" type="line"/>
      <point x="1508" y="960" type="line"/>
    </contour>
    <contour>
      <point x="812" y="448" type="line"/>
      <point x="992" y="1536" type="line"/>
      <point x="1056" y="1536" type="line"/>
      <point x="876" y="448" type="line"/>
    </contour>
  </outline>
</glyph>
<glyph name="twosuperior" format="2">
  <advance width="1160"/>
  <unicode hex="00B2"/>
  <outline>
    <contour>
      <point x="212" y="1024" type="line"/>
      <point x="220" y="1072" type="line"/>
      <point x="736" y="1532" type="line"/>
      <point x="852" y="1634"/>
      <point x="988" y="1776"/>
      <point x="1054" y="1892"/>
      <point x="1064" y="1956" type="qcurve"/>
      <point x="1082" y="2064"/>
      <point x="937" y="2212"/>
      <point x="808" y="2212" type="qcurve"/>
      <point x="667" y="2212"/>
      <point x="466" y="2047"/>
      <point x="448" y="1936" type="qcurve"/>
      <point x="384" y="1936" type="line"/>
      <point x="408" y="2077"/>
      <point x="650" y="2268"/>
      <point x="812" y="2268" type="qcurve"/>
      <point x="916" y="2268"/>
      <point x="1068" y="2185"/>
      <point x="1140" y="2040"/>
      <point x="1124" y="1948" type="qcurve"/>
      <point x="1112" y="1876"/>
      <point x="1041" y="1751"/>
      <point x="894" y="1600"/>
      <point x="768" y="1488" type="qcurve"/>
      <point x="316" y="1088" type="line"/>
      <point x="316" y="1084" type="line"/>
      <point x="1052" y="1084" type="line"/>
      <point x="1040" y="1024" type="line"/>
    </contour>
  </outline>
</glyph>
<glyph name="threesuperior" format="2">
  <advance width="1156"/>
  <unicode hex="00B3"/>
  <outline>
    <contour>
      <point x="624" y="1008" type="qcurve"/>
      <point x="447" y="1008"/>
      <point x="243" y="1191"/>
      <point x="264" y="1332" type="qcurve"/>
      <point x="328" y="1332" type="line"/>
      <point x="310" y="1215"/>
      <point x="481" y="1068"/>
      <point x="628" y="1068" type="qcurve"/>
      <point x="787" y="1068"/>
      <point x="1014" y="1233"/>
      <point x="1032" y="1344" type="qcurve"/>
      <point x="1053" y="1473"/>
      <point x="866" y="1628"/>
      <point x="692" y="1628" type="qcurve"/>
      <point x="656" y="1628" type="line"/>
      <point x="664" y="1688" type="line"/>
      <point x="696" y="1688" type="line"/>
      <point x="858" y="1688"/>
      <point x="1074" y="1839"/>
      <point x="1092" y="1956" type="qcurve"/>
      <point x="1110" y="2058"/>
      <point x="979" y="2212"/>
      <point x="832" y="2212" type="qcurve"/>
      <point x="697" y="2212"/>
      <point x="481" y="2064"/>
      <point x="460" y="1944" type="qcurve"/>
      <point x="400" y="1944" type="line"/>
      <point x="416" y="2040"/>
      <point x="537" y="2186"/>
      <point x="720" y="2268"/>
      <point x="828" y="2268" type="qcurve"/>
      <point x="934" y="2268"/>
      <point x="1092" y="2191"/>
      <point x="1168" y="2048"/>
      <point x="1152" y="1948" type="qcurve"/>
      <point x="1134" y="1837"/>
      <point x="976" y="1693"/>
      <point x="856" y="1660" type="qcurve"/>
      <point x="856" y="1656" type="line"/>
      <point x="985" y="1629"/>
      <point x="1114" y="1462"/>
      <point x="1096" y="1348" type="qcurve"/>
      <point x="1080" y="1252"/>
      <point x="953" y="1098"/>
      <point x="752" y="1008"/>
    </contour>
  </outline>
</glyph>
<glyph name="acute" format="2">
  <advance width="1400"/>
  <unicode hex="00B4"/>
  <outline>
    <contour>
      <point x="822" y="1760" type="line"/>
      <point x="1174" y="2192" type="line"/>
      <point x="1258" y="2192" type="line"/>
      <point x="890" y="1760" type="line"/>
    </contour>
  </outline>
</glyph>
<glyph name="mu" format="2">
  <advance width="1588"/>
  <unicode hex="00B5"/>
  <outline>
    <contour>
      <point x="40" y="-596" type="line"/>
      <point x="392" y="1536" type="line"/>
      <point x="456" y="1536" type="line"/>
      <point x="286" y="504" type="line"/>
      <point x="264" y="370"/>
      <point x="356" y="162"/>
      <point x="552" y="44"/>
      <point x="686" y="44" type="qcurve"/>
      <point x="821" y="44"/>
      <point x="1055" y="166"/>
      <point x="1214" y="374"/>
      <point x="1236" y="504" type="qcurve"/>
      <point x="1408" y="1536" type="line"/>
      <point x="1472" y="1536" type="line"/>
      <point x="1216" y="0" type="line"/>
      <point x="1152" y="0" type="line"/>
      <point x="1192" y="244" type="line"/>
      <point x="1184" y="244" type="line"/>
      <point x="1112" y="124"/>
      <point x="839" y="-20"/>
      <point x="680" y="-20" type="qcurve"/>
      <point x="518" y="-20"/>
      <point x="292" y="137"/>
      <point x="254" y="272" type="qcurve"/>
      <point x="246" y="272" type="line"/>
      <point x="104" y="-596" type="line"/>
    </contour>
  </outline>
</glyph>
<glyph name="paragraph" format="2">
  <advance width="1560"/>
  <unicode hex="00B6"/>
  <outline>
    <contour>
      <point x="1440" y="1984" type="line"/>
      <point x="1188" y="1984" type="line"/>
      <point x="988" y="760" type="line"/>
      <point x="872" y="760" type="line"/>
      <point x="654" y="760"/>
      <point x="377" y="927"/>
      <point x="268" y="1219"/>
      <point x="300" y="1404" type="qcurve"/>
      <point x="332" y="1588"/>
      <point x="537" y="1879"/>
      <point x="866" y="2048"/>
      <point x="1084" y="2048" type="qcurve"/>
      <point x="1452" y="2048" type="line"/>
    </contour>
    <contour>
      <point x="1052" y="0" type="line"/>
      <point x="1392" y="2048" type="line"/>
      <point x="1456" y="2048" type="line"/>
      <point x="1116" y="0" type="line"/>
    </contour>
  </outline>
</glyph>
<glyph name="cedilla" format="2">
  <advance width="576"/>
  <unicode hex="00B8"/>
  <outline>
    <contour>
      <point x="138" y="8" type="line"/>
      <point x="202" y="8" type="line"/>
      <point x="174" y="-72" type="line"/>
      <point x="275" y="-88"/>
      <point x="360" y="-211"/>
      <point x="344" y="-304" type="qcurve"/>
      <point x="326" y="-409"/>
      <point x="172" y="-511"/>
      <point x="40" y="-516" type="qcurve"/>
      <point x="48" y="-452" type="line"/>
      <point x="161" y="-449"/>
      <point x="269" y="-377"/>
      <point x="280" y="-304" type="qcurve"/>
      <point x="293" y="-218"/>
      <point x="197" y="-130"/>
      <point x="86" y="-132" type="qcurve"/>
    </contour>
  </outline>
</glyph>
<glyph name="onesuperior" format="2">
  <advance width="768"/>
  <unicode hex="00B9"/>
  <outline>
    <contour>
      <point x="466" y="1024" type="line"/>
      <point x="658" y="2184" type="line"/>
      <point x="646" y="2184" type="line"/>
      <point x="328" y="1994" type="line"/>
      <point x="342" y="2070" type="line"/>
      <point x="646" y="2252" type="line"/>
      <point x="734" y="2252" type="line"/>
      <point x="530" y="1024" type="line"/>
    </contour>
  </outline>
</glyph>
<glyph name="ordmasculine" format="2">
  <advance width="1100"/>
  <unicode hex="00BA"/>
  <outline>
    <contour>
      <point x="232" y="1438" type="qcurve"/>
      <point x="252" y="1554" type="line"/>
      <point x="278" y="1707"/>
      <point x="413" y="1921"/>
      <point x="625" y="2032"/>
      <point x="764" y="2032" type="qcurve"/>
      <point x="960" y="2032"/>
      <point x="1150" y="1774"/>
      <point x="1112" y="1554" type="qcurve"/>
      <point x="1092" y="1438" type="line"/>
      <point x="1065" y="1285"/>
      <point x="929" y="1072"/>
      <point x="719" y="960"/>
      <point x="580" y="960" type="qcurve"/>
      <point x="383" y="960"/>
      <point x="193" y="1218"/>
    </contour>
    <contour>
      <point x="312" y="1554" type="qcurve"/>
      <point x="292" y="1438" type="line"/>
      <point x="257" y="1240"/>
      <point x="416" y="1020"/>
      <point x="590" y="1020" type="qcurve"/>
      <point x="762" y="1020"/>
      <point x="998" y="1246"/>
      <point x="1032" y="1438" type="qcurve"/>
      <point x="1052" y="1554" type="line"/>
      <point x="1086" y="1752"/>
      <point x="927" y="1972"/>
      <point x="754" y="1972" type="qcurve"/>
      <point x="581" y="1972"/>
      <point x="344" y="1746"/>
    </contour>
  </outline>
</glyph>
<glyph name="questiondown" format="2">
  <advance width="1348"/>
  <unicode hex="00BF"/>
  <outline>
    <contour>
      <point x="792" y="940" type="line"/>
      <point x="768" y="800" type="line"/>
      <point x="753" y="705"/>
      <point x="679" y="559"/>
      <point x="543" y="430"/>
      <point x="432" y="360" type="qcurve"/>
      <point x="323" y="291"/>
      <point x="182" y="183"/>
      <point x="105" y="62"/>
      <point x="92" y="-28" type="qcurve"/>
      <point x="65" y="-221"/>
      <point x="274" y="-464"/>
      <point x="464" y="-464" type="qcurve"/>
      <point x="605" y="-464"/>
      <point x="845" y="-333"/>
      <point x="1006" y="-116"/>
      <point x="1028" y="12" type="qcurve"/>
      <point x="1092" y="12" type="line"/>
      <point x="1067" y="-142"/>
      <point x="885" y="-387"/>
      <point x="618" y="-528"/>
      <point x="464" y="-528" type="qcurve"/>
      <point x="315" y="-528"/>
      <point x="105" y="-393"/>
      <point x="8" y="-166"/>
      <point x="28" y="-28" type="qcurve"/>
      <point x="44" y="78"/>
      <point x="125" y="217"/>
      <point x="278" y="338"/>
      <point x="400" y="416" type="qcurve"/>
      <point x="505" y="483"/>
      <point x="628" y="595"/>
      <point x="691" y="717"/>
      <point x="704" y="800" type="qcurve"/>
      <point x="728" y="940" type="line"/>
    </contour>
    <contour>
      <point x="856" y="1560" type="qcurve"/>
      <point x="886" y="1560"/>
      <point x="923" y="1518"/>
      <point x="920" y="1488" type="qcurve"/>
      <point x="917" y="1458"/>
      <point x="870" y="1416"/>
      <point x="840" y="1416" type="qcurve"/>
      <point x="810" y="1416"/>
      <point x="773" y="1458"/>
      <point x="776" y="1488" type="qcurve"/>
      <point x="778" y="1508"/>
      <point x="801" y="1541"/>
      <point x="836" y="1560"/>
    </contour>
  </outline>
</glyph>
<glyph name="Adieresis" format="2">
  <advance width="1736"/>
  <unicode hex="00C4"/>
  <outline>
    <contour>
      <point x="32" y="0" type="line"/>
      <point x="-36" y="0" type="line"/>
      <point x="1036" y="2048" type="line"/>
      <point x="1124" y="2048" type="line"/>
      <point x="1516" y="0" type="line"/>
      <point x="1448" y="0" type="line"/>
      <point x="1072" y="1968" type="line"/>
      <point x="1064" y="1968" type="line"/>
    </contour>
    <contour>
      <point x="392" y="756" type="line"/>
      <point x="1344" y="756" type="line"/>
      <point x="1332" y="692" type="line"/>
      <point x="380" y="692" type="line"/>
    </contour>
    <contour>
      <point x="944" y="2328" type="qcurve"/>
      <point x="914" y="2328"/>
      <point x="878" y="2370"/>
      <point x="884" y="2400" type="qcurve"/>
      <point x="889" y="2422"/>
      <point x="928" y="2456"/>
      <point x="952" y="2456" type="qcurve"/>
      <point x="982" y="2456"/>
      <point x="1017" y="2414"/>
      <point x="1012" y="2384" type="qcurve"/>
      <point x="1009" y="2363"/>
      <point x="968" y="2328"/>
    </contour>
    <contour>
      <point x="1328" y="2328" type="qcurve"/>
      <point x="1298" y="2328"/>
      <point x="1262" y="2373"/>
      <point x="1268" y="2400" type="qcurve"/>
      <point x="1273" y="2421"/>
      <point x="1312" y="2456"/>
      <point x="1336" y="2456" type="qcurve"/>
      <point x="1366" y="2456"/>
      <point x="1404" y="2413"/>
      <point x="1396" y="2384" type="qcurve"/>
      <point x="1390" y="2360"/>
      <point x="1352" y="2328"/>
    </contour>
  </outline>
</glyph>
<glyph name="Aring" format="2">
  <advance width="1736"/>
  <unicode hex="00C5"/>
  <outline>
    <contour>
      <point x="32" y="0" type="line"/>
      <point x="-36" y="0" type="line"/>
      <point x="1036" y="2048" type="line"/>
      <point x="1124" y="2048" type="line"/>
      <point x="1516" y="0" type="line"/>
      <point x="1448" y="0" type="line"/>
      <point x="1072" y="1968" type="line"/>
      <point x="1064" y="1968" type="line"/>
    </contour>
    <contour>
      <point x="392" y="756" type="line"/>
      <point x="1344" y="756" type="line"/>
      <point x="1332" y="692" type="line"/>
      <point x="380" y="692" type="line"/>
    </contour>
    <contour>
      <point x="1108" y="2148" type="qcurve"/>
      <point x="1015" y="2148"/>
      <point x="899" y="2280"/>
      <point x="908" y="2376" type="qcurve"/>
      <point x="914" y="2440"/>
      <point x="986" y="2543"/>
      <point x="1096" y="2604"/>
      <point x="1160" y="2604" type="qcurve"/>
      <point x="1224" y="2604"/>
      <point x="1322" y="2543"/>
      <point x="1372" y="2440"/>
      <point x="1364" y="2376" type="qcurve"/>
      <point x="1356" y="2312"/>
      <point x="1283" y="2209"/>
      <point x="1172" y="2148"/>
    </contour>
    <contour>
      <point x="1116" y="2212" type="qcurve"/>
      <point x="1185" y="2212"/>
      <point x="1294" y="2307"/>
      <point x="1300" y="2376" type="qcurve"/>
      <point x="1306" y="2445"/>
      <point x="1221" y="2540"/>
      <point x="1152" y="2540" type="qcurve"/>
      <point x="1083" y="2540"/>
      <point x="981" y="2445"/>
      <point x="972" y="2376" type="qcurve"/>
      <point x="963" y="2307"/>
      <point x="1047" y="2212"/>
    </contour>
  </outline>
</glyph>
<glyph name="AE" format="2">
  <advance width="2700"/>
  <unicode hex="00C6"/>
  <outline>
    <contour>
      <point x="-36" y="0" type="line"/>
      <point x="1348" y="2048" type="line"/>
      <point x="2680" y="2048" type="line"/>
      <point x="2668" y="1984" type="line"/>
      <point x="1640" y="1984" type="line"/>
      <point x="1488" y="1056" type="line"/>
      <point x="2456" y="1056" type="line"/>
      <point x="2444" y="992" type="line"/>
      <point x="1476" y="992" type="line"/>
      <point x="1324" y="64" type="line"/>
      <point x="2380" y="64" type="line"/>
      <point x="2368" y="0" type="line"/>
      <point x="1248" y="0" type="line"/>
      <point x="1576" y="1984" type="line"/>
      <point x="1380" y="1984" type="line"/>
      <point x="40" y="0" type="line"/>
    </contour>
    <contour>
      <point x="480" y="692" type="line"/>
      <point x="492" y="756" type="line"/>
      <point x="1412" y="756" type="line"/>
      <point x="1400" y="692" type="line"/>
    </contour>
  </outline>
</glyph>
<glyph name="Odieresis" format="2">
  <advance width="2104"/>
  <unicode hex="00D6"/>
  <outline>
    <contour>
      <point x="1940" y="1024" type="qcurve"/>
      <point x="1889" y="711"/>
      <point x="1597" y="237"/>
      <point x="1172" y="-28"/>
      <point x="920" y="-28" type="qcurve"/>
      <point x="663" y="-28"/>
      <point x="326" y="238"/>
      <point x="194" y="712"/>
      <point x="244" y="1024" type="qcurve"/>
      <point x="297" y="1337"/>
      <point x="590" y="1811"/>
      <point x="1016" y="2076"/>
      <point x="1268" y="2076" type="qcurve"/>
      <point x="1519" y="2076"/>
      <point x="1858" y="1812"/>
      <point x="1994" y="1339"/>
    </contour>
    <contour>
      <point x="1876" y="1024" type="qcurve"/>
      <point x="1926" y="1322"/>
      <point x="1808" y="1766"/>
      <point x="1503" y="2012"/>
      <point x="1272" y="2012" type="qcurve"/>
      <point x="1037" y="2012"/>
      <point x="637" y="1764"/>
      <point x="360" y="1319"/>
      <point x="308" y="1024" type="qcurve"/>
      <point x="259" y="727"/>
      <point x="375" y="283"/>
      <point x="682" y="36"/>
      <point x="916" y="36" type="qcurve"/>
      <point x="1154" y="36"/>
      <point x="1555" y="286"/>
      <point x="1830" y="731"/>
    </contour>
    <contour>
      <point x="1120" y="2328" type="qcurve"/>
      <point x="1090" y="2328"/>
      <point x="1054" y="2370"/>
      <point x="1060" y="2400" type="qcurve"/>
      <point x="1065" y="2422"/>
      <point x="1104" y="2456"/>
      <point x="1128" y="2456" type="qcurve"/>
      <point x="1158" y="2456"/>
      <point x="1193" y="2414"/>
      <point x="1188" y="2384" type="qcurve"/>
      <point x="1185" y="2363"/>
      <point x="1144" y="2328"/>
    </contour>
    <contour>
      <point x="1504" y="2328" type="qcurve"/>
      <point x="1474" y="2328"/>
      <point x="1438" y="2373"/>
      <point x="1444" y="2400" type="qcurve"/>
      <point x="1449" y="2421"/>
      <point x="1488" y="2456"/>
      <point x="1512" y="2456" type="qcurve"/>
      <point x="1542" y="2456"/>
      <point x="1580" y="2413"/>
      <point x="1572" y="2384" type="qcurve"/>
      <point x="1566" y="2360"/>
      <point x="1528" y="2328"/>
    </contour>
  </outline>
</glyph>
<glyph name="multiply" format="2">
  <advance width="1792"/>
  <unicode hex="00D7"/>
  <outline>
    <contour>
      <point x="1347" y="216" type="line"/>
      <point x="407" y="1344" type="line"/>
      <point x="457" y="1384" type="line"/>
      <point x="1397" y="256" type="line"/>
    </contour>
    <contour>
      <point x="265" y="212" type="line"/>
      <point x="223" y="260" type="line"/>
      <point x="1539" y="1388" type="line"/>
      <point x="1581" y="1340" type="line"/>
    </contour>
  </outline>
</glyph>
<glyph name="Oslash" format="2">
  <advance width="2104"/>
  <unicode hex="00D8"/>
  <outline>
    <contour>
      <point x="252" y="-48" type="line"/>
      <point x="204" y="-12" type="line"/>
      <point x="1936" y="2096" type="line"/>
      <point x="1980" y="2060" type="line"/>
    </contour>
    <contour>
      <point x="1940" y="1016" type="qcurve"/>
      <point x="1889" y="703"/>
      <point x="1597" y="229"/>
      <point x="1172" y="-36"/>
      <point x="920" y="-36" type="qcurve"/>
      <point x="663" y="-36"/>
      <point x="326" y="230"/>
      <point x="194" y="704"/>
      <point x="244" y="1016" type="qcurve"/>
      <point x="297" y="1329"/>
      <point x="590" y="1803"/>
      <point x="1016" y="2068"/>
      <point x="1268" y="2068" type="qcurve"/>
      <point x="1519" y="2068"/>
      <point x="1858" y="1804"/>
      <point x="1994" y="1331"/>
    </contour>
    <contour>
      <point x="1876" y="1016" type="qcurve"/>
      <point x="1926" y="1314"/>
      <point x="1808" y="1758"/>
      <point x="1503" y="2004"/>
      <point x="1272" y="2004" type="qcurve"/>
      <point x="1037" y="2004"/>
      <point x="637" y="1756"/>
      <point x="360" y="1311"/>
      <point x="308" y="1016" type="qcurve"/>
      <point x="259" y="719"/>
      <point x="375" y="275"/>
      <point x="682" y="28"/>
      <point x="916" y="28" type="qcurve"/>
      <point x="1154" y="28"/>
      <point x="1555" y="278"/>
      <point x="1830" y="723"/>
    </contour>
  </outline>
</glyph>
<glyph name="Thorn" format="2">
  <advance width="1663"/>
  <unicode hex="00DE"/>
  <outline>
    <contour>
      <point x="504" y="2048" type="line"/>
      <point x="564" y="2048" type="line"/>
      <point x="224" y="0" type="line"/>
      <point x="164" y="0" type="line"/>
    </contour>
    <contour>
      <point x="452" y="1556" type="line"/>
      <point x="976" y="1556" type="line"/>
      <point x="1167" y="1556"/>
      <point x="1408" y="1412"/>
      <point x="1506" y="1173"/>
      <point x="1482" y="1028" type="qcurve"/>
      <point x="1457" y="871"/>
      <point x="1289" y="631"/>
      <point x="1003" y="496"/>
      <point x="800" y="496" type="qcurve"/>
      <point x="276" y="496" type="line"/>
      <point x="292" y="560" type="line"/>
      <point x="816" y="560" type="line"/>
      <point x="977" y="560"/>
      <point x="1228" y="664"/>
      <point x="1390" y="870"/>
      <point x="1416" y="1024" type="qcurve"/>
      <point x="1443" y="1175"/>
      <point x="1344" y="1384"/>
      <point x="1121" y="1492"/>
      <point x="960" y="1492" type="qcurve"/>
      <point x="436" y="1492" type="line"/>
    </contour>
  </outline>
</glyph>
<glyph name="germandbls" format="2">
  <advance width="1616"/>
  <unicode hex="00DF"/>
  <outline>
    <contour>
      <point x="192" y="0" type="line"/>
      <point x="448" y="1540" type="line"/>
      <point x="476" y="1706"/>
      <point x="636" y="1946"/>
      <point x="881" y="2076"/>
      <point x="1034" y="2076" type="qcurve"/>
      <point x="1179" y="2076"/>
      <point x="1378" y="1948"/>
      <point x="1465" y="1720"/>
      <point x="1440" y="1570" type="qcurve"/>
      <point x="1406" y="1375"/>
      <point x="1162" y="1113"/>
      <point x="972" y="1066" type="qcurve"/>
      <point x="972" y="1058" type="line"/>
      <point x="1186" y="1016"/>
      <point x="1395" y="736"/>
      <point x="1362" y="536" type="qcurve"/>
      <point x="1334" y="362"/>
      <point x="1149" y="123"/>
      <point x="846" y="0"/>
      <point x="640" y="0" type="qcurve"/>
      <point x="540" y="0" type="line"/>
      <point x="550" y="64" type="line"/>
      <point x="686" y="64" type="line"/>
      <point x="931" y="64"/>
      <point x="1260" y="312"/>
      <point x="1296" y="524" type="qcurve"/>
      <point x="1336" y="759"/>
      <point x="1046" y="1024"/>
      <point x="748" y="1024" type="qcurve"/>
      <point x="718" y="1024" type="line"/>
      <point x="728" y="1088" type="line"/>
      <point x="760" y="1088" type="line"/>
      <point x="920" y="1088"/>
      <point x="1181" y="1209"/>
      <point x="1353" y="1431"/>
      <point x="1378" y="1584" type="qcurve"/>
      <point x="1410" y="1778"/>
      <point x="1224" y="2011"/>
      <point x="1034" y="2012" type="qcurve"/>
      <point x="827" y="2014"/>
      <point x="546" y="1753"/>
      <point x="508" y="1524" type="qcurve"/>
      <point x="256" y="0" type="line"/>
    </contour>
  </outline>
</glyph>
<glyph name="aring" format="2">
  <advance width="1524"/>
  <unicode hex="00E5"/>
  <outline>
    <contour>
      <point x="524" y="-32" type="qcurve"/>
      <point x="398" y="-32"/>
      <point x="203" y="72"/>
      <point x="106" y="272"/>
      <point x="128" y="416" type="qcurve"/>
      <point x="142" y="494"/>
      <point x="215" y="631"/>
      <point x="360" y="743"/>
      <point x="600" y="823"/>
      <point x="780" y="844" type="qcurve"/>
      <point x="888" y="856"/>
      <point x="1082" y="888"/>
      <point x="1210" y="952"/>
      <point x="1220" y="1012" type="qcurve"/>
      <point x="1236" y="1104" type="line"/>
      <point x="1266" y="1281"/>
      <point x="1074" y="1496"/>
      <point x="876" y="1496" type="qcurve"/>
      <point x="714" y="1496"/>
      <point x="444" y="1350"/>
      <point x="375" y="1224" type="qcurve"/>
      <point x="312" y="1224" type="line"/>
      <point x="364" y="1320"/>
      <point x="537" y="1472"/>
      <point x="756" y="1560"/>
      <point x="876" y="1560" type="qcurve"/>
      <point x="970" y="1560"/>
      <point x="1119" y="1515"/>
      <point x="1227" y="1433"/>
      <point x="1292" y="1320"/>
      <point x="1313" y="1182"/>
      <point x="1300" y="1104" type="qcurve"/>
      <point x="1116" y="0" type="line"/>
      <point x="1052" y="0" type="line"/>
      <point x="1104" y="312" type="line"/>
      <point x="1096" y="312" type="line"/>
      <point x="1032" y="208"/>
      <point x="853" y="53"/>
      <point x="640" y="-32"/>
    </contour>
    <contour>
      <point x="524" y="32" type="qcurve"/>
      <point x="670" y="32"/>
      <point x="939" y="189"/>
      <point x="1130" y="470"/>
      <point x="1160" y="656" type="qcurve"/>
      <point x="1200" y="888" type="line"/>
      <point x="1169" y="867"/>
      <point x="1084" y="835"/>
      <point x="981" y="810"/>
      <point x="862" y="792"/>
      <point x="796" y="784" type="qcurve"/>
      <point x="586" y="760"/>
      <point x="334" y="662"/>
      <point x="210" y="514"/>
      <point x="192" y="416" type="qcurve"/>
      <point x="165" y="242"/>
      <point x="353" y="32"/>
    </contour>
    <contour>
      <point x="928" y="1728" type="qcurve"/>
      <point x="864" y="1728"/>
      <point x="766" y="1789"/>
      <point x="716" y="1892"/>
      <point x="724" y="1956" type="qcurve"/>
      <point x="732" y="2020"/>
      <point x="805" y="2123"/>
      <point x="916" y="2184"/>
      <point x="980" y="2184" type="qcurve"/>
      <point x="1044" y="2184"/>
      <point x="1138" y="2123"/>
      <point x="1186" y="2020"/>
      <point x="1180" y="1956" type="qcurve"/>
      <point x="1174" y="1892"/>
      <point x="1102" y="1789"/>
      <point x="992" y="1728"/>
    </contour>
    <contour>
      <point x="936" y="1792" type="qcurve"/>
      <point x="1005" y="1792"/>
      <point x="1107" y="1887"/>
      <point x="1116" y="1956" type="qcurve"/>
      <point x="1125" y="2025"/>
      <point x="1041" y="2120"/>
      <point x="972" y="2120" type="qcurve"/>
      <point x="903" y="2120"/>
      <point x="794" y="2025"/>
      <point x="788" y="1956" type="qcurve"/>
      <point x="782" y="1887"/>
      <point x="867" y="1792"/>
    </contour>
  </outline>
</glyph>
<glyph name="ae" format="2">
  <advance width="2596"/>
  <unicode hex="00E6"/>
  <outline>
    <contour>
      <point x="1688" y="-32" type="qcurve"/>
      <point x="1457" y="-32"/>
      <point x="1177" y="241"/>
      <point x="1144" y="460" type="qcurve"/>
      <point x="1276" y="1124" type="line"/>
      <point x="1384" y="1322"/>
      <point x="1725" y="1560"/>
      <point x="1920" y="1560" type="qcurve"/>
      <point x="2054" y="1560"/>
      <point x="2263" y="1445"/>
      <point x="2400" y="1244"/>
      <point x="2452" y="981"/>
      <point x="2428" y="832" type="qcurve"/>
      <point x="2416" y="768" type="line"/>
      <point x="1196" y="768" type="line"/>
      <point x="1208" y="832" type="line"/>
      <point x="2364" y="832" type="line"/>
      <point x="2394" y="1016"/>
      <point x="2291" y="1317"/>
      <point x="2064" y="1496"/>
      <point x="1908" y="1496" type="qcurve"/>
      <point x="1750" y="1496"/>
      <point x="1462" y="1308"/>
      <point x="1254" y="984"/>
      <point x="1216" y="780" type="qcurve"/>
      <point x="1216" y="772" type="line"/>
      <point x="1182" y="570"/>
      <point x="1268" y="234"/>
      <point x="1506" y="32"/>
      <point x="1700" y="32" type="qcurve"/>
      <point x="1842" y="32"/>
      <point x="2050" y="132"/>
      <point x="2188" y="262"/>
      <point x="2224" y="308" type="qcurve"/>
      <point x="2288" y="308" type="line"/>
      <point x="2226" y="214"/>
      <point x="2068" y="72"/>
      <point x="1838" y="-32"/>
    </contour>
    <contour>
      <point x="536" y="32" type="qcurve"/>
      <point x="682" y="32"/>
      <point x="945" y="189"/>
      <point x="1130" y="470"/>
      <point x="1160" y="656" type="qcurve"/>
      <point x="1200" y="888" type="line"/>
      <point x="1169" y="867"/>
      <point x="1084" y="835"/>
      <point x="981" y="810"/>
      <point x="862" y="792"/>
      <point x="796" y="784" type="qcurve"/>
      <point x="586" y="760"/>
      <point x="334" y="662"/>
      <point x="210" y="514"/>
      <point x="192" y="416" type="qcurve"/>
      <point x="165" y="242"/>
      <point x="365" y="32"/>
    </contour>
    <contour>
      <point x="524" y="-32" type="qcurve"/>
      <point x="398" y="-32"/>
      <point x="203" y="72"/>
      <point x="106" y="272"/>
      <point x="128" y="416" type="qcurve"/>
      <point x="142" y="494"/>
      <point x="215" y="631"/>
      <point x="360" y="743"/>
      <point x="600" y="823"/>
      <point x="780" y="844" type="qcurve"/>
      <point x="888" y="856"/>
      <point x="1082" y="888"/>
      <point x="1210" y="952"/>
      <point x="1220" y="1012" type="qcurve"/>
      <point x="1236" y="1104" type="line"/>
      <point x="1266" y="1281"/>
      <point x="1062" y="1496"/>
      <point x="864" y="1496" type="qcurve"/>
      <point x="702" y="1496"/>
      <point x="437" y="1353"/>
      <point x="368" y="1224" type="qcurve"/>
      <point x="302" y="1224" type="line"/>
      <point x="364" y="1344"/>
      <point x="537" y="1484"/>
      <point x="756" y="1560"/>
      <point x="876" y="1560" type="qcurve"/>
      <point x="993" y="1560"/>
      <point x="1167" y="1491"/>
      <point x="1276" y="1368"/>
      <point x="1317" y="1202"/>
      <point x="1300" y="1104" type="qcurve"/>
      <point x="1196" y="480" type="line"/>
      <point x="1184" y="480" type="line"/>
      <point x="1108" y="296"/>
      <point x="887" y="71"/>
      <point x="640" y="-32"/>
    </contour>
  </outline>
</glyph>
<glyph name="edieresis" format="2">
  <advance width="1624"/>
  <unicode hex="00EB"/>
  <outline>
    <contour>
      <point x="716" y="-32" type="qcurve"/>
      <point x="514" y="-32"/>
      <point x="248" y="178"/>
      <point x="142" y="538"/>
      <point x="180" y="764" type="qcurve"/>
      <point x="218" y="990"/>
      <point x="444" y="1350"/>
      <point x="766" y="1560"/>
      <point x="948" y="1560" type="qcurve"/>
      <point x="1082" y="1560"/>
      <point x="1291" y="1445"/>
      <point x="1428" y="1244"/>
      <point x="1480" y="981"/>
      <point x="1456" y="832" type="qcurve"/>
      <point x="1444" y="768" type="line"/>
      <point x="212" y="768" type="line"/>
      <point x="224" y="832" type="line"/>
      <point x="1392" y="832" type="line"/>
      <point x="1422" y="1016"/>
      <point x="1325" y="1317"/>
      <point x="1104" y="1496"/>
      <point x="948" y="1496" type="qcurve"/>
      <point x="790" y="1496"/>
      <point x="498" y="1308"/>
      <point x="286" y="984"/>
      <point x="248" y="780" type="qcurve"/>
      <point x="244" y="776" type="line"/>
      <point x="210" y="574"/>
      <point x="292" y="236"/>
      <point x="526" y="32"/>
      <point x="720" y="32" type="qcurve"/>
      <point x="860" y="32"/>
      <point x="1073" y="132"/>
      <point x="1216" y="262"/>
      <point x="1252" y="308" type="qcurve"/>
      <point x="1296" y="272" type="line"/>
      <point x="1254" y="214"/>
      <point x="1096" y="72"/>
      <point x="866" y="-32"/>
    </contour>
    <contour>
      <point x="800" y="1816" type="qcurve"/>
      <point x="770" y="1816"/>
      <point x="734" y="1858"/>
      <point x="740" y="1888" type="qcurve"/>
      <point x="745" y="1910"/>
      <point x="784" y="1944"/>
      <point x="808" y="1944" type="qcurve"/>
      <point x="838" y="1944"/>
      <point x="873" y="1902"/>
      <point x="868" y="1872" type="qcurve"/>
      <point x="865" y="1851"/>
      <point x="824" y="1816"/>
    </contour>
    <contour>
      <point x="1184" y="1816" type="qcurve"/>
      <point x="1154" y="1816"/>
      <point x="1118" y="1861"/>
      <point x="1124" y="1888" type="qcurve"/>
      <point x="1129" y="1909"/>
      <point x="1168" y="1944"/>
      <point x="1192" y="1944" type="qcurve"/>
      <point x="1222" y="1944"/>
      <point x="1260" y="1901"/>
      <point x="1252" y="1872" type="qcurve"/>
      <point x="1246" y="1848"/>
      <point x="1208" y="1816"/>
    </contour>
  </outline>
</glyph>
<glyph name="idieresis" format="2">
  <advance width="624"/>
  <unicode hex="00EF"/>
  <outline>
    <contour>
      <point x="152" y="0" type="line"/>
      <point x="408" y="1536" type="line"/>
      <point x="472" y="1536" type="line"/>
      <point x="216" y="0" type="line"/>
    </contour>
    <contour>
      <point x="300" y="1816" type="qcurve"/>
      <point x="270" y="1816"/>
      <point x="234" y="1858"/>
      <point x="240" y="1888" type="qcurve"/>
      <point x="245" y="1910"/>
      <point x="284" y="1944"/>
      <point x="308" y="1944" type="qcurve"/>
      <point x="338" y="1944"/>
      <point x="373" y="1902"/>
      <point x="368" y="1872" type="qcurve"/>
      <point x="365" y="1851"/>
      <point x="324" y="1816"/>
    </contour>
    <contour>
      <point x="684" y="1816" type="qcurve"/>
      <point x="654" y="1816"/>
      <point x="618" y="1861"/>
      <point x="624" y="1888" type="qcurve"/>
      <point x="629" y="1909"/>
      <point x="668" y="1944"/>
      <point x="692" y="1944" type="qcurve"/>
      <point x="722" y="1944"/>
      <point x="760" y="1901"/>
      <point x="752" y="1872" type="qcurve"/>
      <point x="746" y="1848"/>
      <point x="708" y="1816"/>
    </contour>
  </outline>
</glyph>
<glyph name="eth" format="2">
  <advance width="1670"/>
  <unicode hex="00F0"/>
  <outline>
    <contour>
      <point x="1556" y="2006" type="line"/>
      <point x="712" y="1650" type="line"/>
      <point x="704" y="1716" type="line"/>
      <point x="1548" y="2072" type="line"/>
    </contour>
    <contour>
      <point x="704" y="-32" type="qcurve"/>
      <point x="522" y="-32"/>
      <point x="256" y="168"/>
      <point x="136" y="506"/>
      <point x="170" y="714" type="qcurve"/>
      <point x="206" y="926"/>
      <point x="434" y="1264"/>
      <point x="764" y="1460"/>
      <point x="950" y="1460" type="qcurve"/>
      <point x="1062" y="1460"/>
      <point x="1248" y="1383"/>
      <point x="1389" y="1235"/>
      <point x="1432" y="1128" type="qcurve"/>
      <point x="1442" y="1128" type="line"/>
      <point x="1412" y="1334"/>
      <point x="1244" y="1700"/>
      <point x="975" y="2003"/>
      <point x="792" y="2112" type="qcurve"/>
      <point x="822" y="2176" type="line"/>
      <point x="1012" y="2065"/>
      <point x="1293" y="1753"/>
      <point x="1466" y="1379"/>
      <point x="1523" y="967"/>
      <point x="1488" y="754" type="qcurve"/>
      <point x="1449" y="513"/>
      <point x="1217" y="160"/>
      <point x="889" y="-32"/>
    </contour>
    <contour>
      <point x="714" y="32" type="qcurve"/>
      <point x="879" y="32"/>
      <point x="1177" y="215"/>
      <point x="1387" y="525"/>
      <point x="1418" y="714" type="qcurve"/>
      <point x="1451" y="908"/>
      <point x="1346" y="1216"/>
      <point x="1108" y="1396"/>
      <point x="940" y="1396" type="qcurve"/>
      <point x="777" y="1396"/>
      <point x="477" y="1213"/>
      <point x="265" y="903"/>
      <point x="234" y="714" type="qcurve"/>
      <point x="202" y="519"/>
      <point x="307" y="210"/>
      <point x="545" y="32"/>
    </contour>
  </outline>
</glyph>
<glyph name="odieresis" format="2">
  <advance width="1632"/>
  <unicode hex="00F6"/>
  <outline>
    <contour>
      <point x="688" y="-32" type="qcurve"/>
      <point x="506" y="-32"/>
      <point x="251" y="178"/>
      <point x="142" y="542"/>
      <point x="180" y="772" type="qcurve"/>
      <point x="218" y="996"/>
      <point x="443" y="1353"/>
      <point x="762" y="1560"/>
      <point x="940" y="1560" type="qcurve"/>
      <point x="1124" y="1560"/>
      <point x="1379" y="1348"/>
      <point x="1488" y="984"/>
      <point x="1452" y="756" type="qcurve"/>
      <point x="1414" y="532"/>
      <point x="1188" y="175"/>
      <point x="868" y="-32"/>
    </contour>
    <contour>
      <point x="688" y="32" type="qcurve"/>
      <point x="854" y="32"/>
      <point x="1148" y="225"/>
      <point x="1354" y="560"/>
      <point x="1388" y="772" type="qcurve"/>
      <point x="1422" y="978"/>
      <point x="1328" y="1306"/>
      <point x="1104" y="1496"/>
      <point x="944" y="1496" type="qcurve"/>
      <point x="780" y="1496"/>
      <point x="486" y="1301"/>
      <point x="278" y="966"/>
      <point x="244" y="756" type="qcurve"/>
      <point x="208" y="550"/>
      <point x="303" y="222"/>
      <point x="528" y="32"/>
    </contour>
    <contour>
      <point x="804" y="1816" type="qcurve"/>
      <point x="774" y="1816"/>
      <point x="738" y="1858"/>
      <point x="744" y="1888" type="qcurve"/>
      <point x="749" y="1910"/>
      <point x="788" y="1944"/>
      <point x="812" y="1944" type="qcurve"/>
      <point x="842" y="1944"/>
      <point x="877" y="1902"/>
      <point x="872" y="1872" type="qcurve"/>
      <point x="869" y="1851"/>
      <point x="828" y="1816"/>
    </contour>
    <contour>
      <point x="1188" y="1816" type="qcurve"/>
      <point x="1158" y="1816"/>
      <point x="1122" y="1861"/>
      <point x="1128" y="1888" type="qcurve"/>
      <point x="1133" y="1909"/>
      <point x="1172" y="1944"/>
      <point x="1196" y="1944" type="qcurve"/>
      <point x="1226" y="1944"/>
      <point x="1264" y="1901"/>
      <point x="1256" y="1872" type="qcurve"/>
      <point x="1250" y="1848"/>
      <point x="1212" y="1816"/>
    </contour>
  </outline>
</glyph>
<glyph name="divide" format="2">
  <advance width="1792"/>
  <unicode hex="00F7"/>
  <outline>
    <contour>
      <point x="1488" y="832" type="line"/>
      <point x="1476" y="768" type="line"/>
      <point x="316" y="768" type="line"/>
      <point x="328" y="832" type="line"/>
    </contour>
    <contour>
      <point x="824" y="272" type="qcurve"/>
      <point x="794" y="272"/>
      <point x="752" y="314"/>
      <point x="752" y="344" type="qcurve"/>
      <point x="752" y="374"/>
      <point x="794" y="416"/>
      <point x="824" y="416" type="qcurve"/>
      <point x="854" y="416"/>
      <point x="896" y="374"/>
      <point x="896" y="344" type="qcurve"/>
      <point x="896" y="314"/>
      <point x="854" y="272"/>
    </contour>
    <contour>
      <point x="976" y="1184" type="qcurve"/>
      <point x="956" y="1184"/>
      <point x="923" y="1203"/>
      <point x="904" y="1236"/>
      <point x="904" y="1256" type="qcurve"/>
      <point x="904" y="1286"/>
      <point x="946" y="1328"/>
      <point x="976" y="1328" type="qcurve"/>
      <point x="1006" y="1328"/>
      <point x="1048" y="1286"/>
      <point x="1048" y="1256" type="qcurve"/>
      <point x="1048" y="1226"/>
      <point x="1006" y="1184"/>
    </contour>
  </outline>
</glyph>
<glyph name="oslash" format="2">
  <advance width="1632"/>
  <unicode hex="00F8"/>
  <outline>
    <contour>
      <point x="180" y="-40" type="line"/>
      <point x="128" y="-4" type="line"/>
      <point x="1452" y="1576" type="line"/>
      <point x="1504" y="1540" type="line"/>
    </contour>
    <contour>
      <point x="688" y="-28" type="qcurve"/>
      <point x="506" y="-28"/>
      <point x="251" y="182"/>
      <point x="142" y="546"/>
      <point x="180" y="776" type="qcurve"/>
      <point x="218" y="1000"/>
      <point x="443" y="1357"/>
      <point x="762" y="1564"/>
      <point x="940" y="1564" type="qcurve"/>
      <point x="1124" y="1564"/>
      <point x="1379" y="1352"/>
      <point x="1488" y="988"/>
      <point x="1452" y="760" type="qcurve"/>
      <point x="1414" y="536"/>
      <point x="1188" y="179"/>
      <point x="868" y="-28"/>
    </contour>
    <contour>
      <point x="688" y="36" type="qcurve"/>
      <point x="854" y="36"/>
      <point x="1148" y="229"/>
      <point x="1354" y="564"/>
      <point x="1388" y="776" type="qcurve"/>
      <point x="1422" y="982"/>
      <point x="1328" y="1310"/>
      <point x="1104" y="1500"/>
      <point x="944" y="1500" type="qcurve"/>
      <point x="780" y="1500"/>
      <point x="486" y="1305"/>
      <point x="278" y="970"/>
      <point x="244" y="760" type="qcurve"/>
      <point x="208" y="554"/>
      <point x="303" y="226"/>
      <point x="528" y="36"/>
    </contour>
  </outline>
</glyph>
<glyph name="thorn" format="2">
  <advance width="1622"/>
  <unicode hex="00FE"/>
  <outline>
    <contour>
      <point x="476" y="2048" type="line"/>
      <point x="540" y="2048" type="line"/>
      <point x="392" y="1144" type="line"/>
      <point x="316" y="768" type="line"/>
      <point x="264" y="384" type="line"/>
      <point x="104" y="-576" type="line"/>
      <point x="40" y="-576" type="line"/>
    </contour>
    <contour>
      <point x="370" y="1144" type="line"/>
      <point x="400" y="1144" type="line"/>
      <point x="462" y="1272"/>
      <point x="642" y="1459"/>
      <point x="864" y="1560"/>
      <point x="988" y="1560" type="qcurve"/>
      <point x="1170" y="1560"/>
      <point x="1401" y="1352"/>
      <point x="1486" y="992"/>
      <point x="1448" y="764" type="qcurve"/>
      <point x="1410" y="538"/>
      <point x="1204" y="178"/>
      <point x="904" y="-32"/>
      <point x="724" y="-32" type="qcurve"/>
      <point x="602" y="-32"/>
      <point x="413" y="69"/>
      <point x="292" y="256"/>
      <point x="272" y="384" type="qcurve"/>
      <point x="230" y="384" type="line"/>
    </contour>
    <contour>
      <point x="1384" y="764" type="qcurve"/>
      <point x="1418" y="972"/>
      <point x="1351" y="1303"/>
      <point x="1152" y="1496"/>
      <point x="988" y="1496" type="qcurve"/>
      <point x="826" y="1496"/>
      <point x="551" y="1303"/>
      <point x="362" y="972"/>
      <point x="328" y="764" type="qcurve"/>
      <point x="294" y="556"/>
      <point x="363" y="225"/>
      <point x="562" y="32"/>
      <point x="724" y="32" type="qcurve"/>
      <point x="886" y="32"/>
      <point x="1161" y="225"/>
      <point x="1350" y="556"/>
    </contour>
  </outline>
</glyph>
<glyph name="ydieresis" format="2">
  <advance width="1472"/>
  <unicode hex="00FF"/>
  <outline>
    <contour>
      <point x="118" y="-576" type="qcurve"/>
      <point x="79" y="-576"/>
      <point x="-4" y="-555"/>
      <point x="-46" y="-536" type="qcurve"/>
      <point x="-14" y="-480" type="line"/>
      <point x="74" y="-523"/>
      <point x="241" y="-496"/>
      <point x="389" y="-365"/>
      <point x="448" y="-252" type="qcurve"/>
      <point x="568" y="-24" type="line"/>
      <point x="272" y="1536" type="line"/>
      <point x="336" y="1536" type="line"/>
      <point x="614" y="80" type="line"/>
      <point x="622" y="80" type="line"/>
      <point x="1384" y="1536" type="line"/>
      <point x="1456" y="1536" type="line"/>
      <point x="506" y="-280" type="line"/>
      <point x="455" y="-377"/>
      <point x="330" y="-509"/>
      <point x="190" y="-576"/>
    </contour>
    <contour>
      <point x="726" y="1816" type="qcurve"/>
      <point x="696" y="1816"/>
      <point x="660" y="1858"/>
      <point x="666" y="1888" type="qcurve"/>
      <point x="671" y="1910"/>
      <point x="710" y="1944"/>
      <point x="734" y="1944" type="qcurve"/>
      <point x="764" y="1944"/>
      <point x="799" y="1902"/>
      <point x="794" y="1872" type="qcurve"/>
      <point x="791" y="1851"/>
      <point x="750" y="1816"/>
    </contour>
    <contour>
      <point x="1110" y="1816" type="qcurve"/>
      <point x="1080" y="1816"/>
      <point x="1044" y="1861"/>
      <point x="1050" y="1888" type="qcurve"/>
      <point x="1055" y="1909"/>
      <point x="1094" y="1944"/>
      <point x="1118" y="1944" type="qcurve"/>
      <point x="1148" y="1944"/>
      <point x="1186" y="1901"/>
      <point x="1178" y="1872" type="qcurve"/>
      <point x="1172" y="1848"/>
      <point x="1134" y="1816"/>
    </contour>
  </outline>
</glyph>
<glyph name="Hbar" format="2">
  <advance width="2094"/>
  <unicode hex="0126"/>
  <outline>
    <contour>
      <point x="2048" y="1484" type="line"/>
      <point x="2036" y="1420" type="line"/>
      <point x="284" y="1420" type="line"/>
      <point x="296" y="1484" type="line"/>
    </contour>
    <contour>
      <point x="208" y="0" type="line"/>
      <point x="548" y="2048" type="line"/>
      <point x="612" y="2048" type="line"/>
      <point x="448" y="1056" type="line"/>
      <point x="1752" y="1056" type="line"/>
      <point x="1916" y="2048" type="line"/>
      <point x="1980" y="2048" type="line"/>
      <point x="1640" y="0" type="line"/>
      <point x="1576" y="0" type="line"/>
      <point x="1740" y="992" type="line"/>
      <point x="436" y="992" type="line"/>
      <point x="272" y="0" type="line"/>
    </contour>
  </outline>
</glyph>
<glyph name="hbar" format="2">
  <advance width="1600"/>
  <unicode hex="0127"/>
  <outline>
    <contour>
      <point x="380" y="1032" type="qcurve"/>
      <point x="208" y="0" type="line"/>
      <point x="144" y="0" type="line"/>
      <point x="484" y="2048" type="line"/>
      <point x="548" y="2048" type="line"/>
      <point x="424" y="1292" type="line"/>
      <point x="432" y="1292" type="line"/>
      <point x="504" y="1412"/>
      <point x="777" y="1556"/>
      <point x="936" y="1556" type="qcurve"/>
      <point x="1090" y="1556"/>
      <point x="1304" y="1422"/>
      <point x="1398" y="1186"/>
      <point x="1372" y="1032" type="qcurve"/>
      <point x="1200" y="0" type="line"/>
      <point x="1136" y="0" type="line"/>
      <point x="1308" y="1032" type="line"/>
      <point x="1341" y="1236"/>
      <point x="1136" y="1492"/>
      <point x="932" y="1492" type="qcurve"/>
      <point x="796" y="1492"/>
      <point x="561" y="1374"/>
      <point x="402" y="1166"/>
    </contour>
    <contour>
      <point x="96" y="1788" type="line"/>
      <point x="108" y="1852" type="line"/>
      <point x="868" y="1852" type="line"/>
      <point x="856" y="1788" type="line"/>
    </contour>
  </outline>
</glyph>
<glyph name="dotlessi" format="2">
  <advance width="624"/>
  <unicode hex="0131"/>
  <outline>
    <contour>
      <point x="152" y="0" type="line"/>
      <point x="408" y="1536" type="line"/>
      <point x="472" y="1536" type="line"/>
      <point x="216" y="0" type="line"/>
    </contour>
  </outline>
</glyph>
<glyph name="kgreenlandic" format="2">
  <advance width="1580"/>
  <unicode hex="0138"/>
  <outline>
    <contour>
      <point x="452" y="1536" type="line"/>
      <point x="196" y="0" type="line"/>
      <point x="132" y="0" type="line"/>
      <point x="388" y="1536" type="line"/>
    </contour>
    <contour>
      <point x="1420" y="1536" type="line"/>
      <point x="506" y="742" type="line"/>
      <point x="280" y="744" type="line"/>
      <point x="290" y="808" type="line"/>
      <point x="488" y="808" type="line"/>
      <point x="1332" y="1536" type="line"/>
    </contour>
    <contour>
      <point x="1080" y="0" type="line"/>
      <point x="428" y="758" type="line"/>
      <point x="504" y="774" type="line"/>
      <point x="1172" y="0" type="line"/>
    </contour>
  </outline>
</glyph>
<glyph name="Lslash" format="2">
  <advance width="1519"/>
  <unicode hex="0141"/>
  <outline>
    <contour>
      <point x="704" y="1216" type="line"/>
      <point x="716" y="1154" type="line"/>
      <point x="48" y="898" type="line"/>
      <point x="32" y="960" type="line"/>
    </contour>
    <contour>
      <point x="104" y="0" type="line"/>
      <point x="444" y="2048" type="line"/>
      <point x="508" y="2048" type="line"/>
      <point x="180" y="64" type="line"/>
      <point x="1204" y="64" type="line"/>
      <point x="1192" y="0" type="line"/>
    </contour>
  </outline>
</glyph>
<glyph name="lslash" format="2">
  <advance width="580"/>
  <unicode hex="0142"/>
  <unicode hex="E051"/>
  <outline>
    <contour>
      <point x="624" y="1208" type="line"/>
      <point x="614" y="1132" type="line"/>
      <point x="22" y="880" type="line"/>
      <point x="44" y="956" type="line"/>
    </contour>
    <contour>
      <point x="456" y="2048" type="line"/>
      <point x="520" y="2048" type="line"/>
      <point x="224" y="248" type="line"/>
      <point x="202" y="113"/>
      <point x="324" y="43"/>
      <point x="436" y="68" type="qcurve"/>
      <point x="443" y="70"/>
      <point x="450" y="72"/>
      <point x="448" y="72" type="qcurve"/>
      <point x="456" y="12" type="line"/>
      <point x="456" y="12"/>
      <point x="437" y="6"/>
      <point x="432" y="4" type="qcurve"/>
      <point x="284" y="-26"/>
      <point x="134" y="88"/>
      <point x="160" y="248" type="qcurve"/>
    </contour>
  </outline>
</glyph>
<glyph name="Eng" format="2">
  <advance width="2176"/>
  <unicode hex="014A"/>
  <outline>
    <contour>
      <point x="1664" y="0" type="line"/>
      <point x="1728" y="0" type="line"/>
      <point x="1688" y="-232" type="line"/>
      <point x="1669" y="-345"/>
      <point x="1584" y="-497"/>
      <point x="1452" y="-572"/>
      <point x="1362" y="-572" type="qcurve"/>
      <point x="1339" y="-572"/>
      <point x="1298" y="-568"/>
      <point x="1284" y="-564" type="qcurve"/>
      <point x="1294" y="-500" type="line"/>
      <point x="1308" y="-504"/>
      <point x="1342" y="-508"/>
      <point x="1362" y="-508" type="qcurve"/>
      <point x="1472" y="-508"/>
      <point x="1600" y="-371"/>
      <point x="1624" y="-232" type="qcurve"/>
    </contour>
    <contour>
      <point x="2068" y="2048" type="line"/>
      <point x="1728" y="0" type="line"/>
      <point x="1664" y="0" type="line"/>
      <point x="584" y="1928" type="line"/>
      <point x="576" y="1928" type="line"/>
      <point x="256" y="0" type="line"/>
      <point x="192" y="0" type="line"/>
      <point x="532" y="2048" type="line"/>
      <point x="596" y="2048" type="line"/>
      <point x="1676" y="120" type="line"/>
      <point x="1684" y="120" type="line"/>
      <point x="2004" y="2048" type="line"/>
    </contour>
  </outline>
</glyph>
<glyph name="eng" format="2">
  <advance width="1518"/>
  <unicode hex="014B"/>
  <outline>
    <contour>
      <point x="1136" y="0" type="line"/>
      <point x="1200" y="0" type="line"/>
      <point x="1162" y="-236" type="line"/>
      <point x="1144" y="-348"/>
      <point x="1054" y="-500"/>
      <point x="917" y="-576"/>
      <point x="828" y="-576" type="qcurve"/>
      <point x="799" y="-576"/>
      <point x="751" y="-567"/>
      <point x="732" y="-558" type="qcurve"/>
      <point x="746" y="-496" type="line"/>
      <point x="769" y="-504"/>
      <point x="820" y="-512"/>
      <point x="842" y="-512" type="qcurve"/>
      <point x="937" y="-512"/>
      <point x="1076" y="-369"/>
      <point x="1098" y="-236" type="qcurve"/>
    </contour>
    <contour>
      <point x="380" y="1032" type="qcurve"/>
      <point x="208" y="0" type="line"/>
      <point x="144" y="0" type="line"/>
      <point x="400" y="1536" type="line"/>
      <point x="464" y="1536" type="line"/>
      <point x="424" y="1292" type="line"/>
      <point x="432" y="1292" type="line"/>
      <point x="504" y="1412"/>
      <point x="777" y="1556"/>
      <point x="936" y="1556" type="qcurve"/>
      <point x="1090" y="1556"/>
      <point x="1304" y="1422"/>
      <point x="1398" y="1186"/>
      <point x="1372" y="1032" type="qcurve"/>
      <point x="1200" y="0" type="line"/>
      <point x="1136" y="0" type="line"/>
      <point x="1308" y="1032" type="line"/>
      <point x="1341" y="1236"/>
      <point x="1136" y="1492"/>
      <point x="932" y="1492" type="qcurve"/>
      <point x="796" y="1492"/>
      <point x="561" y="1374"/>
      <point x="402" y="1166"/>
    </contour>
  </outline>
</glyph>
<glyph name="OE" format="2">
  <advance width="2596"/>
  <unicode hex="0152"/>
  <outline>
    <contour>
      <point x="920" y="0" type="line"/>
      <point x="668" y="0"/>
      <point x="330" y="259"/>
      <point x="194" y="720"/>
      <point x="244" y="1024" type="qcurve"/>
      <point x="295" y="1333"/>
      <point x="581" y="1794"/>
      <point x="1004" y="2048"/>
      <point x="1260" y="2048" type="qcurve"/>
      <point x="2572" y="2048" type="line"/>
      <point x="2560" y="1984" type="line"/>
      <point x="1532" y="1984" type="line"/>
      <point x="1380" y="1056" type="line"/>
      <point x="2348" y="1056" type="line"/>
      <point x="2336" y="992" type="line"/>
      <point x="1368" y="992" type="line"/>
      <point x="1216" y="64" type="line"/>
      <point x="2272" y="64" type="line"/>
      <point x="2260" y="0" type="line"/>
    </contour>
    <contour>
      <point x="1151" y="64" type="line"/>
      <point x="1469" y="1984" type="line"/>
      <point x="1248" y="1984" type="line"/>
      <point x="1017" y="1986"/>
      <point x="626" y="1744"/>
      <point x="357" y="1311"/>
      <point x="308" y="1024" type="qcurve"/>
      <point x="259" y="735"/>
      <point x="379" y="303"/>
      <point x="692" y="64"/>
      <point x="932" y="64" type="qcurve"/>
    </contour>
  </outline>
</glyph>
<glyph name="Ydieresis" format="2">
  <advance width="1728"/>
  <unicode hex="0178"/>
  <outline>
    <contour>
      <point x="308" y="2048" type="line"/>
      <point x="380" y="2048" type="line"/>
      <point x="896" y="1044" type="line"/>
      <point x="908" y="1044" type="line"/>
      <point x="1760" y="2048" type="line"/>
      <point x="1844" y="2048" type="line"/>
      <point x="928" y="972" type="line"/>
      <point x="768" y="0" type="line"/>
      <point x="704" y="0" type="line"/>
      <point x="864" y="972" type="line"/>
    </contour>
    <contour>
      <point x="940" y="2328" type="qcurve"/>
      <point x="910" y="2328"/>
      <point x="874" y="2370"/>
      <point x="880" y="2400" type="qcurve"/>
      <point x="885" y="2422"/>
      <point x="924" y="2456"/>
      <point x="948" y="2456" type="qcurve"/>
      <point x="978" y="2456"/>
      <point x="1013" y="2414"/>
      <point x="1008" y="2384" type="qcurve"/>
      <point x="1005" y="2363"/>
      <point x="964" y="2328"/>
    </contour>
    <contour>
      <point x="1324" y="2328" type="qcurve"/>
      <point x="1294" y="2328"/>
      <point x="1258" y="2373"/>
      <point x="1264" y="2400" type="qcurve"/>
      <point x="1269" y="2421"/>
      <point x="1308" y="2456"/>
      <point x="1332" y="2456" type="qcurve"/>
      <point x="1362" y="2456"/>
      <point x="1400" y="2413"/>
      <point x="1392" y="2384" type="qcurve"/>
      <point x="1386" y="2360"/>
      <point x="1348" y="2328"/>
    </contour>
  </outline>
</glyph>
<glyph name="zcaron" format="2">
  <advance width="1432"/>
  <unicode hex="017E"/>
  <outline>
    <contour>
      <point x="88" y="0" type="line"/>
      <point x="100" y="64" type="line"/>
      <point x="1248" y="1464" type="line"/>
      <point x="1248" y="1472" type="line"/>
      <point x="392" y="1472" type="line"/>
      <point x="404" y="1536" type="line"/>
      <point x="1344" y="1536" type="line"/>
      <point x="1332" y="1472" type="line"/>
      <point x="188" y="72" type="line"/>
      <point x="188" y="64" type="line"/>
      <point x="1140" y="64" type="line"/>
      <point x="1128" y="0" type="line"/>
    </contour>
    <contour>
      <point x="638" y="2134" type="line"/>
      <point x="884" y="1832" type="line"/>
      <point x="1226" y="2134" type="line"/>
      <point x="1318" y="2134" type="line"/>
      <point x="1314" y="2126" type="line"/>
      <point x="886" y="1750" type="line"/>
      <point x="870" y="1750" type="line"/>
      <point x="562" y="2126" type="line"/>
      <point x="566" y="2134" type="line"/>
    </contour>
  </outline>
</glyph>
<glyph name="longs" format="2">
  <advance width="616"/>
  <unicode hex="017F"/>
  <outline>
    <contour>
      <point x="10" y="0" type="line"/>
      <point x="-54" y="0" type="line"/>
      <point x="242" y="1788" type="line"/>
      <point x="260" y="1896"/>
      <point x="384" y="2054"/>
      <point x="561" y="2140"/>
      <point x="658" y="2140" type="qcurve"/>
      <point x="687" y="2140"/>
      <point x="748" y="2132"/>
      <point x="772" y="2124" type="qcurve"/>
      <point x="750" y="2062" type="line"/>
      <point x="721" y="2070"/>
      <point x="675" y="2076"/>
      <point x="654" y="2076" type="qcurve"/>
      <point x="529" y="2076"/>
      <point x="329" y="1925"/>
      <point x="306" y="1788" type="qcurve"/>
    </contour>
  </outline>
</glyph>
<glyph name="Bhook" format="2">
  <advance width="2080"/>
  <unicode hex="0181"/>
  <outline>
    <contour>
      <point x="824" y="1984" type="line"/>
      <point x="648" y="1984" type="line"/>
      <point x="569" y="1984"/>
      <point x="471" y="1925"/>
      <point x="416" y="1810"/>
      <point x="402" y="1724" type="qcurve"/>
      <point x="396" y="1688" type="line"/>
      <point x="332" y="1688" type="line"/>
      <point x="344" y="1760" type="line"/>
      <point x="359" y="1847"/>
      <point x="433" y="1977"/>
      <point x="561" y="2048"/>
      <point x="656" y="2048" type="qcurve"/>
      <point x="840" y="2048" type="line"/>
    </contour>
    <contour>
      <point x="472" y="0" type="line"/>
      <point x="812" y="2048" type="line"/>
      <point x="1452" y="2048" type="line"/>
      <point x="1624" y="2048"/>
      <point x="1849" y="1923"/>
      <point x="1940" y="1690"/>
      <point x="1912" y="1528" type="qcurve"/>
      <point x="1882" y="1348"/>
      <point x="1676" y="1083"/>
      <point x="1520" y="1044" type="qcurve"/>
      <point x="1520" y="1036" type="line"/>
      <point x="1630" y="1026"/>
      <point x="1786" y="890"/>
      <point x="1852" y="666"/>
      <point x="1828" y="524" type="qcurve"/>
      <point x="1802" y="366"/>
      <point x="1629" y="130"/>
      <point x="1356" y="0"/>
      <point x="1180" y="0" type="qcurve"/>
    </contour>
    <contour>
      <point x="548" y="64" type="line"/>
      <point x="1192" y="64" type="line"/>
      <point x="1417" y="64"/>
      <point x="1728" y="317"/>
      <point x="1764" y="524" type="qcurve"/>
      <point x="1788" y="666"/>
      <point x="1696" y="884"/>
      <point x="1492" y="1008"/>
      <point x="1348" y="1008" type="qcurve"/>
      <point x="704" y="1008" type="line"/>
    </contour>
    <contour>
      <point x="716" y="1072" type="line"/>
      <point x="1360" y="1072" type="line"/>
      <point x="1498" y="1072"/>
      <point x="1702" y="1198"/>
      <point x="1828" y="1406"/>
      <point x="1848" y="1528" type="qcurve"/>
      <point x="1884" y="1747"/>
      <point x="1665" y="1984"/>
      <point x="1440" y="1984" type="qcurve"/>
      <point x="864" y="1984" type="line"/>
    </contour>
  </outline>
</glyph>
<glyph name="Btopbar" format="2">
  <advance width="1840"/>
  <unicode hex="0182"/>
  <outline>
    <contour>
      <point x="192" y="0" type="line"/>
      <point x="532" y="2048" type="line"/>
      <point x="1644" y="2048" type="line"/>
      <point x="1632" y="1984" type="line"/>
      <point x="584" y="1984" type="line"/>
      <point x="434" y="1068" type="line"/>
      <point x="1138" y="1068" type="line"/>
      <point x="1305" y="1068"/>
      <point x="1540" y="936"/>
      <point x="1648" y="701"/>
      <point x="1622" y="544" type="qcurve"/>
      <point x="1594" y="373"/>
      <point x="1420" y="129"/>
      <point x="1143" y="0"/>
      <point x="960" y="0" type="qcurve"/>
    </contour>
    <contour>
      <point x="268" y="64" type="line"/>
      <point x="972" y="64" type="line"/>
      <point x="1132" y="64"/>
      <point x="1377" y="181"/>
      <point x="1533" y="398"/>
      <point x="1558" y="548" type="qcurve"/>
      <point x="1593" y="758"/>
      <point x="1358" y="1004"/>
      <point x="1126" y="1004" type="qcurve"/>
      <point x="422" y="1004" type="line"/>
    </contour>
  </outline>
</glyph>
<glyph name="btopbar" format="2">
  <advance width="1684"/>
  <unicode hex="0183"/>
  <outline>
    <contour>
      <point x="1556" y="2048" type="line"/>
      <point x="1544" y="1984" type="line"/>
      <point x="586" y="1984" type="line"/>
      <point x="448" y="1144" type="line"/>
      <point x="456" y="1144" type="line"/>
      <point x="516" y="1272"/>
      <point x="698" y="1459"/>
      <point x="922" y="1560"/>
      <point x="1044" y="1560" type="qcurve"/>
      <point x="1224" y="1560"/>
      <point x="1456" y="1350"/>
      <point x="1542" y="990"/>
      <point x="1504" y="764" type="qcurve"/>
      <point x="1466" y="538"/>
      <point x="1262" y="178"/>
      <point x="962" y="-32"/>
      <point x="780" y="-32" type="qcurve"/>
      <point x="656" y="-32"/>
      <point x="467" y="69"/>
      <point x="348" y="256"/>
      <point x="328" y="384" type="qcurve"/>
      <point x="320" y="384" type="line"/>
      <point x="256" y="0" type="line"/>
      <point x="192" y="0" type="line"/>
      <point x="532" y="2048" type="line"/>
    </contour>
    <contour>
      <point x="384" y="764" type="qcurve"/>
      <point x="350" y="556"/>
      <point x="417" y="225"/>
      <point x="616" y="32"/>
      <point x="780" y="32" type="qcurve"/>
      <point x="942" y="32"/>
      <point x="1217" y="225"/>
      <point x="1406" y="556"/>
      <point x="1440" y="764" type="qcurve"/>
      <point x="1474" y="972"/>
      <point x="1405" y="1303"/>
      <point x="1206" y="1496"/>
      <point x="1044" y="1496" type="qcurve"/>
      <point x="882" y="1496"/>
      <point x="607" y="1303"/>
      <point x="418" y="972"/>
    </contour>
  </outline>
</glyph>
<glyph name="Tonesix" format="2">
  <advance width="1774"/>
  <unicode hex="0184"/>
  <outline>
    <contour>
      <point x="742" y="2048" type="line"/>
      <point x="746" y="1984" type="line"/>
      <point x="224" y="1984" type="line"/>
      <point x="236" y="2048" type="line"/>
    </contour>
    <contour>
      <point x="572" y="1068" type="line"/>
      <point x="1304" y="1068" type="line"/>
      <point x="1471" y="1068"/>
      <point x="1706" y="937"/>
      <point x="1814" y="701"/>
      <point x="1788" y="544" type="qcurve"/>
      <point x="1760" y="373"/>
      <point x="1585" y="130"/>
      <point x="1309" y="0"/>
      <point x="1126" y="0" type="qcurve"/>
      <point x="358" y="0" type="line"/>
      <point x="698" y="2048" type="line"/>
      <point x="760" y="2048" type="line"/>
      <point x="434" y="64" type="line"/>
      <point x="1138" y="64" type="line"/>
      <point x="1297" y="64"/>
      <point x="1542" y="181"/>
      <point x="1698" y="398"/>
      <point x="1724" y="548" type="qcurve"/>
      <point x="1759" y="758"/>
      <point x="1523" y="1004"/>
      <point x="1292" y="1004" type="qcurve"/>
      <point x="560" y="1004" type="line"/>
    </contour>
  </outline>
</glyph>
<glyph name="tonesix" format="2">
  <advance width="1524"/>
  <unicode hex="0185"/>
  <outline>
    <contour>
      <point x="466" y="2112" type="line"/>
      <point x="526" y="2112" type="line"/>
      <point x="414" y="1440" type="line"/>
      <point x="354" y="1440" type="line"/>
      <point x="264" y="1768" type="line"/>
      <point x="268" y="1788" type="line"/>
    </contour>
    <contour>
      <point x="374" y="1144" type="line"/>
      <point x="406" y="1144" type="line"/>
      <point x="466" y="1272"/>
      <point x="648" y="1459"/>
      <point x="872" y="1560"/>
      <point x="994" y="1560" type="qcurve"/>
      <point x="1174" y="1560"/>
      <point x="1406" y="1350"/>
      <point x="1492" y="990"/>
      <point x="1454" y="764" type="qcurve"/>
      <point x="1416" y="538"/>
      <point x="1212" y="178"/>
      <point x="912" y="-32"/>
      <point x="730" y="-32" type="qcurve"/>
      <point x="606" y="-32"/>
      <point x="417" y="69"/>
      <point x="298" y="256"/>
      <point x="278" y="384" type="qcurve"/>
      <point x="240" y="386" type="line"/>
    </contour>
    <contour>
      <point x="1390" y="764" type="qcurve"/>
      <point x="1424" y="972"/>
      <point x="1355" y="1303"/>
      <point x="1156" y="1496"/>
      <point x="994" y="1496" type="qcurve"/>
      <point x="832" y="1496"/>
      <point x="557" y="1303"/>
      <point x="368" y="972"/>
      <point x="334" y="764" type="qcurve"/>
      <point x="300" y="556"/>
      <point x="367" y="225"/>
      <point x="566" y="32"/>
      <point x="730" y="32" type="qcurve"/>
      <point x="892" y="32"/>
      <point x="1167" y="225"/>
      <point x="1356" y="556"/>
    </contour>
    <contour>
      <point x="482" y="2048" type="line"/>
      <point x="546" y="2048" type="line"/>
      <point x="398" y="1144" type="line"/>
      <point x="318" y="768" type="line"/>
      <point x="270" y="384" type="line"/>
      <point x="206" y="0" type="line"/>
      <point x="142" y="0" type="line"/>
    </contour>
  </outline>
</glyph>
<glyph name="Oopen" format="2">
  <advance width="2038"/>
  <unicode hex="0186"/>
  <outline>
    <contour>
      <point x="186" y="640" type="qcurve"/>
      <point x="254" y="640" type="line"/>
      <point x="255" y="538"/>
      <point x="330" y="326"/>
      <point x="481" y="146"/>
      <point x="713" y="36"/>
      <point x="870" y="36" type="qcurve"/>
      <point x="1079" y="36"/>
      <point x="1473" y="265"/>
      <point x="1762" y="706"/>
      <point x="1814" y="1024" type="qcurve"/>
      <point x="1868" y="1346"/>
      <point x="1724" y="1786"/>
      <point x="1405" y="2012"/>
      <point x="1194" y="2012" type="qcurve"/>
      <point x="1038" y="2012"/>
      <point x="771" y="1903"/>
      <point x="561" y="1724"/>
      <point x="414" y="1512"/>
      <point x="378" y="1408" type="qcurve"/>
      <point x="310" y="1408" type="line"/>
      <point x="347" y="1516"/>
      <point x="501" y="1749"/>
      <point x="728" y="1951"/>
      <point x="1025" y="2076"/>
      <point x="1206" y="2076" type="qcurve"/>
      <point x="1458" y="2076"/>
      <point x="1796" y="1812"/>
      <point x="1931" y="1338"/>
      <point x="1878" y="1024" type="qcurve"/>
      <point x="1827" y="710"/>
      <point x="1535" y="236"/>
      <point x="1110" y="-28"/>
      <point x="858" y="-28" type="qcurve"/>
      <point x="677" y="-28"/>
      <point x="421" y="96"/>
      <point x="261" y="297"/>
      <point x="186" y="531"/>
    </contour>
  </outline>
</glyph>
<glyph name="Chook" format="2">
  <advance width="1986"/>
  <unicode hex="0187"/>
  <outline>
    <contour>
      <point x="1936" y="1408" type="line"/>
      <point x="1872" y="1408" type="line"/>
      <point x="1932" y="1772" type="line"/>
      <point x="1948" y="1866"/>
      <point x="2015" y="1986"/>
      <point x="2119" y="2044"/>
      <point x="2188" y="2044" type="qcurve"/>
      <point x="2205" y="2044"/>
      <point x="2239" y="2041"/>
      <point x="2256" y="2038" type="qcurve"/>
      <point x="2246" y="1974" type="line"/>
      <point x="2227" y="1977"/>
      <point x="2193" y="1980"/>
      <point x="2180" y="1980" type="qcurve"/>
      <point x="2135" y="1980"/>
      <point x="2061" y="1939"/>
      <point x="2009" y="1847"/>
      <point x="1996" y="1768" type="qcurve"/>
    </contour>
    <contour>
      <point x="1936" y="1408" type="qcurve"/>
      <point x="1868" y="1408" type="line"/>
      <point x="1867" y="1510"/>
      <point x="1792" y="1722"/>
      <point x="1641" y="1902"/>
      <point x="1410" y="2012"/>
      <point x="1252" y="2012" type="qcurve"/>
      <point x="1043" y="2012"/>
      <point x="649" y="1783"/>
      <point x="360" y="1342"/>
      <point x="308" y="1024" type="qcurve"/>
      <point x="254" y="702"/>
      <point x="398" y="262"/>
      <point x="718" y="36"/>
      <point x="928" y="36" type="qcurve"/>
      <point x="1084" y="36"/>
      <point x="1351" y="145"/>
      <point x="1561" y="324"/>
      <point x="1708" y="537"/>
      <point x="1744" y="640" type="qcurve"/>
      <point x="1812" y="640" type="line"/>
      <point x="1775" y="532"/>
      <point x="1621" y="299"/>
      <point x="1394" y="97"/>
      <point x="1097" y="-28"/>
      <point x="916" y="-28" type="qcurve"/>
      <point x="664" y="-28"/>
      <point x="326" y="236"/>
      <point x="191" y="710"/>
      <point x="244" y="1024" type="qcurve"/>
      <point x="295" y="1338"/>
      <point x="587" y="1812"/>
      <point x="1012" y="2076"/>
      <point x="1264" y="2076" type="qcurve"/>
      <point x="1445" y="2076"/>
      <point x="1701" y="1952"/>
      <point x="1861" y="1751"/>
      <point x="1936" y="1518"/>
    </contour>
  </outline>
</glyph>
<glyph name="chook" format="2">
  <advance width="1628"/>
  <unicode hex="0188"/>
  <outline>
    <contour>
      <point x="1424" y="1088" type="line"/>
      <point x="1360" y="1088" type="line"/>
      <point x="1400" y="1324" type="line"/>
      <point x="1418" y="1428"/>
      <point x="1493" y="1558"/>
      <point x="1616" y="1620"/>
      <point x="1704" y="1620" type="qcurve"/>
      <point x="1724" y="1620"/>
      <point x="1775" y="1617"/>
      <point x="1800" y="1614" type="qcurve"/>
      <point x="1790" y="1550" type="line"/>
      <point x="1764" y="1553"/>
      <point x="1713" y="1556"/>
      <point x="1696" y="1556" type="qcurve"/>
      <point x="1593" y="1556"/>
      <point x="1484" y="1443"/>
      <point x="1464" y="1324" type="qcurve"/>
    </contour>
    <contour>
      <point x="692" y="-32" type="qcurve"/>
      <point x="502" y="-32"/>
      <point x="247" y="178"/>
      <point x="143" y="539"/>
      <point x="180" y="764" type="qcurve"/>
      <point x="217" y="991"/>
      <point x="443" y="1351"/>
      <point x="770" y="1560"/>
      <point x="956" y="1560" type="qcurve"/>
      <point x="1165" y="1560"/>
      <point x="1424" y="1298"/>
      <point x="1424" y="1088" type="qcurve"/>
      <point x="1356" y="1088" type="line"/>
      <point x="1356" y="1276"/>
      <point x="1137" y="1496"/>
      <point x="956" y="1496" type="qcurve"/>
      <point x="787" y="1496"/>
      <point x="488" y="1305"/>
      <point x="279" y="975"/>
      <point x="244" y="764" type="qcurve"/>
      <point x="210" y="560"/>
      <point x="297" y="228"/>
      <point x="521" y="32"/>
      <point x="692" y="32" type="qcurve"/>
      <point x="817" y="32"/>
      <point x="1045" y="136"/>
      <point x="1217" y="324"/>
      <point x="1256" y="448" type="qcurve"/>
      <point x="1324" y="448" type="line"/>
      <point x="1277" y="301"/>
      <point x="1085" y="86"/>
      <point x="832" y="-32"/>
    </contour>
  </outline>
</glyph>
<glyph name="Dafrican" format="2">
  <advance width="2012"/>
  <unicode hex="0189"/>
  <outline>
    <contour>
      <point x="728" y="0" type="qcurve"/>
      <point x="224" y="0" type="line"/>
      <point x="236" y="64" type="line"/>
      <point x="740" y="64" type="line"/>
      <point x="1019" y="64"/>
      <point x="1456" y="300"/>
      <point x="1740" y="734"/>
      <point x="1788" y="1032" type="qcurve"/>
      <point x="1837" y="1336"/>
      <point x="1715" y="1761"/>
      <point x="1380" y="1984"/>
      <point x="1108" y="1984" type="qcurve"/>
      <point x="552" y="1984" type="line"/>
      <point x="564" y="2048" type="line"/>
      <point x="1120" y="2048" type="line"/>
      <point x="1402" y="2048"/>
      <point x="1766" y="1805"/>
      <point x="1906" y="1350"/>
      <point x="1852" y="1032" type="qcurve"/>
      <point x="1796" y="706"/>
      <point x="1493" y="244"/>
      <point x="1028" y="0"/>
    </contour>
    <contour>
      <point x="596" y="2048" type="line"/>
      <point x="256" y="0" type="line"/>
      <point x="192" y="0" type="line"/>
      <point x="532" y="2048" type="line"/>
    </contour>
    <contour>
      <point x="12" y="1008" type="line"/>
      <point x="24" y="1072" type="line"/>
      <point x="784" y="1072" type="line"/>
      <point x="772" y="1008" type="line"/>
    </contour>
  </outline>
</glyph>
<glyph name="Dhook" format="2">
  <advance width="2312"/>
  <unicode hex="018A"/>
  <outline>
    <contour>
      <point x="324" y="1688" type="line"/>
      <point x="336" y="1760" type="line"/>
      <point x="350" y="1847"/>
      <point x="424" y="1977"/>
      <point x="553" y="2048"/>
      <point x="648" y="2048" type="qcurve"/>
      <point x="852" y="2048" type="line"/>
      <point x="836" y="1984" type="line"/>
      <point x="640" y="1984" type="line"/>
      <point x="521" y="1984"/>
      <point x="414" y="1852"/>
      <point x="394" y="1724" type="qcurve"/>
      <point x="388" y="1688" type="line"/>
    </contour>
    <contour>
      <point x="1024" y="0" type="qcurve"/>
      <point x="488" y="0" type="line"/>
      <point x="828" y="2048" type="line"/>
      <point x="1416" y="2048" type="line"/>
      <point x="1698" y="2048"/>
      <point x="2062" y="1805"/>
      <point x="2202" y="1350"/>
      <point x="2148" y="1032" type="qcurve"/>
      <point x="2092" y="706"/>
      <point x="1789" y="244"/>
      <point x="1324" y="0"/>
    </contour>
    <contour>
      <point x="563" y="64" type="line"/>
      <point x="1036" y="64" type="line"/>
      <point x="1315" y="64"/>
      <point x="1752" y="300"/>
      <point x="2036" y="734"/>
      <point x="2084" y="1032" type="qcurve"/>
      <point x="2133" y="1336"/>
      <point x="2011" y="1761"/>
      <point x="1676" y="1984"/>
      <point x="1404" y="1984" type="qcurve"/>
      <point x="881" y="1984" type="line"/>
    </contour>
  </outline>
</glyph>
<glyph name="Dtopbar" format="2">
  <advance width="1663"/>
  <unicode hex="018B"/>
  <outline>
    <contour>
      <point x="1376" y="0" type="line"/>
      <point x="608" y="0" type="line"/>
      <point x="438" y="0"/>
      <point x="203" y="140"/>
      <point x="101" y="391"/>
      <point x="128" y="556" type="qcurve"/>
      <point x="155" y="716"/>
      <point x="331" y="945"/>
      <point x="608" y="1068"/>
      <point x="786" y="1068" type="qcurve"/>
      <point x="1490" y="1068" type="line"/>
      <point x="1640" y="1984" type="line"/>
      <point x="592" y="1984" type="line"/>
      <point x="604" y="2048" type="line"/>
      <point x="1716" y="2048" type="line"/>
    </contour>
    <contour>
      <point x="1324" y="64" type="line"/>
      <point x="1478" y="1004" type="line"/>
      <point x="774" y="1004" type="line"/>
      <point x="544" y="1004"/>
      <point x="227" y="761"/>
      <point x="194" y="560" type="qcurve"/>
      <point x="169" y="404"/>
      <point x="252" y="182"/>
      <point x="460" y="64"/>
      <point x="620" y="64" type="qcurve"/>
    </contour>
  </outline>
</glyph>
<glyph name="dtopbar" format="2">
  <advance width="1682"/>
  <unicode hex="018C"/>
  <outline>
    <contour>
      <point x="550" y="2048" type="line"/>
      <point x="1542" y="2048" type="line"/>
      <point x="1532" y="1984" type="line"/>
      <point x="540" y="1984" type="line"/>
    </contour>
    <contour>
      <point x="1234" y="0" type="line"/>
      <point x="1170" y="0" type="line"/>
      <point x="1234" y="384" type="line"/>
      <point x="1226" y="384" type="line"/>
      <point x="1164" y="257"/>
      <point x="983" y="70"/>
      <point x="762" y="-32"/>
      <point x="638" y="-32" type="qcurve"/>
      <point x="457" y="-32"/>
      <point x="225" y="177"/>
      <point x="140" y="537"/>
      <point x="178" y="764" type="qcurve"/>
      <point x="215" y="990"/>
      <point x="420" y="1350"/>
      <point x="722" y="1560"/>
      <point x="902" y="1560" type="qcurve"/>
      <point x="1024" y="1560"/>
      <point x="1213" y="1459"/>
      <point x="1334" y="1272"/>
      <point x="1352" y="1144" type="qcurve"/>
      <point x="1360" y="1144" type="line"/>
      <point x="1510" y="2048" type="line"/>
      <point x="1574" y="2048" type="line"/>
    </contour>
    <contour>
      <point x="1298" y="764" type="qcurve"/>
      <point x="1332" y="972"/>
      <point x="1258" y="1303"/>
      <point x="1053" y="1496"/>
      <point x="890" y="1496" type="qcurve"/>
      <point x="729" y="1496"/>
      <point x="460" y="1303"/>
      <point x="276" y="972"/>
      <point x="242" y="764" type="qcurve"/>
      <point x="207" y="556"/>
      <point x="280" y="225"/>
      <point x="485" y="32"/>
      <point x="648" y="32" type="qcurve"/>
      <point x="811" y="32"/>
      <point x="1080" y="225"/>
      <point x="1263" y="556"/>
    </contour>
  </outline>
</glyph>
<glyph name="deltaturned" format="2">
  <advance width="1312"/>
  <unicode hex="018D"/>
  <outline>
    <contour>
      <point x="850" y="-516" type="line"/>
      <point x="20" y="-516" type="line"/>
      <point x="30" y="-452" type="line"/>
      <point x="762" y="-454" type="line"/>
      <point x="704" y="-371"/>
      <point x="575" y="-202"/>
      <point x="408" y="5"/>
      <point x="292" y="144" type="qcurve"/>
      <point x="199" y="253"/>
      <point x="91" y="475"/>
      <point x="55" y="700"/>
      <point x="70" y="814" type="qcurve"/>
      <point x="74" y="844" type="line"/>
      <point x="104" y="1067"/>
      <point x="304" y="1387"/>
      <point x="607" y="1560"/>
      <point x="788" y="1560" type="qcurve"/>
      <point x="964" y="1560"/>
      <point x="1202" y="1382"/>
      <point x="1300" y="1058"/>
      <point x="1266" y="838" type="qcurve"/>
      <point x="1262" y="812" type="line"/>
      <point x="1231" y="609"/>
      <point x="1027" y="298"/>
      <point x="727" y="124"/>
      <point x="552" y="124" type="qcurve"/>
      <point x="516" y="124"/>
      <point x="431" y="132"/>
      <point x="378" y="140" type="qcurve"/>
      <point x="461" y="40"/>
      <point x="599" y="-131"/>
      <point x="715" y="-279"/>
      <point x="814" y="-411"/>
      <point x="858" y="-472" type="qcurve"/>
    </contour>
    <contour>
      <point x="1198" y="812" type="qcurve"/>
      <point x="1202" y="838" type="line"/>
      <point x="1234" y="1045"/>
      <point x="1151" y="1339"/>
      <point x="940" y="1496"/>
      <point x="778" y="1496" type="qcurve"/>
      <point x="620" y="1496"/>
      <point x="348" y="1336"/>
      <point x="165" y="1043"/>
      <point x="138" y="844" type="qcurve"/>
      <point x="134" y="814" type="line"/>
      <point x="114" y="661"/>
      <point x="190" y="386"/>
      <point x="308" y="224" type="qcurve"/>
      <point x="381" y="206"/>
      <point x="501" y="188"/>
      <point x="552" y="188" type="qcurve"/>
      <point x="710" y="188"/>
      <point x="983" y="348"/>
      <point x="1170" y="630"/>
    </contour>
  </outline>
</glyph>
<glyph name="Ereversed" format="2">
  <advance width="1644"/>
  <unicode hex="018E"/>
  <outline>
    <contour>
      <point x="1536" y="2048" type="line"/>
      <point x="1196" y="0" type="line"/>
      <point x="104" y="0" type="line"/>
      <point x="116" y="64" type="line"/>
      <point x="1144" y="64" type="line"/>
      <point x="1296" y="992" type="line"/>
      <point x="328" y="992" type="line"/>
      <point x="340" y="1056" type="line"/>
      <point x="1308" y="1056" type="line"/>
      <point x="1460" y="1984" type="line"/>
      <point x="404" y="1984" type="line"/>
      <point x="416" y="2048" type="line"/>
    </contour>
  </outline>
</glyph>
<glyph name="Schwa" format="2">
  <advance width="1912"/>
  <unicode hex="018F"/>
  <outline>
    <contour>
      <point x="834" y="-28" type="qcurve"/>
      <point x="596" y="-28"/>
      <point x="282" y="222"/>
      <point x="165" y="669"/>
      <point x="220" y="964" type="qcurve"/>
      <point x="226" y="996" type="line"/>
      <point x="1746" y="996" type="line"/>
      <point x="1732" y="932" type="line"/>
      <point x="280" y="932" type="line"/>
      <point x="278" y="920" type="line"/>
      <point x="233" y="649"/>
      <point x="341" y="252"/>
      <point x="626" y="36"/>
      <point x="844" y="36" type="qcurve"/>
      <point x="1063" y="36"/>
      <point x="1417" y="258"/>
      <point x="1660" y="670"/>
      <point x="1710" y="956" type="qcurve"/>
      <point x="1722" y="1024" type="line"/>
      <point x="1763" y="1254"/>
      <point x="1725" y="1620"/>
      <point x="1576" y="1877"/>
      <point x="1323" y="2012"/>
      <point x="1148" y="2012" type="qcurve"/>
      <point x="1053" y="2012"/>
      <point x="865" y="1970"/>
      <point x="692" y="1890"/>
      <point x="618" y="1832" type="qcurve"/>
      <point x="602" y="1890" type="line"/>
      <point x="658" y="1935"/>
      <point x="786" y="2005"/>
      <point x="927" y="2052"/>
      <point x="1079" y="2076"/>
      <point x="1158" y="2076" type="qcurve"/>
      <point x="1405" y="2076"/>
      <point x="1722" y="1820"/>
      <point x="1840" y="1348"/>
      <point x="1786" y="1024" type="qcurve"/>
      <point x="1774" y="954" type="line"/>
      <point x="1722" y="648"/>
      <point x="1460" y="208"/>
      <point x="1074" y="-28"/>
    </contour>
  </outline>
</glyph>
<glyph name="Eopen" format="2">
  <advance width="1632"/>
  <unicode hex="0190"/>
  <outline>
    <contour>
      <point x="1056" y="1054" type="line"/>
      <point x="716" y="1054" type="line"/>
      <point x="566" y="1089"/>
      <point x="387" y="1236"/>
      <point x="321" y="1440"/>
      <point x="340" y="1558" type="qcurve"/>
      <point x="365" y="1708"/>
      <point x="553" y="1942"/>
      <point x="845" y="2076"/>
      <point x="1026" y="2076" type="qcurve"/>
      <point x="1207" y="2076"/>
      <point x="1441" y="1938"/>
      <point x="1551" y="1694"/>
      <point x="1544" y="1536" type="qcurve"/>
      <point x="1480" y="1536" type="line"/>
      <point x="1485" y="1746"/>
      <point x="1261" y="2012"/>
      <point x="1016" y="2012" type="qcurve"/>
      <point x="852" y="2012"/>
      <point x="591" y="1895"/>
      <point x="426" y="1690"/>
      <point x="404" y="1558" type="qcurve"/>
      <point x="381" y="1418"/>
      <point x="496" y="1206"/>
      <point x="748" y="1088"/>
      <point x="930" y="1088" type="qcurve"/>
      <point x="1062" y="1088" type="line"/>
    </contour>
    <contour>
      <point x="704" y="1066" type="qcurve"/>
      <point x="1058" y="1066" type="line"/>
      <point x="1052" y="1024" type="line"/>
      <point x="920" y="1024" type="line"/>
      <point x="725" y="1024"/>
      <point x="413" y="895"/>
      <point x="216" y="669"/>
      <point x="192" y="522" type="qcurve"/>
      <point x="170" y="386"/>
      <point x="273" y="165"/>
      <point x="511" y="36"/>
      <point x="692" y="36" type="qcurve"/>
      <point x="955" y="36"/>
      <point x="1316" y="305"/>
      <point x="1380" y="512" type="qcurve"/>
      <point x="1444" y="512" type="line"/>
      <point x="1398" y="358"/>
      <point x="1185" y="113"/>
      <point x="874" y="-28"/>
      <point x="680" y="-28" type="qcurve"/>
      <point x="484" y="-28"/>
      <point x="219" y="116"/>
      <point x="102" y="365"/>
      <point x="128" y="522" type="qcurve"/>
      <point x="161" y="717"/>
      <point x="460" y="1008"/>
    </contour>
  </outline>
</glyph>
<glyph name="Fhook" format="2">
  <advance width="1584"/>
  <unicode hex="0191"/>
  <outline>
    <contour>
      <point x="124" y="0" type="line"/>
      <point x="188" y="0" type="line"/>
      <point x="148" y="-232" type="line"/>
      <point x="133" y="-317"/>
      <point x="78" y="-445"/>
      <point x="-3" y="-530"/>
      <point x="-110" y="-572"/>
      <point x="-178" y="-572" type="qcurve"/>
      <point x="-201" y="-572"/>
      <point x="-242" y="-568"/>
      <point x="-256" y="-564" type="qcurve"/>
      <point x="-246" y="-500" type="line"/>
      <point x="-232" y="-504"/>
      <point x="-198" y="-508"/>
      <point x="-178" y="-508" type="qcurve"/>
      <point x="-68" y="-508"/>
      <point x="60" y="-371"/>
      <point x="84" y="-232" type="qcurve"/>
    </contour>
    <contour>
      <point x="124" y="0" type="line"/>
      <point x="464" y="2048" type="line"/>
      <point x="1564" y="2048" type="line"/>
      <point x="1552" y="1984" type="line"/>
      <point x="516" y="1984" type="line"/>
      <point x="364" y="1056" type="line"/>
      <point x="1304" y="1056" type="line"/>
      <point x="1292" y="992" type="line"/>
      <point x="352" y="992" type="line"/>
      <point x="188" y="0" type="line"/>
    </contour>
  </outline>
</glyph>
<glyph name="florin" format="2">
  <advance width="836"/>
  <unicode hex="0192"/>
  <outline>
    <contour>
      <point x="840" y="1472" type="line"/>
      <point x="828" y="1408" type="line"/>
      <point x="556" y="1408" type="line"/>
      <point x="284" y="-224" type="line"/>
      <point x="257" y="-386"/>
      <point x="16" y="-576"/>
      <point x="-128" y="-576" type="qcurve"/>
      <point x="-164" y="-576"/>
      <point x="-217" y="-565"/>
      <point x="-244" y="-556" type="qcurve"/>
      <point x="-216" y="-496" type="line"/>
      <point x="-192" y="-502"/>
      <point x="-146" y="-512"/>
      <point x="-116" y="-512" type="qcurve"/>
      <point x="-2" y="-512"/>
      <point x="198" y="-359"/>
      <point x="220" y="-224" type="qcurve"/>
      <point x="492" y="1408" type="line"/>
      <point x="220" y="1408" type="line"/>
      <point x="232" y="1472" type="line"/>
      <point x="502" y="1472" type="line"/>
      <point x="554" y="1788" type="line"/>
      <point x="581" y="1950"/>
      <point x="822" y="2140"/>
      <point x="966" y="2140" type="qcurve"/>
      <point x="1002" y="2140"/>
      <point x="1055" y="2129"/>
      <point x="1082" y="2120" type="qcurve"/>
      <point x="1054" y="2060" type="line"/>
      <point x="1030" y="2066"/>
      <point x="984" y="2076"/>
      <point x="954" y="2076" type="qcurve"/>
      <point x="840" y="2076"/>
      <point x="641" y="1923"/>
      <point x="618" y="1788" type="qcurve"/>
      <point x="566" y="1472" type="line"/>
    </contour>
  </outline>
</glyph>
<glyph name="Ghook" format="2">
  <advance width="2004"/>
  <unicode hex="0193"/>
  <unicode hex="E004"/>
  <outline>
    <contour>
      <point x="1940" y="1408" type="line"/>
      <point x="1876" y="1408" type="line"/>
      <point x="1918" y="1664" type="line"/>
      <point x="1930" y="1735"/>
      <point x="1974" y="1837"/>
      <point x="2038" y="1904"/>
      <point x="2122" y="1936"/>
      <point x="2174" y="1936" type="qcurve"/>
      <point x="2191" y="1936"/>
      <point x="2225" y="1933"/>
      <point x="2242" y="1930" type="qcurve"/>
      <point x="2232" y="1866" type="line"/>
      <point x="2213" y="1869"/>
      <point x="2179" y="1872"/>
      <point x="2166" y="1872" type="qcurve"/>
      <point x="2121" y="1872"/>
      <point x="2047" y="1831"/>
      <point x="1995" y="1739"/>
      <point x="1982" y="1660" type="qcurve"/>
    </contour>
    <contour>
      <point x="926" y="-28" type="qcurve"/>
      <point x="666" y="-28"/>
      <point x="325" y="237"/>
      <point x="192" y="711"/>
      <point x="244" y="1024" type="qcurve"/>
      <point x="283" y="1260"/>
      <point x="468" y="1647"/>
      <point x="739" y="1926"/>
      <point x="1076" y="2076"/>
      <point x="1266" y="2076" type="qcurve"/>
      <point x="1446" y="2076"/>
      <point x="1702" y="1952"/>
      <point x="1864" y="1751"/>
      <point x="1940" y="1518"/>
      <point x="1940" y="1408" type="qcurve"/>
      <point x="1876" y="1408" type="line"/>
      <point x="1875" y="1513"/>
      <point x="1803" y="1726"/>
      <point x="1654" y="1904"/>
      <point x="1424" y="2012"/>
      <point x="1266" y="2012" type="qcurve"/>
      <point x="1031" y="2012"/>
      <point x="632" y="1765"/>
      <point x="357" y="1320"/>
      <point x="308" y="1024" type="qcurve"/>
      <point x="260" y="732"/>
      <point x="375" y="287"/>
      <point x="684" y="36"/>
      <point x="926" y="36" type="qcurve"/>
      <point x="1140" y="36"/>
      <point x="1511" y="239"/>
      <point x="1766" y="620"/>
      <point x="1806" y="888" type="qcurve"/>
      <point x="1830" y="864" type="line"/>
      <point x="1094" y="864" type="line"/>
      <point x="1104" y="928" type="line"/>
      <point x="1876" y="928" type="line"/>
      <point x="1722" y="0" type="line"/>
      <point x="1658" y="0" type="line"/>
      <point x="1736" y="474" type="line"/>
      <point x="1728" y="474" type="line"/>
      <point x="1598" y="228"/>
      <point x="1176" y="-28"/>
    </contour>
  </outline>
</glyph>
<glyph name="Gamma" format="2">
  <advance width="1454"/>
  <unicode hex="0194"/>
  <outline>
    <contour>
      <point x="160" y="2048" type="line"/>
      <point x="226" y="2048" type="line"/>
      <point x="688" y="98" type="line"/>
      <point x="728" y="-69"/>
      <point x="769" y="-264"/>
      <point x="780" y="-370"/>
      <point x="774" y="-404" type="qcurve"/>
      <point x="764" y="-462"/>
      <point x="695" y="-554"/>
      <point x="586" y="-608"/>
      <point x="516" y="-608" type="qcurve"/>
      <point x="405" y="-608"/>
      <point x="292" y="-480"/>
      <point x="308" y="-392" type="qcurve"/>
      <point x="311" y="-375"/>
      <point x="326" y="-332"/>
      <point x="356" y="-268"/>
      <point x="408" y="-171"/>
      <point x="486" y="-30"/>
      <point x="542" y="68" type="qcurve"/>
      <point x="1666" y="2048" type="line"/>
      <point x="1740" y="2048" type="line"/>
      <point x="648" y="126" type="line"/>
      <point x="548" y="-50"/>
      <point x="431" y="-262"/>
      <point x="378" y="-377"/>
      <point x="372" y="-406" type="qcurve"/>
      <point x="361" y="-465"/>
      <point x="437" y="-544"/>
      <point x="514" y="-544" type="qcurve"/>
      <point x="592" y="-544"/>
      <point x="699" y="-464"/>
      <point x="710" y="-404" type="qcurve"/>
      <point x="715" y="-376"/>
      <point x="701" y="-261"/>
      <point x="655" y="-38"/>
      <point x="610" y="152" type="qcurve"/>
    </contour>
  </outline>
</glyph>
<glyph name="hv" format="2">
  <advance width="2584"/>
  <unicode hex="0195"/>
  <outline>
    <contour>
      <point x="144" y="0" type="line"/>
      <point x="484" y="2048" type="line"/>
      <point x="548" y="2048" type="line"/>
      <point x="422" y="1292" type="line"/>
      <point x="430" y="1292" type="line"/>
      <point x="505" y="1414"/>
      <point x="777" y="1556"/>
      <point x="934" y="1556" type="qcurve"/>
      <point x="1088" y="1556"/>
      <point x="1302" y="1422"/>
      <point x="1397" y="1186"/>
      <point x="1372" y="1032" type="qcurve"/>
      <point x="1314" y="680" type="line"/>
      <point x="1250" y="680" type="line"/>
      <point x="1308" y="1032" type="line"/>
      <point x="1342" y="1236"/>
      <point x="1128" y="1492"/>
      <point x="924" y="1492" type="qcurve"/>
      <point x="788" y="1492"/>
      <point x="557" y="1374"/>
      <point x="402" y="1166"/>
      <point x="380" y="1032" type="qcurve"/>
      <point x="208" y="0" type="line"/>
    </contour>
    <contour>
      <point x="1556" y="-26" type="qcurve"/>
      <point x="1415" y="-26"/>
      <point x="1250" y="112"/>
      <point x="1202" y="392"/>
      <point x="1236" y="604" type="qcurve"/>
      <point x="1278" y="856" type="line"/>
      <point x="1342" y="856" type="line"/>
      <point x="1300" y="604" type="line"/>
      <point x="1268" y="404"/>
      <point x="1302" y="154"/>
      <point x="1441" y="38"/>
      <point x="1566" y="38" type="qcurve"/>
      <point x="1757" y="38"/>
      <point x="2056" y="345"/>
      <point x="2279" y="960"/>
      <point x="2356" y="1420" type="qcurve"/>
      <point x="2374" y="1536" type="line"/>
      <point x="2438" y="1536" type="line"/>
      <point x="2416" y="1396" type="line"/>
      <point x="2337" y="919"/>
      <point x="2098" y="287"/>
      <point x="1770" y="-26"/>
    </contour>
  </outline>
</glyph>
<glyph name="Khook" format="2">
  <advance width="1844"/>
  <unicode hex="0198"/>
  <outline>
    <contour>
      <point x="192" y="0" type="line"/>
      <point x="532" y="2048" type="line"/>
      <point x="596" y="2048" type="line"/>
      <point x="384" y="772" type="line"/>
      <point x="390" y="774" type="line"/>
      <point x="1684" y="1970" type="line"/>
      <point x="1768" y="2048"/>
      <point x="1933" y="2064"/>
      <point x="2020" y="1994" type="qcurve"/>
      <point x="1976" y="1952" type="line"/>
      <point x="1907" y="2000"/>
      <point x="1772" y="1978"/>
      <point x="1704" y="1908" type="qcurve"/>
      <point x="778" y="1050" type="line"/>
      <point x="1600" y="0" type="line"/>
      <point x="1520" y="0" type="line"/>
      <point x="732" y="1008" type="line"/>
      <point x="368" y="668" type="line"/>
      <point x="256" y="0" type="line"/>
    </contour>
  </outline>
</glyph>
<glyph name="khook" format="2">
  <advance width="1375"/>
  <unicode hex="0199"/>
  <outline>
    <contour>
      <point x="1072" y="0" type="line"/>
      <point x="544" y="830" type="line"/>
      <point x="314" y="634" type="line"/>
      <point x="208" y="0" type="line"/>
      <point x="144" y="0" type="line"/>
      <point x="432" y="1734" type="line"/>
      <point x="498" y="1748" type="line"/>
      <point x="330" y="740" type="line"/>
      <point x="340" y="740" type="line"/>
      <point x="1280" y="1536" type="line"/>
      <point x="1380" y="1536" type="line"/>
      <point x="594" y="872" type="line"/>
      <point x="1148" y="0" type="line"/>
    </contour>
    <contour>
      <point x="488" y="1688" type="line"/>
      <point x="426" y="1698" type="line"/>
      <point x="444" y="1804" type="line"/>
      <point x="456" y="1877"/>
      <point x="505" y="1982"/>
      <point x="579" y="2048"/>
      <point x="680" y="2080"/>
      <point x="744" y="2080" type="qcurve"/>
      <point x="766" y="2080"/>
      <point x="818" y="2077"/>
      <point x="840" y="2074" type="qcurve"/>
      <point x="830" y="2010" type="line"/>
      <point x="808" y="2013"/>
      <point x="755" y="2016"/>
      <point x="736" y="2016" type="qcurve"/>
      <point x="636" y="2016"/>
      <point x="524" y="1906"/>
      <point x="504" y="1784" type="qcurve"/>
    </contour>
  </outline>
</glyph>
